OpenSansRodinEX.sfdir
StartChar: dollar
Encoding: 36 36 7
Width: 1235
VWidth: 2150
GlyphClass: 1
Flags: W
LayerCount: 2
Fore
SplineSet
532.349609375 -124.950195312 m 1,0,-1
 532.349609375 67.2001953125 l 1,1,2
 392.700195312 70.349609375 392.700195312 70.349609375 287.700195312 93.4501953125 c 128,-1,3
 182.700195312 116.549804688 182.700195312 116.549804688 92.400390625 156.450195312 c 1,4,-1
 92.400390625 458.849609375 l 1,5,6
 187.950195312 414.75 187.950195312 414.75 307.650390625 383.775390625 c 128,-1,7
 427.349609375 352.799804688 427.349609375 352.799804688 532.349609375 345.450195312 c 1,8,-1
 532.349609375 640.5 l 1,9,10
 383.25 691.950195312 383.25 691.950195312 280.875 749.700195312 c 128,-1,11
 178.5 807.450195312 178.5 807.450195312 126.525390625 888.299804688 c 128,-1,12
 74.5498046875 969.150390625 74.5498046875 969.150390625 74.5498046875 1090.95019531 c 0,13,14
 74.5498046875 1209.59960938 74.5498046875 1209.59960938 131.775390625 1292.02539062 c 128,-1,15
 189 1374.45019531 189 1374.45019531 292.424804688 1421.17480469 c 128,-1,16
 395.849609375 1467.90039062 395.849609375 1467.90039062 532.349609375 1478.40039062 c 1,17,-1
 532.349609375 1632.75 l 1,18,-1
 703.5 1632.75 l 1,19,-1
 703.5 1481.54980469 l 1,20,21
 829.5 1476.29980469 829.5 1476.29980469 936.075195312 1450.57519531 c 128,-1,22
 1042.65039062 1424.84960938 1042.65039062 1424.84960938 1137.15039062 1383.90039062 c 1,23,-1
 1041.59960938 1117.20019531 l 1,24,25
 958.650390625 1151.84960938 958.650390625 1151.84960938 871.5 1172.32519531 c 128,-1,26
 784.349609375 1192.79980469 784.349609375 1192.79980469 703.5 1200.15039062 c 1,27,-1
 703.5 915.599609375 l 1,28,29
 836.849609375 871.5 836.849609375 871.5 941.849609375 820.575195312 c 128,-1,30
 1046.84960938 769.650390625 1046.84960938 769.650390625 1108.27539062 691.950195312 c 128,-1,31
 1169.70019531 614.25 1169.70019531 614.25 1169.70019531 487.200195312 c 0,32,33
 1169.70019531 322.349609375 1169.70019531 322.349609375 1055.25 208.424804688 c 128,-1,34
 940.799804688 94.5 940.799804688 94.5 703.5 71.400390625 c 1,35,-1
 703.5 -124.950195312 l 1,36,-1
 532.349609375 -124.950195312 l 1,0,-1
703.5 350.700195312 m 1,37,38
 771.75 362.25 771.75 362.25 803.775390625 390.075195312 c 128,-1,39
 835.799804688 417.900390625 835.799804688 417.900390625 835.799804688 462 c 0,40,41
 835.799804688 490.349609375 835.799804688 490.349609375 822.674804688 511.875 c 128,-1,42
 809.549804688 533.400390625 809.549804688 533.400390625 780.150390625 551.25 c 128,-1,43
 750.75 569.099609375 750.75 569.099609375 703.5 586.950195312 c 1,44,-1
 703.5 350.700195312 l 1,37,38
532.349609375 973.349609375 m 1,45,-1
 532.349609375 1197 l 1,46,47
 491.400390625 1191.75 491.400390625 1191.75 463.049804688 1179.15039062 c 128,-1,48
 434.700195312 1166.54980469 434.700195312 1166.54980469 420 1146.07519531 c 128,-1,49
 405.299804688 1125.59960938 405.299804688 1125.59960938 405.299804688 1098.29980469 c 0,50,51
 405.299804688 1069.95019531 405.299804688 1069.95019531 418.424804688 1048.42480469 c 128,-1,52
 431.549804688 1026.90039062 431.549804688 1026.90039062 459.375 1009.04980469 c 128,-1,53
 487.200195312 991.200195312 487.200195312 991.200195312 532.349609375 973.349609375 c 1,45,-1
EndSplineSet
Validated: 1
EndChar
StartChar: ampersand
Encoding: 38 38 9
Width: 1665
VWidth: 2150
GlyphClass: 1
Flags: W
LayerCount: 2
Fore
SplineSet
688.799804688 1556.09960938 m 0,0,1
 823.200195312 1556.09960938 823.200195312 1556.09960938 924 1515.15039062 c 128,-1,2
 1024.79980469 1474.20019531 1024.79980469 1474.20019531 1080.97460938 1395.97460938 c 128,-1,3
 1137.15039062 1317.75 1137.15039062 1317.75 1137.15039062 1206.45019531 c 0,4,5
 1137.15039062 1065.75 1137.15039062 1065.75 1054.72460938 967.049804688 c 128,-1,6
 972.299804688 868.349609375 972.299804688 868.349609375 845.25 792.75 c 1,7,-1
 1099.34960938 548.099609375 l 1,8,9
 1139.25 613.200195312 1139.25 613.200195312 1169.17480469 688.275390625 c 128,-1,10
 1199.09960938 763.349609375 1199.09960938 763.349609375 1218 843.150390625 c 1,11,-1
 1598.09960938 843.150390625 l 1,12,13
 1565.54980469 704.549804688 1565.54980469 704.549804688 1499.40039062 563.849609375 c 128,-1,14
 1433.25 423.150390625 1433.25 423.150390625 1345.04980469 315 c 1,15,-1
 1671.59960938 0 l 1,16,-1
 1207.5 0 l 1,17,-1
 1095.15039062 113.400390625 l 1,18,19
 1035.29980469 73.5 1035.29980469 73.5 971.25 43.0498046875 c 128,-1,20
 907.200195312 12.599609375 907.200195312 12.599609375 826.875 -4.2001953125 c 128,-1,21
 746.549804688 -21 746.549804688 -21 637.349609375 -21 c 0,22,23
 460.950195312 -21 460.950195312 -21 336 36.75 c 128,-1,24
 211.049804688 94.5 211.049804688 94.5 145.950195312 194.25 c 128,-1,25
 80.849609375 294 80.849609375 294 80.849609375 421.049804688 c 0,26,27
 80.849609375 520.799804688 80.849609375 520.799804688 114.450195312 599.025390625 c 128,-1,28
 148.049804688 677.25 148.049804688 677.25 211.049804688 738.674804688 c 128,-1,29
 274.049804688 800.099609375 274.049804688 800.099609375 364.349609375 848.400390625 c 1,30,31
 315 906.150390625 315 906.150390625 282.974609375 960.75 c 128,-1,32
 250.950195312 1015.34960938 250.950195312 1015.34960938 235.724609375 1073.09960938 c 128,-1,33
 220.5 1130.84960938 220.5 1130.84960938 220.5 1195.95019531 c 0,34,35
 220.5 1304.09960938 220.5 1304.09960938 276.674804688 1384.95019531 c 128,-1,36
 332.849609375 1465.79980469 332.849609375 1465.79980469 437.849609375 1510.95019531 c 128,-1,37
 542.849609375 1556.09960938 542.849609375 1556.09960938 688.799804688 1556.09960938 c 0,0,1
570.150390625 640.5 m 1,38,39
 535.5 614.25 535.5 614.25 510.825195312 584.849609375 c 128,-1,40
 486.150390625 555.450195312 486.150390625 555.450195312 473.549804688 522.375 c 128,-1,41
 460.950195312 489.299804688 460.950195312 489.299804688 460.950195312 450.450195312 c 0,42,43
 460.950195312 371.700195312 460.950195312 371.700195312 519.75 324.450195312 c 128,-1,44
 578.549804688 277.200195312 578.549804688 277.200195312 667.799804688 277.200195312 c 0,45,46
 732.900390625 277.200195312 732.900390625 277.200195312 785.400390625 293.474609375 c 128,-1,47
 837.900390625 309.75 837.900390625 309.75 874.650390625 334.950195312 c 1,48,-1
 570.150390625 640.5 l 1,38,39
684.599609375 1297.79980469 m 0,49,50
 635.25 1297.79980469 635.25 1297.79980469 594.299804688 1271.54980469 c 128,-1,51
 553.349609375 1245.29980469 553.349609375 1245.29980469 553.349609375 1178.09960938 c 0,52,53
 553.349609375 1128.75 553.349609375 1128.75 581.174804688 1083.07519531 c 128,-1,54
 609 1037.40039062 609 1037.40039062 649.950195312 995.400390625 c 1,55,56
 724.5 1036.34960938 724.5 1036.34960938 764.400390625 1085.17480469 c 128,-1,57
 804.299804688 1134 804.299804688 1134 804.299804688 1189.65039062 c 0,58,59
 804.299804688 1247.40039062 804.299804688 1247.40039062 767.549804688 1272.59960938 c 128,-1,60
 730.799804688 1297.79980469 730.799804688 1297.79980469 684.599609375 1297.79980469 c 0,49,50
EndSplineSet
Validated: 1
EndChar
StartChar: quotesingle
Encoding: 39 39 10
Width: 600
VWidth: 2150
GlyphClass: 1
Flags: W
LayerCount: 2
Fore
SplineSet
467.25 1535.09960938 m 1,0,-1
 424.200195312 980.700195312 l 1,1,-1
 176.400390625 980.700195312 l 1,2,-1
 133.349609375 1535.09960938 l 1,3,-1
 467.25 1535.09960938 l 1,0,-1
EndSplineSet
Validated: 1
EndChar
StartChar: asterisk
Encoding: 42 42 13
Width: 1163
VWidth: 2150
GlyphClass: 1
Flags: W
LayerCount: 2
Fore
SplineSet
729.75 1633.79980469 m 1,0,-1
 688.799804688 1255.79980469 l 1,1,-1
 1071 1363.95019531 l 1,2,-1
 1107.75 1076.25 l 1,3,-1
 764.400390625 1053.15039062 l 1,4,-1
 990.150390625 750.75 l 1,5,-1
 735 615.299804688 l 1,6,-1
 577.5 928.200195312 l 1,7,-1
 441 617.400390625 l 1,8,-1
 174.299804688 750.75 l 1,9,-1
 399 1053.15039062 l 1,10,-1
 56.7001953125 1079.40039062 l 1,11,-1
 100.799804688 1363.95019531 l 1,12,-1
 475.650390625 1255.79980469 l 1,13,-1
 433.650390625 1633.79980469 l 1,14,-1
 729.75 1633.79980469 l 1,0,-1
EndSplineSet
Validated: 1
EndChar
StartChar: comma
Encoding: 44 44 15
Width: 639
VWidth: 2150
GlyphClass: 1
Flags: W
LayerCount: 2
Fore
SplineSet
494.549804688 282.450195312 m 1,0,-1
 510.299804688 258.299804688 l 1,1,2
 491.400390625 181.650390625 491.400390625 181.650390625 461.474609375 84.525390625 c 128,-1,3
 431.549804688 -12.599609375 431.549804688 -12.599609375 396.375 -110.775390625 c 128,-1,4
 361.200195312 -208.950195312 361.200195312 -208.950195312 325.5 -287.700195312 c 1,5,-1
 63 -287.700195312 l 1,6,7
 84 -196.349609375 84 -196.349609375 103.950195312 -95.025390625 c 128,-1,8
 123.900390625 6.2998046875 123.900390625 6.2998046875 141.224609375 103.950195312 c 128,-1,9
 158.549804688 201.599609375 158.549804688 201.599609375 168 282.450195312 c 1,10,-1
 494.549804688 282.450195312 l 1,0,-1
EndSplineSet
Validated: 1
EndChar
StartChar: hyphen
Encoding: 45 45 16
Width: 687
VWidth: 2150
GlyphClass: 1
Flags: W
LayerCount: 2
Fore
SplineSet
54.599609375 429.450195312 m 1,0,-1
 54.599609375 724.5 l 1,1,-1
 633.150390625 724.5 l 1,2,-1
 633.150390625 429.450195312 l 1,3,-1
 54.599609375 429.450195312 l 1,0,-1
EndSplineSet
Validated: 1
EndChar
StartChar: one
Encoding: 49 49 20
Width: 1245
VWidth: 2150
GlyphClass: 1
Flags: W
LayerCount: 2
Fore
SplineSet
938.700195312 0 m 1,0,-1
 565.950195312 0 l 1,1,-1
 565.950195312 824.25 l 2,2,3
 565.950195312 852.599609375 565.950195312 852.599609375 566.474609375 907.724609375 c 128,-1,4
 567 962.849609375 567 962.849609375 569.099609375 1025.84960938 c 128,-1,5
 571.200195312 1088.84960938 571.200195312 1088.84960938 573.299804688 1139.25 c 1,6,7
 554.400390625 1116.15039062 554.400390625 1116.15039062 525 1087.79980469 c 128,-1,8
 495.599609375 1059.45019531 495.599609375 1059.45019531 469.349609375 1036.34960938 c 2,9,-1
 294 893.549804688 l 1,10,-1
 108.150390625 1123.5 l 1,11,-1
 618.450195312 1535.09960938 l 1,12,-1
 938.700195312 1535.09960938 l 1,13,-1
 938.700195312 0 l 1,0,-1
EndSplineSet
Validated: 1
Substitution2: "'onum' Oldstyle Figures lookup 33 subtable" one.tosf
Substitution2: "'pnum' Proportional Numbers lookup 31 subtable" one.lf
Substitution2: "'frac' Diagonal Fractions lookup 24 subtable" one.numr
Substitution2: "'dnom' Denominators lookup 22 subtable" one.dnom
Substitution2: "'numr' Numerators lookup 21 subtable" one.numr
Substitution2: "'sups' Superscript lookup 20 subtable" uni00B9
Substitution2: "'subs' Subscript lookup 19 subtable" uni2081
AlternateSubs2: "'aalt' Access All Alternates lookup 1 subtable" uni00B9 one.dnom one.lf one.numr one.tosf uni2081
EndChar
StartChar: two
Encoding: 50 50 21
Width: 1245
VWidth: 2150
GlyphClass: 1
Flags: W
LayerCount: 2
Fore
SplineSet
1168.65039062 0 m 1,0,-1
 75.599609375 0 l 1,1,-1
 75.599609375 249.900390625 l 1,2,-1
 455.700195312 634.200195312 l 2,3,4
 572.25 754.950195312 572.25 754.950195312 639.974609375 831.599609375 c 128,-1,5
 707.700195312 908.25 707.700195312 908.25 736.575195312 967.049804688 c 128,-1,6
 765.450195312 1025.84960938 765.450195312 1025.84960938 765.450195312 1092 c 0,7,8
 765.450195312 1171.79980469 765.450195312 1171.79980469 718.200195312 1209.59960938 c 128,-1,9
 670.950195312 1247.40039062 670.950195312 1247.40039062 598.5 1247.40039062 c 0,10,11
 517.650390625 1247.40039062 517.650390625 1247.40039062 438.375 1206.45019531 c 128,-1,12
 359.099609375 1165.5 359.099609375 1165.5 266.700195312 1086.75 c 1,13,-1
 65.099609375 1325.09960938 l 1,14,15
 132.299804688 1383.90039062 132.299804688 1383.90039062 208.424804688 1437.45019531 c 128,-1,16
 284.549804688 1491 284.549804688 1491 386.400390625 1524.07519531 c 128,-1,17
 488.25 1557.15039062 488.25 1557.15039062 633.150390625 1557.15039062 c 0,18,19
 787.5 1557.15039062 787.5 1557.15039062 899.325195312 1502.54980469 c 128,-1,20
 1011.15039062 1447.95019531 1011.15039062 1447.95019531 1072.04980469 1353.45019531 c 128,-1,21
 1132.95019531 1258.95019531 1132.95019531 1258.95019531 1132.95019531 1139.25 c 0,22,23
 1132.95019531 1009.04980469 1132.95019531 1009.04980469 1083.07519531 904.575195312 c 128,-1,24
 1033.20019531 800.099609375 1033.20019531 800.099609375 936.599609375 696.150390625 c 128,-1,25
 840 592.200195312 840 592.200195312 699.299804688 464.099609375 c 2,26,-1
 543.900390625 320.25 l 1,27,-1
 543.900390625 307.650390625 l 1,28,-1
 1168.65039062 307.650390625 l 1,29,-1
 1168.65039062 0 l 1,0,-1
EndSplineSet
Validated: 1
Substitution2: "'onum' Oldstyle Figures lookup 33 subtable" two.tosf
Substitution2: "'pnum' Proportional Numbers lookup 31 subtable" two.lf
Substitution2: "'frac' Diagonal Fractions lookup 24 subtable" two.numr
Substitution2: "'dnom' Denominators lookup 22 subtable" two.dnom
Substitution2: "'numr' Numerators lookup 21 subtable" two.numr
Substitution2: "'sups' Superscript lookup 20 subtable" uni00B2
Substitution2: "'subs' Subscript lookup 19 subtable" uni2082
AlternateSubs2: "'aalt' Access All Alternates lookup 1 subtable" uni00B2 two.dnom two.lf two.numr two.tosf uni2082
EndChar
StartChar: three
Encoding: 51 51 22
Width: 1245
VWidth: 2150
GlyphClass: 1
Flags: W
LayerCount: 2
Fore
SplineSet
1113 1197 m 0,0,1
 1113 1089.90039062 1113 1089.90039062 1067.84960938 1011.15039062 c 128,-1,2
 1022.70019531 932.400390625 1022.70019531 932.400390625 946.575195312 882.525390625 c 128,-1,3
 870.450195312 832.650390625 870.450195312 832.650390625 778.049804688 808.5 c 1,4,-1
 778.049804688 802.200195312 l 1,5,6
 961.799804688 779.099609375 961.799804688 779.099609375 1059.97460938 689.849609375 c 128,-1,7
 1158.15039062 600.599609375 1158.15039062 600.599609375 1158.15039062 443.099609375 c 0,8,9
 1158.15039062 312.900390625 1158.15039062 312.900390625 1092 207.900390625 c 128,-1,10
 1025.84960938 102.900390625 1025.84960938 102.900390625 886.724609375 40.9501953125 c 128,-1,11
 747.599609375 -21 747.599609375 -21 528.150390625 -21 c 0,12,13
 390.599609375 -21 390.599609375 -21 282.974609375 0.525390625 c 128,-1,14
 175.349609375 22.0498046875 175.349609375 22.0498046875 77.7001953125 61.9501953125 c 1,15,-1
 77.7001953125 372.75 l 1,16,17
 177.450195312 321.299804688 177.450195312 321.299804688 284.025390625 296.099609375 c 128,-1,18
 390.599609375 270.900390625 390.599609375 270.900390625 480.900390625 270.900390625 c 0,19,20
 643.650390625 270.900390625 643.650390625 270.900390625 706.125 322.875 c 128,-1,21
 768.599609375 374.849609375 768.599609375 374.849609375 768.599609375 465.150390625 c 0,22,23
 768.599609375 523.950195312 768.599609375 523.950195312 739.200195312 564.375 c 128,-1,24
 709.799804688 604.799804688 709.799804688 604.799804688 634.200195312 626.325195312 c 128,-1,25
 558.599609375 647.849609375 558.599609375 647.849609375 421.049804688 647.849609375 c 2,26,-1
 315 647.849609375 l 1,27,-1
 315 928.200195312 l 1,28,-1
 423.150390625 928.200195312 l 2,29,30
 552.299804688 928.200195312 552.299804688 928.200195312 623.700195312 951.825195312 c 128,-1,31
 695.099609375 975.450195312 695.099609375 975.450195312 723.974609375 1016.92480469 c 128,-1,32
 752.849609375 1058.40039062 752.849609375 1058.40039062 752.849609375 1111.95019531 c 0,33,34
 752.849609375 1183.34960938 752.849609375 1183.34960938 704.025390625 1221.15039062 c 128,-1,35
 655.200195312 1258.95019531 655.200195312 1258.95019531 557.549804688 1258.95019531 c 0,36,37
 486.150390625 1258.95019531 486.150390625 1258.95019531 425.25 1240.57519531 c 128,-1,38
 364.349609375 1222.20019531 364.349609375 1222.20019531 317.625 1197.52539062 c 128,-1,39
 270.900390625 1172.84960938 270.900390625 1172.84960938 241.5 1153.95019531 c 1,40,-1
 79.7998046875 1403.84960938 l 1,41,42
 173.25 1468.95019531 173.25 1468.95019531 295.575195312 1513.04980469 c 128,-1,43
 417.900390625 1557.15039062 417.900390625 1557.15039062 601.650390625 1557.15039062 c 0,44,45
 838.950195312 1557.15039062 838.950195312 1557.15039062 975.974609375 1462.125 c 128,-1,46
 1113 1367.09960938 1113 1367.09960938 1113 1197 c 0,0,1
EndSplineSet
Validated: 1
Substitution2: "'onum' Oldstyle Figures lookup 33 subtable" three.tosf
Substitution2: "'pnum' Proportional Numbers lookup 31 subtable" three.lf
Substitution2: "'frac' Diagonal Fractions lookup 24 subtable" three.numr
Substitution2: "'dnom' Denominators lookup 22 subtable" three.dnom
Substitution2: "'numr' Numerators lookup 21 subtable" three.numr
Substitution2: "'sups' Superscript lookup 20 subtable" uni00B3
Substitution2: "'subs' Subscript lookup 19 subtable" uni2083
AlternateSubs2: "'aalt' Access All Alternates lookup 1 subtable" uni00B3 three.dnom three.lf three.numr three.tosf uni2083
EndChar
StartChar: five
Encoding: 53 53 24
Width: 1245
VWidth: 2150
GlyphClass: 1
Flags: W
LayerCount: 2
Fore
SplineSet
670.950195312 993.299804688 m 0,0,1
 805.349609375 993.299804688 805.349609375 993.299804688 912.974609375 937.650390625 c 128,-1,2
 1020.59960938 882 1020.59960938 882 1083.59960938 774.900390625 c 128,-1,3
 1146.59960938 667.799804688 1146.59960938 667.799804688 1146.59960938 512.400390625 c 0,4,5
 1146.59960938 344.400390625 1146.59960938 344.400390625 1077.82519531 224.700195312 c 128,-1,6
 1009.04980469 105 1009.04980469 105 872.025390625 42 c 128,-1,7
 735 -21 735 -21 528.150390625 -21 c 0,8,9
 401.099609375 -21 401.099609375 -21 292.950195312 -0.525390625 c 128,-1,10
 184.799804688 19.9501953125 184.799804688 19.9501953125 101.849609375 61.9501953125 c 1,11,-1
 101.849609375 372.75 l 1,12,13
 182.700195312 332.849609375 182.700195312 332.849609375 295.575195312 303.450195312 c 128,-1,14
 408.450195312 274.049804688 408.450195312 274.049804688 505.049804688 274.049804688 c 0,15,16
 592.200195312 274.049804688 592.200195312 274.049804688 652.049804688 298.200195312 c 128,-1,17
 711.900390625 322.349609375 711.900390625 322.349609375 742.875 370.650390625 c 128,-1,18
 773.849609375 418.950195312 773.849609375 418.950195312 773.849609375 492.450195312 c 0,19,20
 773.849609375 592.200195312 773.849609375 592.200195312 704.549804688 647.325195312 c 128,-1,21
 635.25 702.450195312 635.25 702.450195312 492.450195312 702.450195312 c 0,22,23
 433.650390625 702.450195312 433.650390625 702.450195312 373.799804688 690.900390625 c 128,-1,24
 313.950195312 679.349609375 313.950195312 679.349609375 270.900390625 666.75 c 1,25,-1
 130.200195312 739.200195312 l 1,26,-1
 187.950195312 1535.09960938 l 1,27,-1
 1042.65039062 1535.09960938 l 1,28,-1
 1042.65039062 1225.34960938 l 1,29,-1
 507.150390625 1225.34960938 l 1,30,-1
 483 973.349609375 l 1,31,32
 517.650390625 979.650390625 517.650390625 979.650390625 556.5 986.474609375 c 128,-1,33
 595.349609375 993.299804688 595.349609375 993.299804688 670.950195312 993.299804688 c 0,0,1
EndSplineSet
Validated: 1
Substitution2: "'onum' Oldstyle Figures lookup 33 subtable" five.tosf
Substitution2: "'pnum' Proportional Numbers lookup 31 subtable" five.lf
Substitution2: "'frac' Diagonal Fractions lookup 24 subtable" five.numr
Substitution2: "'dnom' Denominators lookup 22 subtable" five.dnom
Substitution2: "'numr' Numerators lookup 21 subtable" five.numr
Substitution2: "'sups' Superscript lookup 20 subtable" uni2075
Substitution2: "'subs' Subscript lookup 19 subtable" uni2085
AlternateSubs2: "'aalt' Access All Alternates lookup 1 subtable" uni2075 five.dnom five.lf five.numr five.tosf uni2085
EndChar
StartChar: eight
Encoding: 56 56 27
Width: 1245
VWidth: 2150
GlyphClass: 1
Flags: W
LayerCount: 2
Fore
SplineSet
624.75 1556.09960938 m 0,0,1
 767.549804688 1556.09960938 767.549804688 1556.09960938 880.950195312 1515.15039062 c 128,-1,2
 994.349609375 1474.20019531 994.349609375 1474.20019531 1060.5 1391.25 c 128,-1,3
 1126.65039062 1308.29980469 1126.65039062 1308.29980469 1126.65039062 1183.34960938 c 0,4,5
 1126.65039062 1090.95019531 1126.65039062 1090.95019531 1091.47460938 1021.65039062 c 128,-1,6
 1056.29980469 952.349609375 1056.29980469 952.349609375 995.400390625 900.375 c 128,-1,7
 934.5 848.400390625 934.5 848.400390625 856.799804688 809.549804688 c 1,8,9
 933.450195312 767.549804688 933.450195312 767.549804688 1005.90039062 711.900390625 c 128,-1,10
 1078.34960938 656.25 1078.34960938 656.25 1125.59960938 580.650390625 c 128,-1,11
 1172.84960938 505.049804688 1172.84960938 505.049804688 1172.84960938 403.200195312 c 0,12,13
 1172.84960938 278.25 1172.84960938 278.25 1108.79980469 182.700195312 c 128,-1,14
 1044.75 87.150390625 1044.75 87.150390625 922.424804688 33.0751953125 c 128,-1,15
 800.099609375 -21 800.099609375 -21 622.650390625 -21 c 0,16,17
 439.950195312 -21 439.950195312 -21 317.625 30.4501953125 c 128,-1,18
 195.299804688 81.900390625 195.299804688 81.900390625 134.400390625 175.875 c 128,-1,19
 73.5 269.849609375 73.5 269.849609375 73.5 396.900390625 c 0,20,21
 73.5 502.950195312 73.5 502.950195312 111.299804688 578.549804688 c 128,-1,22
 149.099609375 654.150390625 149.099609375 654.150390625 214.200195312 708.224609375 c 128,-1,23
 279.299804688 762.299804688 279.299804688 762.299804688 360.150390625 802.200195312 c 1,24,25
 294 845.25 294 845.25 239.400390625 899.849609375 c 128,-1,26
 184.799804688 954.450195312 184.799804688 954.450195312 152.25 1024.79980469 c 128,-1,27
 119.700195312 1095.15039062 119.700195312 1095.15039062 119.700195312 1185.45019531 c 0,28,29
 119.700195312 1308.29980469 119.700195312 1308.29980469 187.424804688 1390.72460938 c 128,-1,30
 255.150390625 1473.15039062 255.150390625 1473.15039062 369.599609375 1514.625 c 128,-1,31
 484.049804688 1556.09960938 484.049804688 1556.09960938 624.75 1556.09960938 c 0,0,1
413.700195312 414.75 m 0,32,33
 413.700195312 341.25 413.700195312 341.25 466.724609375 294.525390625 c 128,-1,34
 519.75 247.799804688 519.75 247.799804688 618.450195312 247.799804688 c 0,35,36
 726.599609375 247.799804688 726.599609375 247.799804688 779.099609375 291.900390625 c 128,-1,37
 831.599609375 336 831.599609375 336 831.599609375 409.5 c 0,38,39
 831.599609375 463.049804688 831.599609375 463.049804688 800.625 504 c 128,-1,40
 769.650390625 544.950195312 769.650390625 544.950195312 725.549804688 576.974609375 c 128,-1,41
 681.450195312 609 681.450195312 609 641.549804688 632.099609375 c 2,42,-1
 613.200195312 647.849609375 l 1,43,44
 555.450195312 620.549804688 555.450195312 620.549804688 510.825195312 586.424804688 c 128,-1,45
 466.200195312 552.299804688 466.200195312 552.299804688 439.950195312 510.299804688 c 128,-1,46
 413.700195312 468.299804688 413.700195312 468.299804688 413.700195312 414.75 c 0,32,33
622.650390625 1288.34960938 m 0,47,48
 557.549804688 1288.34960938 557.549804688 1288.34960938 512.400390625 1252.65039062 c 128,-1,49
 467.25 1216.95019531 467.25 1216.95019531 467.25 1153.95019531 c 0,50,51
 467.25 1110.90039062 467.25 1110.90039062 488.25 1076.77539062 c 128,-1,52
 509.25 1042.65039062 509.25 1042.65039062 544.424804688 1015.875 c 128,-1,53
 579.599609375 989.099609375 579.599609375 989.099609375 621.599609375 967.049804688 c 1,54,55
 661.5 987 661.5 987 697.200195312 1011.67480469 c 128,-1,56
 732.900390625 1036.34960938 732.900390625 1036.34960938 756 1071 c 128,-1,57
 779.099609375 1105.65039062 779.099609375 1105.65039062 779.099609375 1153.95019531 c 0,58,59
 779.099609375 1216.95019531 779.099609375 1216.95019531 733.950195312 1252.65039062 c 128,-1,60
 688.799804688 1288.34960938 688.799804688 1288.34960938 622.650390625 1288.34960938 c 0,47,48
EndSplineSet
Validated: 1
Substitution2: "'onum' Oldstyle Figures lookup 33 subtable" eight.tosf
Substitution2: "'pnum' Proportional Numbers lookup 31 subtable" eight.lf
Substitution2: "'frac' Diagonal Fractions lookup 24 subtable" eight.numr
Substitution2: "'dnom' Denominators lookup 22 subtable" eight.dnom
Substitution2: "'numr' Numerators lookup 21 subtable" eight.numr
Substitution2: "'sups' Superscript lookup 20 subtable" uni2078
Substitution2: "'subs' Subscript lookup 19 subtable" uni2088
AlternateSubs2: "'aalt' Access All Alternates lookup 1 subtable" uni2078 eight.dnom eight.lf eight.numr eight.tosf uni2088
EndChar
StartChar: colon
Encoding: 58 58 29
Width: 617
VWidth: 2150
GlyphClass: 1
Flags: W
LayerCount: 2
Fore
SplineSet
107.099609375 162.75 m 0,0,1
 107.099609375 267.75 107.099609375 267.75 166.950195312 310.275390625 c 128,-1,2
 226.799804688 352.799804688 226.799804688 352.799804688 310.799804688 352.799804688 c 0,3,4
 391.650390625 352.799804688 391.650390625 352.799804688 450.974609375 310.275390625 c 128,-1,5
 510.299804688 267.75 510.299804688 267.75 510.299804688 162.75 c 0,6,7
 510.299804688 61.9501953125 510.299804688 61.9501953125 450.974609375 17.3251953125 c 128,-1,8
 391.650390625 -27.2998046875 391.650390625 -27.2998046875 310.799804688 -27.2998046875 c 0,9,10
 226.799804688 -27.2998046875 226.799804688 -27.2998046875 166.950195312 17.3251953125 c 128,-1,11
 107.099609375 61.9501953125 107.099609375 61.9501953125 107.099609375 162.75 c 0,0,1
107.099609375 1011.15039062 m 0,12,13
 107.099609375 1115.09960938 107.099609375 1115.09960938 166.950195312 1157.625 c 128,-1,14
 226.799804688 1200.15039062 226.799804688 1200.15039062 310.799804688 1200.15039062 c 0,15,16
 391.650390625 1200.15039062 391.650390625 1200.15039062 450.974609375 1157.625 c 128,-1,17
 510.299804688 1115.09960938 510.299804688 1115.09960938 510.299804688 1011.15039062 c 0,18,19
 510.299804688 909.299804688 510.299804688 909.299804688 450.974609375 865.200195312 c 128,-1,20
 391.650390625 821.099609375 391.650390625 821.099609375 310.799804688 821.099609375 c 0,21,22
 226.799804688 821.099609375 226.799804688 821.099609375 166.950195312 865.200195312 c 128,-1,23
 107.099609375 909.299804688 107.099609375 909.299804688 107.099609375 1011.15039062 c 0,12,13
EndSplineSet
Validated: 1
EndChar
StartChar: greater
Encoding: 62 62 33
Width: 1245
VWidth: 2150
GlyphClass: 1
Flags: W
LayerCount: 2
Fore
SplineSet
94.5 480.900390625 m 1,0,-1
 780.150390625 760.200195312 l 1,1,-1
 94.5 1075.20019531 l 1,2,-1
 94.5 1357.65039062 l 1,3,-1
 1147.65039062 831.599609375 l 1,4,-1
 1147.65039062 665.700195312 l 1,5,-1
 94.5 200.549804688 l 1,6,-1
 94.5 480.900390625 l 1,0,-1
EndSplineSet
Validated: 1
EndChar
StartChar: question
Encoding: 63 63 34
Width: 1056
VWidth: 2150
GlyphClass: 1
Flags: W
LayerCount: 2
Fore
SplineSet
300.299804688 526.049804688 m 1,0,-1
 300.299804688 610.049804688 l 2,1,2
 300.299804688 678.299804688 300.299804688 678.299804688 318.150390625 731.849609375 c 128,-1,3
 336 785.400390625 336 785.400390625 379.049804688 834.224609375 c 128,-1,4
 422.099609375 883.049804688 422.099609375 883.049804688 495.599609375 932.400390625 c 0,5,6
 563.849609375 978.599609375 563.849609375 978.599609375 600.599609375 1013.25 c 128,-1,7
 637.349609375 1047.90039062 637.349609375 1047.90039062 651.525390625 1079.92480469 c 128,-1,8
 665.700195312 1111.95019531 665.700195312 1111.95019531 665.700195312 1149.75 c 0,9,10
 665.700195312 1205.40039062 665.700195312 1205.40039062 620.549804688 1236.375 c 128,-1,11
 575.400390625 1267.34960938 575.400390625 1267.34960938 498.75 1267.34960938 c 0,12,13
 413.700195312 1267.34960938 413.700195312 1267.34960938 322.875 1239 c 128,-1,14
 232.049804688 1210.65039062 232.049804688 1210.65039062 133.349609375 1159.20019531 c 1,15,-1
 3.150390625 1417.5 l 1,16,17
 115.5 1480.5 115.5 1480.5 244.125 1518.82519531 c 128,-1,18
 372.75 1557.15039062 372.75 1557.15039062 525 1557.15039062 c 0,19,20
 756 1557.15039062 756 1557.15039062 883.575195312 1450.57519531 c 128,-1,21
 1011.15039062 1344 1011.15039062 1344 1011.15039062 1174.95019531 c 0,22,23
 1011.15039062 1089.90039062 1011.15039062 1089.90039062 984.375 1023.75 c 128,-1,24
 957.599609375 957.599609375 957.599609375 957.599609375 902.474609375 899.849609375 c 128,-1,25
 847.349609375 842.099609375 847.349609375 842.099609375 760.200195312 783.299804688 c 0,26,27
 697.200195312 740.25 697.200195312 740.25 662.549804688 710.325195312 c 128,-1,28
 627.900390625 680.400390625 627.900390625 680.400390625 614.25 651.525390625 c 128,-1,29
 600.599609375 622.650390625 600.599609375 622.650390625 600.599609375 583.799804688 c 2,30,-1
 600.599609375 526.049804688 l 1,31,-1
 300.299804688 526.049804688 l 1,0,-1
260.400390625 162.75 m 0,32,33
 260.400390625 267.75 260.400390625 267.75 319.724609375 310.275390625 c 128,-1,34
 379.049804688 352.799804688 379.049804688 352.799804688 464.099609375 352.799804688 c 0,35,36
 544.950195312 352.799804688 544.950195312 352.799804688 604.275390625 310.275390625 c 128,-1,37
 663.599609375 267.75 663.599609375 267.75 663.599609375 162.75 c 0,38,39
 663.599609375 61.9501953125 663.599609375 61.9501953125 604.275390625 17.3251953125 c 128,-1,40
 544.950195312 -27.2998046875 544.950195312 -27.2998046875 464.099609375 -27.2998046875 c 0,41,42
 379.049804688 -27.2998046875 379.049804688 -27.2998046875 319.724609375 17.3251953125 c 128,-1,43
 260.400390625 61.9501953125 260.400390625 61.9501953125 260.400390625 162.75 c 0,32,33
EndSplineSet
Validated: 1
EndChar
StartChar: at
Encoding: 64 64 35
Width: 1928
VWidth: 2150
GlyphClass: 1
Flags: W
LayerCount: 2
Fore
SplineSet
1832.25 782.25 m 0,0,1
 1832.25 681.450195312 1832.25 681.450195312 1807.57519531 584.325195312 c 128,-1,2
 1782.90039062 487.200195312 1782.90039062 487.200195312 1733.54980469 408.450195312 c 128,-1,3
 1684.20019531 329.700195312 1684.20019531 329.700195312 1610.70019531 282.450195312 c 128,-1,4
 1537.20019531 235.200195312 1537.20019531 235.200195312 1438.5 235.200195312 c 0,5,6
 1360.79980469 235.200195312 1360.79980469 235.200195312 1296.22460938 270.375 c 128,-1,7
 1231.65039062 305.549804688 1231.65039062 305.549804688 1199.09960938 365.400390625 c 1,8,-1
 1183.34960938 365.400390625 l 1,9,10
 1137.15039062 312.900390625 1137.15039062 312.900390625 1067.32519531 274.049804688 c 128,-1,11
 997.5 235.200195312 997.5 235.200195312 901.950195312 235.200195312 c 0,12,13
 706.650390625 235.200195312 706.650390625 235.200195312 604.799804688 351.224609375 c 128,-1,14
 502.950195312 467.25 502.950195312 467.25 502.950195312 657.299804688 c 0,15,16
 502.950195312 800.099609375 502.950195312 800.099609375 564.900390625 911.924804688 c 128,-1,17
 626.849609375 1023.75 626.849609375 1023.75 743.924804688 1088.32519531 c 128,-1,18
 861 1152.90039062 861 1152.90039062 1025.84960938 1152.90039062 c 0,19,20
 1129.79980469 1152.90039062 1129.79980469 1152.90039062 1234.27539062 1133.47460938 c 128,-1,21
 1338.75 1114.04980469 1338.75 1114.04980469 1402.79980469 1092 c 1,22,-1
 1380.75 649.950195312 l 2,23,24
 1379.70019531 633.150390625 1379.70019531 633.150390625 1379.17480469 607.424804688 c 128,-1,25
 1378.65039062 581.700195312 1378.65039062 581.700195312 1378.65039062 563.849609375 c 0,26,27
 1378.65039062 494.549804688 1378.65039062 494.549804688 1398.07519531 469.875 c 128,-1,28
 1417.5 445.200195312 1417.5 445.200195312 1443.75 445.200195312 c 0,29,30
 1487.84960938 445.200195312 1487.84960938 445.200195312 1517.77539062 491.400390625 c 128,-1,31
 1547.70019531 537.599609375 1547.70019531 537.599609375 1563.45019531 614.775390625 c 128,-1,32
 1579.20019531 691.950195312 1579.20019531 691.950195312 1579.20019531 784.349609375 c 0,33,34
 1579.20019531 954.450195312 1579.20019531 954.450195312 1512 1076.25 c 128,-1,35
 1444.79980469 1198.04980469 1444.79980469 1198.04980469 1321.42480469 1263.67480469 c 128,-1,36
 1198.04980469 1329.29980469 1198.04980469 1329.29980469 1026.90039062 1329.29980469 c 0,37,38
 863.099609375 1329.29980469 863.099609375 1329.29980469 737.625 1277.32519531 c 128,-1,39
 612.150390625 1225.34960938 612.150390625 1225.34960938 527.099609375 1130.84960938 c 128,-1,40
 442.049804688 1036.34960938 442.049804688 1036.34960938 399 908.25 c 128,-1,41
 355.950195312 780.150390625 355.950195312 780.150390625 355.950195312 627.900390625 c 0,42,43
 355.950195312 447.299804688 355.950195312 447.299804688 422.625 317.099609375 c 128,-1,44
 489.299804688 186.900390625 489.299804688 186.900390625 620.549804688 117.599609375 c 128,-1,45
 751.799804688 48.2998046875 751.799804688 48.2998046875 943.950195312 48.2998046875 c 0,46,47
 1066.79980469 48.2998046875 1066.79980469 48.2998046875 1206.97460938 76.125 c 128,-1,48
 1347.15039062 103.950195312 1347.15039062 103.950195312 1467.90039062 148.049804688 c 1,49,-1
 1467.90039062 -73.5 l 1,50,51
 1360.79980469 -118.650390625 1360.79980469 -118.650390625 1229.54980469 -144.900390625 c 128,-1,52
 1098.29980469 -171.150390625 1098.29980469 -171.150390625 955.5 -171.150390625 c 0,53,54
 684.599609375 -171.150390625 684.599609375 -171.150390625 492.450195312 -75.0751953125 c 128,-1,55
 300.299804688 21 300.299804688 21 198.450195312 200.025390625 c 128,-1,56
 96.599609375 379.049804688 96.599609375 379.049804688 96.599609375 626.849609375 c 0,57,58
 96.599609375 822.150390625 96.599609375 822.150390625 161.700195312 988.575195312 c 128,-1,59
 226.799804688 1155 226.799804688 1155 348.075195312 1280.47460938 c 128,-1,60
 469.349609375 1405.95019531 469.349609375 1405.95019531 640.5 1475.77539062 c 128,-1,61
 811.650390625 1545.59960938 811.650390625 1545.59960938 1023.75 1545.59960938 c 0,62,63
 1263.15039062 1545.59960938 1263.15039062 1545.59960938 1445.32519531 1452.67480469 c 128,-1,64
 1627.5 1359.75 1627.5 1359.75 1729.875 1189.125 c 128,-1,65
 1832.25 1018.5 1832.25 1018.5 1832.25 782.25 c 0,0,1
772.799804688 656.25 m 0,66,67
 772.799804688 544.950195312 772.799804688 544.950195312 816.375 495.075195312 c 128,-1,68
 859.950195312 445.200195312 859.950195312 445.200195312 932.400390625 445.200195312 c 0,69,70
 1029 445.200195312 1029 445.200195312 1069.42480469 519.224609375 c 128,-1,71
 1109.84960938 593.25 1109.84960938 593.25 1118.25 736.049804688 c 2,72,-1
 1130.84960938 933.450195312 l 1,73,74
 1107.75 937.650390625 1107.75 937.650390625 1085.17480469 939.75 c 128,-1,75
 1062.59960938 941.849609375 1062.59960938 941.849609375 1034.25 941.849609375 c 0,76,77
 940.799804688 941.849609375 940.799804688 941.849609375 883.049804688 901.424804688 c 128,-1,78
 825.299804688 861 825.299804688 861 799.049804688 795.900390625 c 128,-1,79
 772.799804688 730.799804688 772.799804688 730.799804688 772.799804688 656.25 c 0,66,67
EndSplineSet
Validated: 1
EndChar
StartChar: A
Encoding: 65 65 36
Width: 1522
VWidth: 2150
GlyphClass: 2
Flags: W
AnchorPoint: "Anchor-2" 1318.8 1535.1 basechar 0
AnchorPoint: "Anchor-1" 761.25 0 basechar 0
AnchorPoint: "Anchor-0" 761.25 1535.1 basechar 0
LayerCount: 2
Fore
SplineSet
1120.34960938 0 m 1,0,-1
 1026.90039062 326.549804688 l 1,1,-1
 497.700195312 326.549804688 l 1,2,-1
 403.200195312 0 l 1,3,-1
 0 0 l 1,4,-1
 521.849609375 1541.40039062 l 1,5,-1
 997.5 1541.40039062 l 1,6,-1
 1522.5 0 l 1,7,-1
 1120.34960938 0 l 1,0,-1
945 633.150390625 m 1,8,-1
 856.799804688 937.650390625 l 2,9,10
 846.299804688 976.5 846.299804688 976.5 827.400390625 1042.65039062 c 128,-1,11
 808.5 1108.79980469 808.5 1108.79980469 790.125 1178.625 c 128,-1,12
 771.75 1248.45019531 771.75 1248.45019531 761.25 1295.70019531 c 1,13,14
 751.799804688 1248.45019531 751.799804688 1248.45019531 733.950195312 1178.09960938 c 128,-1,15
 716.099609375 1107.75 716.099609375 1107.75 698.25 1041.59960938 c 128,-1,16
 680.400390625 975.450195312 680.400390625 975.450195312 669.900390625 937.650390625 c 2,17,-1
 581.700195312 633.150390625 l 1,18,-1
 945 633.150390625 l 1,8,-1
EndSplineSet
Validated: 1
Substitution2: "Single Substitution lookup 29 subtable" ordfeminine
Substitution2: "'aalt' Access All Alternates lookup 0 subtable" ordfeminine
EndChar
StartChar: F
Encoding: 70 70 41
Width: 1169
VWidth: 2150
GlyphClass: 2
Flags: W
AnchorPoint: "Anchor-2" 1126.65 1535.1 basechar 0
AnchorPoint: "Anchor-1" 585.9 0 basechar 0
AnchorPoint: "Anchor-0" 630 1535.1 basechar 0
LayerCount: 2
Fore
SplineSet
543.900390625 0 m 1,0,-1
 179.549804688 0 l 1,1,-1
 179.549804688 1535.09960938 l 1,2,-1
 1073.09960938 1535.09960938 l 1,3,-1
 1073.09960938 1235.84960938 l 1,4,-1
 543.900390625 1235.84960938 l 1,5,-1
 543.900390625 891.450195312 l 1,6,-1
 1034.25 891.450195312 l 1,7,-1
 1034.25 592.200195312 l 1,8,-1
 543.900390625 592.200195312 l 1,9,-1
 543.900390625 0 l 1,0,-1
EndSplineSet
Validated: 1
EndChar
StartChar: I
Encoding: 73 73 44
Width: 730
VWidth: 2150
GlyphClass: 2
Flags: W
AnchorPoint: "Anchor-2" 695.1 1535.1 basechar 0
AnchorPoint: "Anchor-1" 365.4 0 basechar 0
AnchorPoint: "Anchor-0" 365.4 1535.1 basechar 0
LayerCount: 2
Fore
SplineSet
179.549804688 0 m 1,0,-1
 179.549804688 1535.09960938 l 1,1,-1
 551.25 1535.09960938 l 1,2,-1
 551.25 0 l 1,3,-1
 179.549804688 0 l 1,0,-1
EndSplineSet
Validated: 1
Substitution2: "'ss03' Style Set 3 lookup 37 subtable" I.salt
Substitution2: "'aalt' Access All Alternates lookup 0 subtable" I.salt
EndChar
StartChar: L
Encoding: 76 76 47
Width: 1233
VWidth: 2150
GlyphClass: 2
Flags: W
AnchorPoint: "Anchor-3" 617.4 767.55 basechar 0
AnchorPoint: "Anchor-2" 805.35 1535.1 basechar 0
AnchorPoint: "Anchor-1" 663.6 0 basechar 0
AnchorPoint: "Anchor-0" 359.1 1535.1 basechar 0
LayerCount: 2
Fore
SplineSet
179.549804688 0 m 1,0,-1
 179.549804688 1535.09960938 l 1,1,-1
 550.200195312 1535.09960938 l 1,2,-1
 550.200195312 302.400390625 l 1,3,-1
 1157.09960938 302.400390625 l 1,4,-1
 1157.09960938 0 l 1,5,-1
 179.549804688 0 l 1,0,-1
EndSplineSet
Validated: 1
EndChar
StartChar: N
Encoding: 78 78 49
Width: 1771
VWidth: 2150
GlyphClass: 2
Flags: W
AnchorPoint: "Anchor-2" 1728.3 1535.1 basechar 0
AnchorPoint: "Anchor-1" 886.2 0 basechar 0
AnchorPoint: "Anchor-0" 886.2 1535.1 basechar 0
LayerCount: 2
Fore
SplineSet
1591.79980469 0 m 1,0,-1
 1113 0 l 1,1,-1
 498.75 1121.40039062 l 1,2,-1
 489.299804688 1121.40039062 l 1,3,4
 493.5 1060.5 493.5 1060.5 497.174804688 989.099609375 c 128,-1,5
 500.849609375 917.700195312 500.849609375 917.700195312 504 845.25 c 128,-1,6
 507.150390625 772.799804688 507.150390625 772.799804688 509.25 707.700195312 c 2,7,-1
 509.25 0 l 1,8,-1
 179.549804688 0 l 1,9,-1
 179.549804688 1535.09960938 l 1,10,-1
 656.25 1535.09960938 l 1,11,-1
 1268.40039062 427.349609375 l 1,12,-1
 1275.75 427.349609375 l 1,13,14
 1272.59960938 488.25 1272.59960938 488.25 1269.45019531 556.5 c 128,-1,15
 1266.29980469 624.75 1266.29980469 624.75 1263.67480469 694.049804688 c 128,-1,16
 1261.04980469 763.349609375 1261.04980469 763.349609375 1260 825.299804688 c 2,17,-1
 1260 1535.09960938 l 1,18,-1
 1591.79980469 1535.09960938 l 1,19,-1
 1591.79980469 0 l 1,0,-1
EndSplineSet
Validated: 1
EndChar
StartChar: R
Encoding: 82 82 53
Width: 1437
VWidth: 2150
GlyphClass: 2
Flags: W
AnchorPoint: "Anchor-2" 1395.45 1535.1 basechar 0
AnchorPoint: "Anchor-1" 765.45 0 basechar 0
AnchorPoint: "Anchor-0" 727.65 1535.1 basechar 0
LayerCount: 2
Fore
SplineSet
655.200195312 1535.09960938 m 2,0,1
 864.150390625 1535.09960938 864.150390625 1535.09960938 1001.17480469 1484.70019531 c 128,-1,2
 1138.20019531 1434.29980469 1138.20019531 1434.29980469 1206.45019531 1332.97460938 c 128,-1,3
 1274.70019531 1231.65039062 1274.70019531 1231.65039062 1274.70019531 1078.34960938 c 0,4,5
 1274.70019531 979.650390625 1274.70019531 979.650390625 1239 901.950195312 c 128,-1,6
 1203.29980469 824.25 1203.29980469 824.25 1141.34960938 766.5 c 128,-1,7
 1079.40039062 708.75 1079.40039062 708.75 1001.70019531 668.849609375 c 1,8,-1
 1451.09960938 0 l 1,9,-1
 1035.29980469 0 l 1,10,-1
 688.799804688 574.349609375 l 1,11,-1
 550.200195312 574.349609375 l 1,12,-1
 550.200195312 0 l 1,13,-1
 179.549804688 0 l 1,14,-1
 179.549804688 1535.09960938 l 1,15,-1
 655.200195312 1535.09960938 l 2,0,1
640.5 1245.29980469 m 2,16,-1
 550.200195312 1245.29980469 l 1,17,-1
 550.200195312 862.049804688 l 1,18,-1
 641.549804688 862.049804688 l 2,19,20
 769.650390625 862.049804688 769.650390625 862.049804688 835.275390625 910.349609375 c 128,-1,21
 900.900390625 958.650390625 900.900390625 958.650390625 900.900390625 1064.70019531 c 0,22,23
 900.900390625 1157.09960938 900.900390625 1157.09960938 837.900390625 1201.20019531 c 128,-1,24
 774.900390625 1245.29980469 774.900390625 1245.29980469 640.5 1245.29980469 c 2,16,-1
EndSplineSet
Validated: 1
EndChar
StartChar: V
Encoding: 86 86 57
Width: 1444
VWidth: 2150
GlyphClass: 2
Flags: W
AnchorPoint: "Anchor-2" 1401.75 1535.1 basechar 0
AnchorPoint: "Anchor-1" 716.1 0 basechar 0
AnchorPoint: "Anchor-0" 724.5 1535.1 basechar 0
LayerCount: 2
Fore
SplineSet
1444.79980469 1535.09960938 m 1,0,-1
 932.400390625 0 l 1,1,-1
 511.349609375 0 l 1,2,-1
 0 1535.09960938 l 1,3,-1
 397.950195312 1535.09960938 l 1,4,-1
 646.799804688 689.849609375 l 2,5,6
 656.25 656.25 656.25 656.25 672 590.099609375 c 128,-1,7
 687.75 523.950195312 687.75 523.950195312 702.974609375 454.125 c 128,-1,8
 718.200195312 384.299804688 718.200195312 384.299804688 723.450195312 340.200195312 c 1,9,10
 728.700195312 384.299804688 728.700195312 384.299804688 742.349609375 453.075195312 c 128,-1,11
 756 521.849609375 756 521.849609375 771.224609375 587.474609375 c 128,-1,12
 786.450195312 653.099609375 786.450195312 653.099609375 796.950195312 687.75 c 2,13,-1
 1048.95019531 1535.09960938 l 1,14,-1
 1444.79980469 1535.09960938 l 1,0,-1
EndSplineSet
Validated: 1
EndChar
StartChar: W
Encoding: 87 87 58
Width: 2156
VWidth: 2150
GlyphClass: 2
Flags: W
AnchorPoint: "Anchor-2" 2113.65 1535.1 basechar 0
AnchorPoint: "Anchor-1" 1078.35 0 basechar 0
AnchorPoint: "Anchor-0" 1079.4 1535.1 basechar 0
LayerCount: 2
Fore
SplineSet
2140.95019531 1535.09960938 m 1,0,-1
 1756.65039062 0 l 1,1,-1
 1326.15039062 0 l 1,2,-1
 1148.70019531 738.150390625 l 2,3,4
 1143.45019531 759.150390625 1143.45019531 759.150390625 1133.47460938 805.349609375 c 128,-1,5
 1123.5 851.549804688 1123.5 851.549804688 1112.47460938 908.25 c 128,-1,6
 1101.45019531 964.950195312 1101.45019531 964.950195312 1092.52539062 1017.97460938 c 128,-1,7
 1083.59960938 1071 1083.59960938 1071 1079.40039062 1105.65039062 c 1,8,9
 1076.25 1071 1076.25 1071 1066.79980469 1018.5 c 128,-1,10
 1057.34960938 966 1057.34960938 966 1046.32519531 909.299804688 c 128,-1,11
 1035.29980469 852.599609375 1035.29980469 852.599609375 1025.32519531 805.875 c 128,-1,12
 1015.34960938 759.150390625 1015.34960938 759.150390625 1010.09960938 737.099609375 c 2,13,-1
 832.650390625 0 l 1,14,-1
 402.150390625 0 l 1,15,-1
 16.7998046875 1535.09960938 l 1,16,-1
 376.950195312 1535.09960938 l 1,17,-1
 558.599609375 731.849609375 l 2,18,19
 565.950195312 698.25 565.950195312 698.25 576.974609375 646.275390625 c 128,-1,20
 588 594.299804688 588 594.299804688 599.549804688 534.974609375 c 128,-1,21
 611.099609375 475.650390625 611.099609375 475.650390625 620.549804688 420.525390625 c 128,-1,22
 630 365.400390625 630 365.400390625 634.200195312 327.599609375 c 1,23,24
 641.549804688 380.099609375 641.549804688 380.099609375 652.575195312 447.825195312 c 128,-1,25
 663.599609375 515.549804688 663.599609375 515.549804688 677.25 585.900390625 c 128,-1,26
 690.900390625 656.25 690.900390625 656.25 704.025390625 716.625 c 128,-1,27
 717.150390625 777 717.150390625 777 727.650390625 814.799804688 c 2,28,-1
 907.200195312 1535.09960938 l 1,29,-1
 1252.65039062 1535.09960938 l 1,30,-1
 1430.09960938 814.799804688 l 2,31,32
 1439.54980469 778.049804688 1439.54980469 778.049804688 1452.67480469 717.150390625 c 128,-1,33
 1465.79980469 656.25 1465.79980469 656.25 1479.45019531 585.375 c 128,-1,34
 1493.09960938 514.5 1493.09960938 514.5 1505.17480469 446.25 c 128,-1,35
 1517.25 378 1517.25 378 1522.5 327.599609375 c 1,36,37
 1529.84960938 380.099609375 1529.84960938 380.099609375 1543.5 457.799804688 c 128,-1,38
 1557.15039062 535.5 1557.15039062 535.5 1572.375 610.575195312 c 128,-1,39
 1587.59960938 685.650390625 1587.59960938 685.650390625 1598.09960938 730.799804688 c 2,40,-1
 1780.79980469 1535.09960938 l 1,41,-1
 2140.95019531 1535.09960938 l 1,0,-1
EndSplineSet
Validated: 1
EndChar
StartChar: asciicircum
Encoding: 94 94 65
Width: 1179
VWidth: 2150
GlyphClass: 1
Flags: W
LayerCount: 2
Fore
SplineSet
16.7998046875 536.549804688 m 1,0,-1
 477.75 1542.45019531 l 1,1,-1
 642.599609375 1542.45019531 l 1,2,-1
 1168.65039062 536.549804688 l 1,3,-1
 888.299804688 536.549804688 l 1,4,-1
 568.049804688 1177.04980469 l 1,5,-1
 290.849609375 536.549804688 l 1,6,-1
 16.7998046875 536.549804688 l 1,0,-1
EndSplineSet
Validated: 1
EndChar
StartChar: e
Encoding: 101 101 72
Width: 1299
VWidth: 2150
GlyphClass: 2
Flags: W
AnchorPoint: "Anchor-2" 1256.85 1182.3 basechar 0
AnchorPoint: "Anchor-1" 676.2 0 basechar 0
AnchorPoint: "Anchor-0" 651 1182.3 basechar 0
LayerCount: 2
Fore
SplineSet
664.650390625 1203.29980469 m 0,0,1
 832.650390625 1203.29980469 832.650390625 1203.29980469 954.450195312 1141.875 c 128,-1,2
 1076.25 1080.45019531 1076.25 1080.45019531 1142.40039062 960.75 c 128,-1,3
 1208.54980469 841.049804688 1208.54980469 841.049804688 1208.54980469 664.650390625 c 2,4,-1
 1208.54980469 495.599609375 l 1,5,-1
 463.049804688 495.599609375 l 1,6,7
 468.299804688 381.150390625 468.299804688 381.150390625 538.650390625 312.900390625 c 128,-1,8
 609 244.650390625 609 244.650390625 740.25 244.650390625 c 0,9,10
 851.549804688 244.650390625 851.549804688 244.650390625 945 267.224609375 c 128,-1,11
 1038.45019531 289.799804688 1038.45019531 289.799804688 1137.15039062 336 c 1,12,-1
 1137.15039062 64.0498046875 l 1,13,14
 1050 19.9501953125 1050 19.9501953125 951.825195312 -0.525390625 c 128,-1,15
 853.650390625 -21 853.650390625 -21 707.700195312 -21 c 0,16,17
 530.25 -21 530.25 -21 391.125 43.5751953125 c 128,-1,18
 252 108.150390625 252 108.150390625 172.724609375 242.025390625 c 128,-1,19
 93.4501953125 375.900390625 93.4501953125 375.900390625 93.4501953125 582.75 c 0,20,21
 93.4501953125 792.75 93.4501953125 792.75 165.375 930.299804688 c 128,-1,22
 237.299804688 1067.84960938 237.299804688 1067.84960938 365.924804688 1135.57519531 c 128,-1,23
 494.549804688 1203.29980469 494.549804688 1203.29980469 664.650390625 1203.29980469 c 0,0,1
673.049804688 950.25 m 0,24,25
 590.099609375 950.25 590.099609375 950.25 534.974609375 897.224609375 c 128,-1,26
 479.849609375 844.200195312 479.849609375 844.200195312 471.450195312 731.849609375 c 1,27,-1
 872.549804688 731.849609375 l 1,28,29
 871.5 793.799804688 871.5 793.799804688 848.924804688 843.150390625 c 128,-1,30
 826.349609375 892.5 826.349609375 892.5 782.775390625 921.375 c 128,-1,31
 739.200195312 950.25 739.200195312 950.25 673.049804688 950.25 c 0,24,25
EndSplineSet
Validated: 1
EndChar
StartChar: j
Encoding: 106 106 77
Width: 677
VWidth: 2150
GlyphClass: 2
Flags: W
AnchorPoint: "Anchor-2" 635.25 1651.65 basechar 0
AnchorPoint: "Anchor-1" 92.4004 -516.6 basechar 0
AnchorPoint: "Anchor-0" 339.15 1651.65 basechar 0
LayerCount: 2
Fore
SplineSet
92.400390625 -516.599609375 m 0,0,1
 40.9501953125 -516.599609375 40.9501953125 -516.599609375 -21 -508.724609375 c 128,-1,2
 -82.9501953125 -500.849609375 -82.9501953125 -500.849609375 -122.849609375 -490.349609375 c 1,3,-1
 -122.849609375 -203.700195312 l 1,4,5
 -87.150390625 -214.200195312 -87.150390625 -214.200195312 -55.650390625 -218.924804688 c 128,-1,6
 -24.150390625 -223.650390625 -24.150390625 -223.650390625 14.7001953125 -223.650390625 c 0,7,8
 72.4501953125 -223.650390625 72.4501953125 -223.650390625 113.924804688 -187.950195312 c 128,-1,9
 155.400390625 -152.25 155.400390625 -152.25 155.400390625 -45.150390625 c 2,10,-1
 155.400390625 1182.29980469 l 1,11,-1
 520.799804688 1182.29980469 l 1,12,-1
 520.799804688 -111.299804688 l 2,13,14
 520.799804688 -218.400390625 520.799804688 -218.400390625 479.325195312 -310.799804688 c 128,-1,15
 437.849609375 -403.200195312 437.849609375 -403.200195312 343.875 -459.900390625 c 128,-1,16
 249.900390625 -516.599609375 249.900390625 -516.599609375 92.400390625 -516.599609375 c 0,0,1
142.799804688 1481.54980469 m 0,17,18
 142.799804688 1581.29980469 142.799804688 1581.29980469 200.025390625 1616.47460938 c 128,-1,19
 257.25 1651.65039062 257.25 1651.65039062 339.150390625 1651.65039062 c 0,20,21
 418.950195312 1651.65039062 418.950195312 1651.65039062 477.224609375 1616.47460938 c 128,-1,22
 535.5 1581.29980469 535.5 1581.29980469 535.5 1481.54980469 c 0,23,24
 535.5 1383.90039062 535.5 1383.90039062 477.224609375 1348.20019531 c 128,-1,25
 418.950195312 1312.5 418.950195312 1312.5 339.150390625 1312.5 c 0,26,27
 257.25 1312.5 257.25 1312.5 200.025390625 1348.20019531 c 128,-1,28
 142.799804688 1383.90039062 142.799804688 1383.90039062 142.799804688 1481.54980469 c 0,17,18
EndSplineSet
Validated: 1
Substitution2: "Single Substitution lookup 4 subtable" uni0237
Substitution2: "Single Substitution lookup 3 subtable" uni0237
Substitution2: "'aalt' Access All Alternates lookup 0 subtable" uni0237
EndChar
StartChar: k
Encoding: 107 107 78
Width: 1375
VWidth: 2150
GlyphClass: 2
Flags: W
AnchorPoint: "Anchor-2" 1373.4 1633.8 basechar 0
AnchorPoint: "Anchor-1" 688.8 0 basechar 0
AnchorPoint: "Anchor-0" 346.5 1633.8 basechar 0
LayerCount: 2
Fore
SplineSet
521.849609375 1633.79980469 m 1,0,-1
 521.849609375 947.099609375 l 2,1,2
 521.849609375 877.799804688 521.849609375 877.799804688 516.075195312 800.625 c 128,-1,3
 510.299804688 723.450195312 510.299804688 723.450195312 501.900390625 654.150390625 c 1,4,-1
 508.200195312 654.150390625 l 1,5,6
 536.549804688 695.099609375 536.549804688 695.099609375 571.724609375 745.5 c 128,-1,7
 606.900390625 795.900390625 606.900390625 795.900390625 641.549804688 835.799804688 c 2,8,-1
 938.700195312 1182.29980469 l 1,9,-1
 1348.20019531 1182.29980469 l 1,10,-1
 909.299804688 674.099609375 l 1,11,-1
 1375.5 0 l 1,12,-1
 956.549804688 0 l 1,13,-1
 657.299804688 451.5 l 1,14,-1
 521.849609375 345.450195312 l 1,15,-1
 521.849609375 0 l 1,16,-1
 155.400390625 0 l 1,17,-1
 155.400390625 1633.79980469 l 1,18,-1
 521.849609375 1633.79980469 l 1,0,-1
EndSplineSet
Validated: 1
Substitution2: "'subs' Subscript lookup 19 subtable" uni2096
Substitution2: "'aalt' Access All Alternates lookup 0 subtable" uni2096
EndChar
StartChar: n
Encoding: 110 110 81
Width: 1426
VWidth: 2150
GlyphClass: 2
Flags: W
AnchorPoint: "Anchor-2" 1336.65 1182.3 basechar 0
AnchorPoint: "Anchor-1" 714 0 basechar 0
AnchorPoint: "Anchor-0" 714 1182.3 basechar 0
LayerCount: 2
Fore
SplineSet
861 1203.29980469 m 0,0,1
 1046.84960938 1203.29980469 1046.84960938 1203.29980469 1162.34960938 1100.40039062 c 128,-1,2
 1277.84960938 997.5 1277.84960938 997.5 1277.84960938 769.650390625 c 2,3,-1
 1277.84960938 0 l 1,4,-1
 912.450195312 0 l 1,5,-1
 912.450195312 667.799804688 l 2,6,7
 912.450195312 789.599609375 912.450195312 789.599609375 872.549804688 852.075195312 c 128,-1,8
 832.650390625 914.549804688 832.650390625 914.549804688 745.5 914.549804688 c 0,9,10
 614.25 914.549804688 614.25 914.549804688 567.525390625 816.900390625 c 128,-1,11
 520.799804688 719.25 520.799804688 719.25 520.799804688 536.549804688 c 2,12,-1
 520.799804688 0 l 1,13,-1
 155.400390625 0 l 1,14,-1
 155.400390625 1182.29980469 l 1,15,-1
 432.599609375 1182.29980469 l 1,16,-1
 481.950195312 1027.95019531 l 1,17,-1
 498.75 1027.95019531 l 1,18,19
 536.549804688 1086.75 536.549804688 1086.75 590.625 1125.59960938 c 128,-1,20
 644.700195312 1164.45019531 644.700195312 1164.45019531 713.474609375 1183.875 c 128,-1,21
 782.25 1203.29980469 782.25 1203.29980469 861 1203.29980469 c 0,0,1
EndSplineSet
Validated: 1
Substitution2: "'sups' Superscript lookup 20 subtable" uni207F
Substitution2: "'subs' Subscript lookup 19 subtable" uni2099
AlternateSubs2: "'aalt' Access All Alternates lookup 1 subtable" uni207F uni2099
EndChar
StartChar: q
Encoding: 113 113 84
Width: 1372
VWidth: 2150
GlyphClass: 2
Flags: W
AnchorPoint: "Anchor-2" 1275.75 1182.3 basechar 0
AnchorPoint: "Anchor-1" 1033.2 -516.6 basechar 0
AnchorPoint: "Anchor-0" 686.7 1182.3 basechar 0
LayerCount: 2
Fore
SplineSet
851.549804688 -516.599609375 m 1,0,-1
 851.549804688 -24.150390625 l 2,1,2
 851.549804688 19.9501953125 851.549804688 19.9501953125 855.224609375 64.0498046875 c 128,-1,3
 858.900390625 108.150390625 858.900390625 108.150390625 865.200195312 151.200195312 c 1,4,-1
 851.549804688 151.200195312 l 1,5,6
 808.5 79.7998046875 808.5 79.7998046875 731.325195312 29.400390625 c 128,-1,7
 654.150390625 -21 654.150390625 -21 528.150390625 -21 c 0,8,9
 333.900390625 -21 333.900390625 -21 213.674804688 134.400390625 c 128,-1,10
 93.4501953125 289.799804688 93.4501953125 289.799804688 93.4501953125 589.049804688 c 0,11,12
 93.4501953125 790.650390625 93.4501953125 790.650390625 149.099609375 927.150390625 c 128,-1,13
 204.75 1063.65039062 204.75 1063.65039062 304.5 1133.47460938 c 128,-1,14
 404.25 1203.29980469 404.25 1203.29980469 534.450195312 1203.29980469 c 0,15,16
 661.5 1203.29980469 661.5 1203.29980469 740.25 1154.47460938 c 128,-1,17
 819 1105.65039062 819 1105.65039062 867.299804688 1033.20019531 c 1,18,-1
 875.700195312 1033.20019531 l 1,19,-1
 905.099609375 1182.29980469 l 1,20,-1
 1218 1182.29980469 l 1,21,-1
 1218 -516.599609375 l 1,22,-1
 851.549804688 -516.599609375 l 1,0,-1
668.849609375 263.549804688 m 0,23,24
 746.549804688 263.549804688 746.549804688 263.549804688 792.224609375 295.049804688 c 128,-1,25
 837.900390625 326.549804688 837.900390625 326.549804688 857.849609375 389.549804688 c 128,-1,26
 877.799804688 452.549804688 877.799804688 452.549804688 878.849609375 547.049804688 c 2,27,-1
 878.849609375 591.150390625 l 2,28,29
 878.849609375 746.549804688 878.849609375 746.549804688 833.700195312 830.549804688 c 128,-1,30
 788.549804688 914.549804688 788.549804688 914.549804688 663.599609375 914.549804688 c 0,31,32
 563.849609375 914.549804688 563.849609375 914.549804688 514.5 830.025390625 c 128,-1,33
 465.150390625 745.5 465.150390625 745.5 465.150390625 583.799804688 c 0,34,35
 465.150390625 418.950195312 465.150390625 418.950195312 515.549804688 341.25 c 128,-1,36
 565.950195312 263.549804688 565.950195312 263.549804688 668.849609375 263.549804688 c 0,23,24
EndSplineSet
Validated: 1
EndChar
StartChar: r
Encoding: 114 114 85
Width: 993
VWidth: 2150
GlyphClass: 2
Flags: W
AnchorPoint: "Anchor-2" 950.25 1182.3 basechar 0
AnchorPoint: "Anchor-1" 345.45 0 basechar 0
AnchorPoint: "Anchor-0" 542.85 1182.3 basechar 0
LayerCount: 2
Fore
SplineSet
842.099609375 1203.29980469 m 0,0,1
 870.450195312 1203.29980469 870.450195312 1203.29980469 905.099609375 1199.625 c 128,-1,2
 939.75 1195.95019531 939.75 1195.95019531 958.650390625 1192.79980469 c 1,3,-1
 928.200195312 848.400390625 l 1,4,5
 910.349609375 853.650390625 910.349609375 853.650390625 879.900390625 856.799804688 c 128,-1,6
 849.450195312 859.950195312 849.450195312 859.950195312 810.599609375 859.950195312 c 0,7,8
 760.200195312 859.950195312 760.200195312 859.950195312 709.275390625 848.400390625 c 128,-1,9
 658.349609375 836.849609375 658.349609375 836.849609375 615.299804688 807.450195312 c 128,-1,10
 572.25 778.049804688 572.25 778.049804688 546.525390625 725.549804688 c 128,-1,11
 520.799804688 673.049804688 520.799804688 673.049804688 520.799804688 591.150390625 c 2,12,-1
 520.799804688 0 l 1,13,-1
 155.400390625 0 l 1,14,-1
 155.400390625 1182.29980469 l 1,15,-1
 429.450195312 1182.29980469 l 1,16,-1
 485.099609375 988.049804688 l 1,17,-1
 502.950195312 988.049804688 l 1,18,19
 536.549804688 1047.90039062 536.549804688 1047.90039062 588 1096.72460938 c 128,-1,20
 639.450195312 1145.54980469 639.450195312 1145.54980469 704.549804688 1174.42480469 c 128,-1,21
 769.650390625 1203.29980469 769.650390625 1203.29980469 842.099609375 1203.29980469 c 0,0,1
EndSplineSet
Validated: 1
EndChar
StartChar: braceright
Encoding: 125 125 96
Width: 889
VWidth: 2150
GlyphClass: 1
Flags: W
LayerCount: 2
Fore
SplineSet
77.7001953125 -350.700195312 m 1,0,-1
 77.7001953125 -86.099609375 l 1,1,2
 127.049804688 -84 127.049804688 -84 170.625 -75.599609375 c 128,-1,3
 214.200195312 -67.2001953125 214.200195312 -67.2001953125 241.5 -39.375 c 128,-1,4
 268.799804688 -11.5498046875 268.799804688 -11.5498046875 268.799804688 44.099609375 c 2,5,-1
 268.799804688 346.5 l 2,6,7
 268.799804688 456.75 268.799804688 456.75 332.849609375 515.025390625 c 128,-1,8
 396.900390625 573.299804688 396.900390625 573.299804688 517.650390625 591.150390625 c 1,9,-1
 517.650390625 603.75 l 1,10,11
 397.950195312 621.599609375 397.950195312 621.599609375 333.375 679.875 c 128,-1,12
 268.799804688 738.150390625 268.799804688 738.150390625 268.799804688 852.599609375 c 2,13,-1
 268.799804688 1151.84960938 l 2,14,15
 268.799804688 1208.54980469 268.799804688 1208.54980469 241.5 1235.84960938 c 128,-1,16
 214.200195312 1263.15039062 214.200195312 1263.15039062 170.625 1272.07519531 c 128,-1,17
 127.049804688 1281 127.049804688 1281 77.7001953125 1282.04980469 c 1,18,-1
 77.7001953125 1546.65039062 l 1,19,20
 281.400390625 1546.65039062 281.400390625 1546.65039062 389.549804688 1512.52539062 c 128,-1,21
 497.700195312 1478.40039062 497.700195312 1478.40039062 537.599609375 1406.47460938 c 128,-1,22
 577.5 1334.54980469 577.5 1334.54980469 577.5 1222.20019531 c 2,23,-1
 577.5 921.900390625 l 2,24,25
 577.5 855.75 577.5 855.75 611.625 815.325195312 c 128,-1,26
 645.75 774.900390625 645.75 774.900390625 705.075195312 757.049804688 c 128,-1,27
 764.400390625 739.200195312 764.400390625 739.200195312 841.049804688 739.200195312 c 1,28,-1
 841.049804688 455.700195312 l 1,29,30
 765.450195312 455.700195312 765.450195312 455.700195312 705.599609375 437.325195312 c 128,-1,31
 645.75 418.950195312 645.75 418.950195312 611.625 379.049804688 c 128,-1,32
 577.5 339.150390625 577.5 339.150390625 577.5 271.950195312 c 2,33,-1
 577.5 -23.099609375 l 2,34,35
 577.5 -137.549804688 577.5 -137.549804688 537.075195312 -210 c 128,-1,36
 496.650390625 -282.450195312 496.650390625 -282.450195312 388.5 -316.575195312 c 128,-1,37
 280.349609375 -350.700195312 280.349609375 -350.700195312 77.7001953125 -350.700195312 c 1,0,-1
EndSplineSet
Validated: 1
EndChar
StartChar: asciitilde
Encoding: 126 126 97
Width: 1245
VWidth: 2150
GlyphClass: 1
Flags: W
LayerCount: 2
Fore
SplineSet
582.75 634.200195312 m 0,0,1
 504 667.799804688 504 667.799804688 446.775390625 680.400390625 c 128,-1,2
 389.549804688 693 389.549804688 693 340.200195312 693 c 0,3,4
 278.25 693 278.25 693 213.674804688 655.724609375 c 128,-1,5
 149.099609375 618.450195312 149.099609375 618.450195312 94.5 565.950195312 c 1,6,-1
 94.5 834.75 l 1,7,8
 149.099609375 891.450195312 149.099609375 891.450195312 216.299804688 919.799804688 c 128,-1,9
 283.5 948.150390625 283.5 948.150390625 367.5 948.150390625 c 0,10,11
 430.5 948.150390625 430.5 948.150390625 494.025390625 936.075195312 c 128,-1,12
 557.549804688 924 557.549804688 924 660.450195312 882 c 0,13,14
 739.200195312 848.400390625 739.200195312 848.400390625 798 836.325195312 c 128,-1,15
 856.799804688 824.25 856.799804688 824.25 904.049804688 824.25 c 0,16,17
 964.950195312 824.25 964.950195312 824.25 1030.04980469 861 c 128,-1,18
 1095.15039062 897.75 1095.15039062 897.75 1148.70019531 951.299804688 c 1,19,-1
 1148.70019531 682.5 l 1,20,21
 1095.15039062 625.799804688 1095.15039062 625.799804688 1027.42480469 596.924804688 c 128,-1,22
 959.700195312 568.049804688 959.700195312 568.049804688 875.700195312 568.049804688 c 0,23,24
 812.700195312 568.049804688 812.700195312 568.049804688 749.700195312 580.125 c 128,-1,25
 686.700195312 592.200195312 686.700195312 592.200195312 582.75 634.200195312 c 0,0,1
EndSplineSet
Validated: 1
EndChar
StartChar: sterling
Encoding: 163 163 101
Width: 1245
VWidth: 2150
GlyphClass: 1
Flags: W
LayerCount: 2
Fore
SplineSet
747.599609375 1558.20019531 m 0,0,1
 863.099609375 1558.20019531 863.099609375 1558.20019531 970.200195312 1534.04980469 c 128,-1,2
 1077.29980469 1509.90039062 1077.29980469 1509.90039062 1164.45019531 1472.09960938 c 1,3,-1
 1058.40039062 1200.15039062 l 1,4,5
 980.700195312 1230.59960938 980.700195312 1230.59960938 910.349609375 1246.34960938 c 128,-1,6
 840 1262.09960938 840 1262.09960938 783.299804688 1262.09960938 c 0,7,8
 723.450195312 1262.09960938 723.450195312 1262.09960938 680.924804688 1227.45019531 c 128,-1,9
 638.400390625 1192.79980469 638.400390625 1192.79980469 638.400390625 1100.40039062 c 2,10,-1
 638.400390625 942.900390625 l 1,11,-1
 1016.40039062 942.900390625 l 1,12,-1
 1016.40039062 682.5 l 1,13,-1
 638.400390625 682.5 l 1,14,-1
 638.400390625 557.549804688 l 2,15,16
 638.400390625 485.099609375 638.400390625 485.099609375 613.200195312 436.275390625 c 128,-1,17
 588 387.450195312 588 387.450195312 550.724609375 357 c 128,-1,18
 513.450195312 326.549804688 513.450195312 326.549804688 475.650390625 307.650390625 c 1,19,-1
 1205.40039062 307.650390625 l 1,20,-1
 1205.40039062 0 l 1,21,-1
 97.650390625 0 l 1,22,-1
 97.650390625 295.049804688 l 1,23,24
 156.450195312 324.450195312 156.450195312 324.450195312 196.349609375 354.900390625 c 128,-1,25
 236.25 385.349609375 236.25 385.349609375 257.25 432.075195312 c 128,-1,26
 278.25 478.799804688 278.25 478.799804688 278.25 555.450195312 c 2,27,-1
 278.25 682.5 l 1,28,-1
 97.650390625 682.5 l 1,29,-1
 97.650390625 942.900390625 l 1,30,-1
 278.25 942.900390625 l 1,31,-1
 278.25 1107.75 l 2,32,33
 278.25 1268.40039062 278.25 1268.40039062 339.674804688 1367.625 c 128,-1,34
 401.099609375 1466.84960938 401.099609375 1466.84960938 507.150390625 1512.52539062 c 128,-1,35
 613.200195312 1558.20019531 613.200195312 1558.20019531 747.599609375 1558.20019531 c 0,0,1
EndSplineSet
Validated: 1
EndChar
StartChar: copyright
Encoding: 169 169 107
Width: 1780
VWidth: 2150
GlyphClass: 1
Flags: W
LayerCount: 2
Fore
SplineSet
890.400390625 -21 m 0,0,1
 719.25 -21 719.25 -21 574.875 37.275390625 c 128,-1,2
 430.5 95.5498046875 430.5 95.5498046875 323.924804688 201.599609375 c 128,-1,3
 217.349609375 307.650390625 217.349609375 307.650390625 159.075195312 452.025390625 c 128,-1,4
 100.799804688 596.400390625 100.799804688 596.400390625 100.799804688 767.549804688 c 0,5,6
 100.799804688 935.549804688 100.799804688 935.549804688 159.599609375 1079.40039062 c 128,-1,7
 218.400390625 1223.25 218.400390625 1223.25 325.5 1330.34960938 c 128,-1,8
 432.599609375 1437.45019531 432.599609375 1437.45019531 576.974609375 1497.29980469 c 128,-1,9
 721.349609375 1557.15039062 721.349609375 1557.15039062 890.400390625 1557.15039062 c 0,10,11
 1058.40039062 1557.15039062 1058.40039062 1557.15039062 1202.25 1498.875 c 128,-1,12
 1346.09960938 1440.59960938 1346.09960938 1440.59960938 1453.20019531 1334.02539062 c 128,-1,13
 1560.29980469 1227.45019531 1560.29980469 1227.45019531 1620.15039062 1083.59960938 c 128,-1,14
 1680 939.75 1680 939.75 1680 767.549804688 c 0,15,16
 1680 596.400390625 1680 596.400390625 1621.72460938 452.025390625 c 128,-1,17
 1563.45019531 307.650390625 1563.45019531 307.650390625 1456.875 201.599609375 c 128,-1,18
 1350.29980469 95.5498046875 1350.29980469 95.5498046875 1206.45019531 37.275390625 c 128,-1,19
 1062.59960938 -21 1062.59960938 -21 890.400390625 -21 c 0,0,1
908.25 275.099609375 m 0,20,21
 682.5 275.099609375 682.5 275.099609375 569.099609375 411.075195312 c 128,-1,22
 455.700195312 547.049804688 455.700195312 547.049804688 455.700195312 769.650390625 c 0,23,24
 455.700195312 915.599609375 455.700195312 915.599609375 506.625 1025.32519531 c 128,-1,25
 557.549804688 1135.04980469 557.549804688 1135.04980469 658.349609375 1197 c 128,-1,26
 759.150390625 1258.95019531 759.150390625 1258.95019531 907.200195312 1258.95019531 c 0,27,28
 988.049804688 1258.95019531 988.049804688 1258.95019531 1063.65039062 1240.04980469 c 128,-1,29
 1139.25 1221.15039062 1139.25 1221.15039062 1207.5 1186.5 c 1,30,-1
 1127.70019531 1005.90039062 l 1,31,32
 1074.15039062 1034.25 1074.15039062 1034.25 1022.70019531 1048.95019531 c 128,-1,33
 971.25 1063.65039062 971.25 1063.65039062 917.700195312 1063.65039062 c 0,34,35
 812.700195312 1063.65039062 812.700195312 1063.65039062 753.375 985.950195312 c 128,-1,36
 694.049804688 908.25 694.049804688 908.25 694.049804688 767.549804688 c 0,37,38
 694.049804688 618.450195312 694.049804688 618.450195312 747.599609375 544.424804688 c 128,-1,39
 801.150390625 470.400390625 801.150390625 470.400390625 919.799804688 470.400390625 c 0,40,41
 978.599609375 470.400390625 978.599609375 470.400390625 1043.70019531 486.150390625 c 128,-1,42
 1108.79980469 501.900390625 1108.79980469 501.900390625 1167.59960938 530.25 c 1,43,-1
 1167.59960938 334.950195312 l 1,44,45
 1108.79980469 306.599609375 1108.79980469 306.599609375 1048.42480469 290.849609375 c 128,-1,46
 988.049804688 275.099609375 988.049804688 275.099609375 908.25 275.099609375 c 0,20,21
890.400390625 133.349609375 m 0,47,48
 1022.70019531 133.349609375 1022.70019531 133.349609375 1135.04980469 180.075195312 c 128,-1,49
 1247.40039062 226.799804688 1247.40039062 226.799804688 1330.875 311.325195312 c 128,-1,50
 1414.34960938 395.849609375 1414.34960938 395.849609375 1461.07519531 511.875 c 128,-1,51
 1507.79980469 627.900390625 1507.79980469 627.900390625 1507.79980469 767.549804688 c 0,52,53
 1507.79980469 903 1507.79980469 903 1461.59960938 1019.02539062 c 128,-1,54
 1415.40039062 1135.04980469 1415.40039062 1135.04980469 1332.45019531 1221.15039062 c 128,-1,55
 1249.5 1307.25 1249.5 1307.25 1137.15039062 1355.54980469 c 128,-1,56
 1024.79980469 1403.84960938 1024.79980469 1403.84960938 890.400390625 1403.84960938 c 0,57,58
 754.950195312 1403.84960938 754.950195312 1403.84960938 641.549804688 1357.125 c 128,-1,59
 528.150390625 1310.40039062 528.150390625 1310.40039062 444.674804688 1225.34960938 c 128,-1,60
 361.200195312 1140.29980469 361.200195312 1140.29980469 315 1023.75 c 128,-1,61
 268.799804688 907.200195312 268.799804688 907.200195312 268.799804688 767.549804688 c 256,62,63
 268.799804688 627.900390625 268.799804688 627.900390625 314.474609375 511.875 c 128,-1,64
 360.150390625 395.849609375 360.150390625 395.849609375 443.099609375 311.325195312 c 128,-1,65
 526.049804688 226.799804688 526.049804688 226.799804688 639.974609375 180.075195312 c 128,-1,66
 753.900390625 133.349609375 753.900390625 133.349609375 890.400390625 133.349609375 c 0,47,48
EndSplineSet
Validated: 1
EndChar
StartChar: guillemotleft
Encoding: 171 171 109
Width: 1394
VWidth: 2150
GlyphClass: 1
Flags: W
LayerCount: 2
Fore
SplineSet
81.900390625 610.049804688 m 1,0,-1
 480.900390625 1102.5 l 1,1,-1
 743.400390625 961.799804688 l 1,2,-1
 453.599609375 596.400390625 l 1,3,-1
 743.400390625 231 l 1,4,-1
 480.900390625 91.349609375 l 1,5,-1
 81.900390625 581.700195312 l 1,6,-1
 81.900390625 610.049804688 l 1,0,-1
649.950195312 610.049804688 m 1,7,-1
 1046.84960938 1102.5 l 1,8,-1
 1311.45019531 961.799804688 l 1,9,-1
 1020.59960938 596.400390625 l 1,10,-1
 1311.45019531 231 l 1,11,-1
 1046.84960938 91.349609375 l 1,12,-1
 649.950195312 581.700195312 l 1,13,-1
 649.950195312 610.049804688 l 1,7,-1
EndSplineSet
Validated: 1
EndChar
StartChar: overscore
Encoding: 175 175 113
Width: 1075
VWidth: 2150
GlyphClass: 1
Flags: W
LayerCount: 2
Fore
SplineSet
1081.5 1633.79980469 m 1,0,-1
 -6.2998046875 1633.79980469 l 1,1,-1
 -6.2998046875 1869 l 1,2,-1
 1081.5 1869 l 1,3,-1
 1081.5 1633.79980469 l 1,0,-1
EndSplineSet
Validated: 1
EndChar
StartChar: degree
Encoding: 176 176 114
Width: 914
VWidth: 2150
GlyphClass: 1
Flags: W
LayerCount: 2
Fore
SplineSet
456.75 810.599609375 m 0,0,1
 345.450195312 810.599609375 345.450195312 810.599609375 259.349609375 857.325195312 c 128,-1,2
 173.25 904.049804688 173.25 904.049804688 124.424804688 988.049804688 c 128,-1,3
 75.599609375 1072.04980469 75.599609375 1072.04980469 75.599609375 1182.29980469 c 0,4,5
 75.599609375 1290.45019531 75.599609375 1290.45019531 124.424804688 1374.97460938 c 128,-1,6
 173.25 1459.5 173.25 1459.5 259.349609375 1508.32519531 c 128,-1,7
 345.450195312 1557.15039062 345.450195312 1557.15039062 456.75 1557.15039062 c 0,8,9
 569.099609375 1557.15039062 569.099609375 1557.15039062 654.674804688 1508.84960938 c 128,-1,10
 740.25 1460.54980469 740.25 1460.54980469 789.075195312 1376.02539062 c 128,-1,11
 837.900390625 1291.5 837.900390625 1291.5 837.900390625 1182.29980469 c 0,12,13
 837.900390625 1072.04980469 837.900390625 1072.04980469 789.075195312 988.049804688 c 128,-1,14
 740.25 904.049804688 740.25 904.049804688 654.674804688 857.325195312 c 128,-1,15
 569.099609375 810.599609375 569.099609375 810.599609375 456.75 810.599609375 c 0,0,1
456.75 1034.25 m 0,16,17
 522.900390625 1034.25 522.900390625 1034.25 565.424804688 1074.67480469 c 128,-1,18
 607.950195312 1115.09960938 607.950195312 1115.09960938 607.950195312 1182.29980469 c 0,19,20
 607.950195312 1252.65039062 607.950195312 1252.65039062 565.424804688 1293.59960938 c 128,-1,21
 522.900390625 1334.54980469 522.900390625 1334.54980469 456.75 1334.54980469 c 0,22,23
 391.650390625 1334.54980469 391.650390625 1334.54980469 349.125 1293.59960938 c 128,-1,24
 306.599609375 1252.65039062 306.599609375 1252.65039062 306.599609375 1182.29980469 c 0,25,26
 306.599609375 1115.09960938 306.599609375 1115.09960938 349.125 1074.67480469 c 128,-1,27
 391.650390625 1034.25 391.650390625 1034.25 456.75 1034.25 c 0,16,17
EndSplineSet
Validated: 1
EndChar
StartChar: plusminus
Encoding: 177 177 115
Width: 1245
VWidth: 2150
GlyphClass: 1
Flags: W
LayerCount: 2
Fore
SplineSet
94.5 0 m 1,0,-1
 94.5 256.200195312 l 1,1,-1
 1148.70019531 256.200195312 l 1,2,-1
 1148.70019531 0 l 1,3,-1
 94.5 0 l 1,0,-1
749.700195312 963.900390625 m 1,4,-1
 1148.70019531 963.900390625 l 1,5,-1
 1148.70019531 708.75 l 1,6,-1
 749.700195312 708.75 l 1,7,-1
 749.700195312 317.099609375 l 1,8,-1
 493.5 317.099609375 l 1,9,-1
 493.5 708.75 l 1,10,-1
 94.5 708.75 l 1,11,-1
 94.5 963.900390625 l 1,12,-1
 493.5 963.900390625 l 1,13,-1
 493.5 1361.84960938 l 1,14,-1
 749.700195312 1361.84960938 l 1,15,-1
 749.700195312 963.900390625 l 1,4,-1
EndSplineSet
Validated: 1
EndChar
StartChar: uni00B3
Encoding: 179 179 117
Width: 836
VWidth: 2150
GlyphClass: 1
Flags: W
LayerCount: 2
Fore
SplineSet
411.599609375 1834.34960938 m 0,0,1
 556.5 1834.34960938 556.5 1834.34960938 643.650390625 1770.82519531 c 128,-1,2
 730.799804688 1707.29980469 730.799804688 1707.29980469 730.799804688 1600.20019531 c 0,3,4
 730.799804688 1523.54980469 730.799804688 1523.54980469 689.849609375 1468.42480469 c 128,-1,5
 648.900390625 1413.29980469 648.900390625 1413.29980469 556.5 1380.75 c 1,6,-1
 556.5 1370.25 l 1,7,8
 660.450195312 1346.09960938 660.450195312 1346.09960938 710.325195312 1288.34960938 c 128,-1,9
 760.200195312 1230.59960938 760.200195312 1230.59960938 760.200195312 1147.65039062 c 0,10,11
 760.200195312 1019.54980469 760.200195312 1019.54980469 661.5 948.674804688 c 128,-1,12
 562.799804688 877.799804688 562.799804688 877.799804688 373.799804688 877.799804688 c 0,13,14
 286.650390625 877.799804688 286.650390625 877.799804688 210.525390625 895.650390625 c 128,-1,15
 134.400390625 913.5 134.400390625 913.5 68.25 950.25 c 1,16,-1
 68.25 1173.90039062 l 1,17,18
 136.5 1128.75 136.5 1128.75 211.049804688 1106.17480469 c 128,-1,19
 285.599609375 1083.59960938 285.599609375 1083.59960938 366.450195312 1083.59960938 c 0,20,21
 432.599609375 1083.59960938 432.599609375 1083.59960938 467.25 1105.65039062 c 128,-1,22
 501.900390625 1127.70019531 501.900390625 1127.70019531 501.900390625 1173.90039062 c 0,23,24
 501.900390625 1210.65039062 501.900390625 1210.65039062 472.5 1239.52539062 c 128,-1,25
 443.099609375 1268.40039062 443.099609375 1268.40039062 344.400390625 1268.40039062 c 2,26,-1
 231 1268.40039062 l 1,27,-1
 231 1454.25 l 1,28,-1
 321.299804688 1454.25 l 2,29,30
 420 1454.25 420 1454.25 449.924804688 1483.65039062 c 128,-1,31
 479.849609375 1513.04980469 479.849609375 1513.04980469 479.849609375 1551.90039062 c 0,32,33
 479.849609375 1584.45019531 479.849609375 1584.45019531 455.700195312 1609.125 c 128,-1,34
 431.549804688 1633.79980469 431.549804688 1633.79980469 379.049804688 1633.79980469 c 0,35,36
 328.650390625 1633.79980469 328.650390625 1633.79980469 282.974609375 1614.90039062 c 128,-1,37
 237.299804688 1596 237.299804688 1596 179.549804688 1554 c 1,38,-1
 65.099609375 1716.75 l 1,39,40
 130.200195312 1767.15039062 130.200195312 1767.15039062 215.25 1800.75 c 128,-1,41
 300.299804688 1834.34960938 300.299804688 1834.34960938 411.599609375 1834.34960938 c 0,0,1
EndSplineSet
Validated: 1
EndChar
StartChar: cedilla
Encoding: 184 184 122
Width: 530
VWidth: 2150
GlyphClass: 1
Flags: W
LayerCount: 2
Fore
SplineSet
504 -263.549804688 m 0,0,1
 504 -381.150390625 504 -381.150390625 429.450195312 -448.875 c 128,-1,2
 354.900390625 -516.599609375 354.900390625 -516.599609375 197.400390625 -516.599609375 c 0,3,4
 136.5 -516.599609375 136.5 -516.599609375 87.6748046875 -507.674804688 c 128,-1,5
 38.849609375 -498.75 38.849609375 -498.75 4.2001953125 -487.200195312 c 1,6,-1
 4.2001953125 -297.150390625 l 1,7,8
 37.7998046875 -306.599609375 37.7998046875 -306.599609375 76.650390625 -313.424804688 c 128,-1,9
 115.5 -320.25 115.5 -320.25 149.099609375 -320.25 c 0,10,11
 184.799804688 -320.25 184.799804688 -320.25 207.375 -305.025390625 c 128,-1,12
 229.950195312 -289.799804688 229.950195312 -289.799804688 229.950195312 -257.25 c 0,13,14
 229.950195312 -219.450195312 229.950195312 -219.450195312 193.200195312 -193.724609375 c 128,-1,15
 156.450195312 -168 156.450195312 -168 67.2001953125 -153.299804688 c 1,16,-1
 139.650390625 0 l 1,17,-1
 343.349609375 0 l 1,18,-1
 319.200195312 -64.0498046875 l 1,19,20
 362.25 -75.599609375 362.25 -75.599609375 404.775390625 -99.224609375 c 128,-1,21
 447.299804688 -122.849609375 447.299804688 -122.849609375 475.650390625 -162.75 c 128,-1,22
 504 -202.650390625 504 -202.650390625 504 -263.549804688 c 0,0,1
EndSplineSet
Validated: 1
EndChar
StartChar: uni00B9
Encoding: 185 185 123
Width: 836
VWidth: 2150
GlyphClass: 1
Flags: W
LayerCount: 2
Fore
SplineSet
630 1815.45019531 m 1,0,-1
 630 894.599609375 l 1,1,-1
 357 894.599609375 l 1,2,-1
 357 1315.65039062 l 2,3,4
 357 1341.90039062 357 1341.90039062 358.575195312 1389.15039062 c 128,-1,5
 360.150390625 1436.40039062 360.150390625 1436.40039062 362.25 1479.97460938 c 128,-1,6
 364.349609375 1523.54980469 364.349609375 1523.54980469 366.450195312 1538.25 c 1,7,8
 355.950195312 1520.40039062 355.950195312 1520.40039062 333.900390625 1497.82519531 c 128,-1,9
 311.849609375 1475.25 311.849609375 1475.25 295.049804688 1460.54980469 c 2,10,-1
 212.099609375 1391.25 l 1,11,-1
 78.75 1547.70019531 l 1,12,-1
 414.75 1815.45019531 l 1,13,-1
 630 1815.45019531 l 1,0,-1
EndSplineSet
Validated: 1
EndChar
StartChar: onequarter
Encoding: 188 188 126
Width: 1846
VWidth: 2150
GlyphClass: 1
Flags: W
LayerCount: 2
Fore
SplineSet
354.900390625 0 m 1,0,-1
 1176 1535.09960938 l 1,1,-1
 1460.54980469 1535.09960938 l 1,2,-1
 638.400390625 0 l 1,3,-1
 354.900390625 0 l 1,0,-1
296.099609375 615.299804688 m 1,4,-1
 296.099609375 1036.34960938 l 2,5,6
 296.099609375 1061.54980469 296.099609375 1061.54980469 297.150390625 1103.54980469 c 128,-1,7
 298.200195312 1145.54980469 298.200195312 1145.54980469 300.299804688 1188.59960938 c 128,-1,8
 302.400390625 1231.65039062 302.400390625 1231.65039062 305.549804688 1258.95019531 c 1,9,10
 297.150390625 1246.34960938 297.150390625 1246.34960938 276.150390625 1223.77539062 c 128,-1,11
 255.150390625 1201.20019531 255.150390625 1201.20019531 235.200195312 1183.34960938 c 2,12,-1
 151.200195312 1111.95019531 l 1,13,-1
 17.849609375 1268.40039062 l 1,14,-1
 353.849609375 1535.09960938 l 1,15,-1
 569.099609375 1535.09960938 l 1,16,-1
 569.099609375 615.299804688 l 1,17,-1
 296.099609375 615.299804688 l 1,4,-1
1426.95019531 0 m 1,18,-1
 1426.95019531 153.299804688 l 1,19,-1
 1031.09960938 153.299804688 l 1,20,-1
 1031.09960938 332.849609375 l 1,21,-1
 1417.5 927.150390625 l 1,22,-1
 1695.75 927.150390625 l 1,23,-1
 1695.75 346.5 l 1,24,-1
 1827 346.5 l 1,25,-1
 1827 153.299804688 l 1,26,-1
 1695.75 153.299804688 l 1,27,-1
 1695.75 0 l 1,28,-1
 1426.95019531 0 l 1,18,-1
1240.04980469 346.5 m 1,29,-1
 1426.95019531 346.5 l 1,30,-1
 1426.95019531 519.75 l 2,31,32
 1426.95019531 559.650390625 1426.95019531 559.650390625 1428.52539062 602.174804688 c 128,-1,33
 1430.09960938 644.700195312 1430.09960938 644.700195312 1433.25 687.75 c 1,34,35
 1417.5 645.75 1417.5 645.75 1396.5 602.174804688 c 128,-1,36
 1375.5 558.599609375 1375.5 558.599609375 1359.75 534.450195312 c 2,37,-1
 1240.04980469 346.5 l 1,29,-1
EndSplineSet
Validated: 1
EndChar
StartChar: questiondown
Encoding: 191 191 129
Width: 1056
VWidth: 2150
GlyphClass: 1
Flags: W
LayerCount: 2
Fore
SplineSet
759.150390625 639.450195312 m 1,0,-1
 759.150390625 555.450195312 l 2,1,2
 759.150390625 488.25 759.150390625 488.25 741.299804688 433.650390625 c 128,-1,3
 723.450195312 379.049804688 723.450195312 379.049804688 680.924804688 330.75 c 128,-1,4
 638.400390625 282.450195312 638.400390625 282.450195312 563.849609375 232.049804688 c 0,5,6
 496.650390625 186.900390625 496.650390625 186.900390625 459.375 152.25 c 128,-1,7
 422.099609375 117.599609375 422.099609375 117.599609375 407.924804688 85.5751953125 c 128,-1,8
 393.75 53.5498046875 393.75 53.5498046875 393.75 15.75 c 0,9,10
 393.75 -39.900390625 393.75 -39.900390625 438.900390625 -70.875 c 128,-1,11
 484.049804688 -101.849609375 484.049804688 -101.849609375 560.700195312 -101.849609375 c 0,12,13
 645.75 -101.849609375 645.75 -101.849609375 736.575195312 -73.5 c 128,-1,14
 827.400390625 -45.150390625 827.400390625 -45.150390625 926.099609375 5.25 c 1,15,-1
 1056.29980469 -252 l 1,16,17
 945 -315 945 -315 816.375 -353.849609375 c 128,-1,18
 687.75 -392.700195312 687.75 -392.700195312 534.450195312 -392.700195312 c 0,19,20
 303.450195312 -392.700195312 303.450195312 -392.700195312 175.875 -286.125 c 128,-1,21
 48.2998046875 -179.549804688 48.2998046875 -179.549804688 48.2998046875 -10.5 c 0,22,23
 48.2998046875 75.599609375 48.2998046875 75.599609375 75.0751953125 141.75 c 128,-1,24
 101.849609375 207.900390625 101.849609375 207.900390625 156.974609375 265.650390625 c 128,-1,25
 212.099609375 323.400390625 212.099609375 323.400390625 299.25 382.200195312 c 0,26,27
 363.299804688 425.25 363.299804688 425.25 397.424804688 455.174804688 c 128,-1,28
 431.549804688 485.099609375 431.549804688 485.099609375 445.200195312 513.450195312 c 128,-1,29
 458.849609375 541.799804688 458.849609375 541.799804688 458.849609375 580.650390625 c 2,30,-1
 458.849609375 639.450195312 l 1,31,-1
 759.150390625 639.450195312 l 1,0,-1
799.049804688 1002.75 m 0,32,33
 799.049804688 897.75 799.049804688 897.75 739.724609375 855.224609375 c 128,-1,34
 680.400390625 812.700195312 680.400390625 812.700195312 595.349609375 812.700195312 c 0,35,36
 514.5 812.700195312 514.5 812.700195312 455.174804688 855.224609375 c 128,-1,37
 395.849609375 897.75 395.849609375 897.75 395.849609375 1002.75 c 0,38,39
 395.849609375 1102.5 395.849609375 1102.5 455.174804688 1147.125 c 128,-1,40
 514.5 1191.75 514.5 1191.75 595.349609375 1191.75 c 0,41,42
 680.400390625 1191.75 680.400390625 1191.75 739.724609375 1147.125 c 128,-1,43
 799.049804688 1102.5 799.049804688 1102.5 799.049804688 1002.75 c 0,32,33
EndSplineSet
Validated: 1
EndChar
StartChar: AE
Encoding: 198 198 136
Width: 2041
VWidth: 2150
GlyphClass: 2
Flags: W
AnchorPoint: "Anchor-1" 1020.6 0 basechar 0
AnchorPoint: "Anchor-0" 1111.95 1535.1 basechar 0
LayerCount: 2
Fore
SplineSet
1925.70019531 0 m 1,0,-1
 1011.15039062 0 l 1,1,-1
 1011.15039062 326.549804688 l 1,2,-1
 523.950195312 326.549804688 l 1,3,-1
 392.700195312 0 l 1,4,-1
 -5.25 0 l 1,5,-1
 668.849609375 1535.09960938 l 1,6,-1
 1925.70019531 1535.09960938 l 1,7,-1
 1925.70019531 1235.84960938 l 1,8,-1
 1381.79980469 1235.84960938 l 1,9,-1
 1381.79980469 946.049804688 l 1,10,-1
 1887.90039062 946.049804688 l 1,11,-1
 1887.90039062 646.799804688 l 1,12,-1
 1381.79980469 646.799804688 l 1,13,-1
 1381.79980469 303.450195312 l 1,14,-1
 1925.70019531 303.450195312 l 1,15,-1
 1925.70019531 0 l 1,0,-1
646.799804688 635.25 m 1,16,-1
 1011.15039062 635.25 l 1,17,-1
 1011.15039062 1221.15039062 l 1,18,-1
 886.200195312 1221.15039062 l 1,19,-1
 646.799804688 635.25 l 1,16,-1
EndSplineSet
Validated: 1
EndChar
StartChar: germandbls
Encoding: 223 223 161
Width: 1570
VWidth: 2150
GlyphClass: 2
Flags: W
AnchorPoint: "Anchor-1" 786.45 0 basechar 0
AnchorPoint: "Anchor-0" 786.45 1645.35 basechar 0
LayerCount: 2
Fore
SplineSet
1358.70019531 1276.79980469 m 0,0,1
 1358.70019531 1200.15039062 1358.70019531 1200.15039062 1329.29980469 1143.45019531 c 128,-1,2
 1299.90039062 1086.75 1299.90039062 1086.75 1256.84960938 1043.70019531 c 128,-1,3
 1213.79980469 1000.65039062 1213.79980469 1000.65039062 1170.22460938 969.150390625 c 128,-1,4
 1126.65039062 937.650390625 1126.65039062 937.650390625 1097.25 911.924804688 c 128,-1,5
 1067.84960938 886.200195312 1067.84960938 886.200195312 1067.84960938 864.150390625 c 0,6,7
 1067.84960938 836.849609375 1067.84960938 836.849609375 1090.95019531 815.849609375 c 128,-1,8
 1114.04980469 794.849609375 1114.04980469 794.849609375 1162.34960938 766.5 c 128,-1,9
 1210.65039062 738.150390625 1210.65039062 738.150390625 1286.25 688.799804688 c 0,10,11
 1356.59960938 644.700195312 1356.59960938 644.700195312 1404.90039062 597.974609375 c 128,-1,12
 1453.20019531 551.25 1453.20019531 551.25 1477.875 490.875 c 128,-1,13
 1502.54980469 430.5 1502.54980469 430.5 1502.54980469 346.5 c 0,14,15
 1502.54980469 226.799804688 1502.54980469 226.799804688 1447.42480469 144.900390625 c 128,-1,16
 1392.29980469 63 1392.29980469 63 1286.25 21 c 128,-1,17
 1180.20019531 -21 1180.20019531 -21 1022.70019531 -21 c 0,18,19
 898.799804688 -21 898.799804688 -21 816.375 -6.8251953125 c 128,-1,20
 733.950195312 7.349609375 733.950195312 7.349609375 668.849609375 43.0498046875 c 1,21,-1
 668.849609375 323.400390625 l 1,22,23
 703.5 301.349609375 703.5 301.349609375 755.474609375 281.400390625 c 128,-1,24
 807.450195312 261.450195312 807.450195312 261.450195312 862.575195312 248.849609375 c 128,-1,25
 917.700195312 236.25 917.700195312 236.25 963.900390625 236.25 c 0,26,27
 1035.29980469 236.25 1035.29980469 236.25 1079.40039062 264.075195312 c 128,-1,28
 1123.5 291.900390625 1123.5 291.900390625 1123.5 345.450195312 c 0,29,30
 1123.5 376.950195312 1123.5 376.950195312 1110.375 400.575195312 c 128,-1,31
 1097.25 424.200195312 1097.25 424.200195312 1055.25 453.599609375 c 128,-1,32
 1013.25 483 1013.25 483 927.150390625 530.25 c 0,33,34
 840 578.549804688 840 578.549804688 788.549804688 621.075195312 c 128,-1,35
 737.099609375 663.599609375 737.099609375 663.599609375 714.525390625 709.275390625 c 128,-1,36
 691.950195312 754.950195312 691.950195312 754.950195312 691.950195312 810.599609375 c 0,37,38
 691.950195312 877.799804688 691.950195312 877.799804688 721.349609375 924.525390625 c 128,-1,39
 750.75 971.25 750.75 971.25 794.849609375 1006.42480469 c 128,-1,40
 838.950195312 1041.59960938 838.950195312 1041.59960938 882.525390625 1073.09960938 c 128,-1,41
 926.099609375 1104.59960938 926.099609375 1104.59960938 955.5 1140.82519531 c 128,-1,42
 984.900390625 1177.04980469 984.900390625 1177.04980469 984.900390625 1227.45019531 c 0,43,44
 984.900390625 1287.29980469 984.900390625 1287.29980469 924.525390625 1325.625 c 128,-1,45
 864.150390625 1363.95019531 864.150390625 1363.95019531 766.5 1363.95019531 c 0,46,47
 688.799804688 1363.95019531 688.799804688 1363.95019531 633.674804688 1339.79980469 c 128,-1,48
 578.549804688 1315.65039062 578.549804688 1315.65039062 549.674804688 1267.875 c 128,-1,49
 520.799804688 1220.09960938 520.799804688 1220.09960938 520.799804688 1148.70019531 c 2,50,-1
 520.799804688 0 l 1,51,-1
 155.400390625 0 l 1,52,-1
 155.400390625 1176 l 2,53,54
 155.400390625 1331.40039062 155.400390625 1331.40039062 235.200195312 1435.875 c 128,-1,55
 315 1540.34960938 315 1540.34960938 453.075195312 1592.84960938 c 128,-1,56
 591.150390625 1645.34960938 591.150390625 1645.34960938 766.5 1645.34960938 c 0,57,58
 937.650390625 1645.34960938 937.650390625 1645.34960938 1071.52539062 1603.875 c 128,-1,59
 1205.40039062 1562.40039062 1205.40039062 1562.40039062 1282.04980469 1479.97460938 c 128,-1,60
 1358.70019531 1397.54980469 1358.70019531 1397.54980469 1358.70019531 1276.79980469 c 0,0,1
EndSplineSet
Validated: 1
EndChar
StartChar: thorn
Encoding: 254 254 192
Width: 1372
VWidth: 2150
GlyphClass: 2
Flags: W
AnchorPoint: "Anchor-1" 686.7 -516.6 basechar 0
AnchorPoint: "Anchor-0" 686.7 1633.8 basechar 0
LayerCount: 2
Fore
SplineSet
1277.84960938 593.25 m 0,0,1
 1277.84960938 392.700195312 1277.84960938 392.700195312 1221.67480469 255.674804688 c 128,-1,2
 1165.5 118.650390625 1165.5 118.650390625 1066.27539062 48.8251953125 c 128,-1,3
 967.049804688 -21 967.049804688 -21 837.900390625 -21 c 0,4,5
 759.150390625 -21 759.150390625 -21 698.775390625 -1.5751953125 c 128,-1,6
 638.400390625 17.849609375 638.400390625 17.849609375 594.825195312 49.875 c 128,-1,7
 551.25 81.900390625 551.25 81.900390625 520.799804688 118.650390625 c 1,8,-1
 506.099609375 118.650390625 l 1,9,10
 510.299804688 97.650390625 510.299804688 97.650390625 513.450195312 68.25 c 128,-1,11
 516.599609375 38.849609375 516.599609375 38.849609375 518.700195312 9.4501953125 c 128,-1,12
 520.799804688 -19.9501953125 520.799804688 -19.9501953125 520.799804688 -43.0498046875 c 2,13,-1
 520.799804688 -516.599609375 l 1,14,-1
 155.400390625 -516.599609375 l 1,15,-1
 155.400390625 1633.79980469 l 1,16,-1
 520.799804688 1633.79980469 l 1,17,-1
 520.799804688 1248.45019531 l 2,18,19
 520.799804688 1179.15039062 520.799804688 1179.15039062 515.025390625 1120.34960938 c 128,-1,20
 509.25 1061.54980469 509.25 1061.54980469 504 1029 c 1,21,-1
 520.799804688 1029 l 1,22,23
 549.150390625 1077.29980469 549.150390625 1077.29980469 594.299804688 1116.67480469 c 128,-1,24
 639.450195312 1156.04980469 639.450195312 1156.04980469 701.924804688 1179.67480469 c 128,-1,25
 764.400390625 1203.29980469 764.400390625 1203.29980469 845.25 1203.29980469 c 0,26,27
 1036.34960938 1203.29980469 1036.34960938 1203.29980469 1157.09960938 1048.42480469 c 128,-1,28
 1277.84960938 893.549804688 1277.84960938 893.549804688 1277.84960938 593.25 c 0,0,1
905.099609375 597.450195312 m 0,29,30
 905.099609375 753.900390625 905.099609375 753.900390625 861 834.224609375 c 128,-1,31
 816.900390625 914.549804688 816.900390625 914.549804688 717.150390625 914.549804688 c 0,32,33
 610.049804688 914.549804688 610.049804688 914.549804688 567 843.150390625 c 128,-1,34
 523.950195312 771.75 523.950195312 771.75 520.799804688 627.900390625 c 2,35,-1
 520.799804688 595.349609375 l 2,36,37
 520.799804688 438.900390625 520.799804688 438.900390625 564.375 356.474609375 c 128,-1,38
 607.950195312 274.049804688 607.950195312 274.049804688 722.400390625 274.049804688 c 0,39,40
 787.5 274.049804688 787.5 274.049804688 827.400390625 311.325195312 c 128,-1,41
 867.299804688 348.599609375 867.299804688 348.599609375 886.200195312 420.525390625 c 128,-1,42
 905.099609375 492.450195312 905.099609375 492.450195312 905.099609375 597.450195312 c 0,29,30
EndSplineSet
Validated: 1
EndChar
StartChar: dcroat
Encoding: 273 273 211
Width: 1411
VWidth: 2150
GlyphClass: 2
Flags: W
AnchorPoint: "Anchor-1" 706.65 0 basechar 0
AnchorPoint: "Anchor-0" 706.65 1633.8 basechar 0
LayerCount: 2
Fore
SplineSet
517.650390625 -21 m 0,0,1
 331.799804688 -21 331.799804688 -21 212.625 123.900390625 c 128,-1,2
 93.4501953125 268.799804688 93.4501953125 268.799804688 93.4501953125 546 c 0,3,4
 93.4501953125 834.75 93.4501953125 834.75 218.400390625 976.5 c 128,-1,5
 343.349609375 1118.25 343.349609375 1118.25 540.75 1118.25 c 0,6,7
 623.700195312 1118.25 623.700195312 1118.25 685.650390625 1095.67480469 c 128,-1,8
 747.599609375 1073.09960938 747.599609375 1073.09960938 792.75 1034.25 c 128,-1,9
 837.900390625 995.400390625 837.900390625 995.400390625 869.400390625 946.049804688 c 1,10,-1
 878.849609375 946.049804688 l 1,11,12
 871.5 982.799804688 871.5 982.799804688 861 1057.875 c 128,-1,13
 850.5 1132.95019531 850.5 1132.95019531 850.5 1208.54980469 c 2,14,-1
 850.5 1241.09960938 l 1,15,-1
 563.849609375 1241.09960938 l 1,16,-1
 563.849609375 1472.09960938 l 1,17,-1
 850.5 1472.09960938 l 1,18,-1
 850.5 1633.79980469 l 1,19,-1
 1218 1633.79980469 l 1,20,-1
 1218 1472.09960938 l 1,21,-1
 1380.75 1472.09960938 l 1,22,-1
 1380.75 1241.09960938 l 1,23,-1
 1218 1241.09960938 l 1,24,-1
 1218 0 l 1,25,-1
 927.150390625 0 l 1,26,-1
 849.450195312 151.200195312 l 1,27,-1
 835.799804688 151.200195312 l 1,28,29
 805.349609375 103.950195312 805.349609375 103.950195312 761.775390625 64.5751953125 c 128,-1,30
 718.200195312 25.2001953125 718.200195312 25.2001953125 658.349609375 2.099609375 c 128,-1,31
 598.5 -21 598.5 -21 517.650390625 -21 c 0,0,1
677.25 268.799804688 m 0,32,33
 786.450195312 268.799804688 786.450195312 268.799804688 831.075195312 330.224609375 c 128,-1,34
 875.700195312 391.650390625 875.700195312 391.650390625 878.849609375 516.599609375 c 2,35,-1
 878.849609375 543.900390625 l 2,36,37
 878.849609375 679.349609375 878.849609375 679.349609375 829.5 750.75 c 128,-1,38
 780.150390625 822.150390625 780.150390625 822.150390625 670.950195312 822.150390625 c 0,39,40
 585.900390625 822.150390625 585.900390625 822.150390625 534.450195312 754.950195312 c 128,-1,41
 483 687.75 483 687.75 483 541.799804688 c 0,42,43
 483 418.950195312 483 418.950195312 531.825195312 343.875 c 128,-1,44
 580.650390625 268.799804688 580.650390625 268.799804688 677.25 268.799804688 c 0,32,33
EndSplineSet
Validated: 1
EndChar
StartChar: Lslash
Encoding: 321 321 258
Width: 1262
VWidth: 2150
GlyphClass: 2
Flags: W
AnchorPoint: "Anchor-1" 663.6 0 basechar 0
AnchorPoint: "Anchor-0" 359.1 1535.1 basechar 0
LayerCount: 2
Fore
SplineSet
208.950195312 0 m 1,0,-1
 208.950195312 511.349609375 l 1,1,-1
 118.650390625 459.900390625 l 1,2,-1
 -14.7001953125 693 l 1,3,-1
 208.950195312 827.400390625 l 1,4,-1
 208.950195312 1535.09960938 l 1,5,-1
 578.549804688 1535.09960938 l 1,6,-1
 578.549804688 1054.20019531 l 1,7,-1
 764.400390625 1168.65039062 l 1,8,-1
 904.049804688 937.650390625 l 1,9,-1
 578.549804688 738.150390625 l 1,10,-1
 578.549804688 302.400390625 l 1,11,-1
 1185.45019531 302.400390625 l 1,12,-1
 1185.45019531 0 l 1,13,-1
 208.950195312 0 l 1,0,-1
EndSplineSet
Validated: 1
EndChar
StartChar: OE
Encoding: 338 338 275
Width: 2075
VWidth: 2150
GlyphClass: 2
Flags: W
AnchorPoint: "Anchor-1" 1038.45 0 basechar 0
AnchorPoint: "Anchor-0" 1038.45 1535.1 basechar 0
LayerCount: 2
Fore
SplineSet
814.799804688 1559.25 m 0,0,1
 872.549804688 1559.25 872.549804688 1559.25 946.049804688 1552.95019531 c 128,-1,2
 1019.54980469 1546.65039062 1019.54980469 1546.65039062 1065.75 1535.09960938 c 1,3,-1
 1960.34960938 1535.09960938 l 1,4,-1
 1960.34960938 1235.84960938 l 1,5,-1
 1416.45019531 1235.84960938 l 1,6,-1
 1416.45019531 946.049804688 l 1,7,-1
 1921.5 946.049804688 l 1,8,-1
 1921.5 646.799804688 l 1,9,-1
 1416.45019531 646.799804688 l 1,10,-1
 1416.45019531 303.450195312 l 1,11,-1
 1960.34960938 303.450195312 l 1,12,-1
 1960.34960938 0 l 1,13,-1
 1059.45019531 0 l 1,14,15
 1013.25 -9.4501953125 1013.25 -9.4501953125 940.799804688 -15.224609375 c 128,-1,16
 868.349609375 -21 868.349609375 -21 812.700195312 -21 c 0,17,18
 579.599609375 -21 579.599609375 -21 425.25 77.7001953125 c 128,-1,19
 270.900390625 176.400390625 270.900390625 176.400390625 194.25 354.900390625 c 128,-1,20
 117.599609375 533.400390625 117.599609375 533.400390625 117.599609375 771.75 c 256,21,22
 117.599609375 1010.09960938 117.599609375 1010.09960938 193.200195312 1187.02539062 c 128,-1,23
 268.799804688 1363.95019531 268.799804688 1363.95019531 423.674804688 1461.59960938 c 128,-1,24
 578.549804688 1559.25 578.549804688 1559.25 814.799804688 1559.25 c 0,0,1
815.849609375 1253.70019531 m 0,25,26
 736.049804688 1253.70019531 736.049804688 1253.70019531 676.724609375 1220.625 c 128,-1,27
 617.400390625 1187.54980469 617.400390625 1187.54980469 579.075195312 1124.54980469 c 128,-1,28
 540.75 1061.54980469 540.75 1061.54980469 521.849609375 971.775390625 c 128,-1,29
 502.950195312 882 502.950195312 882 502.950195312 769.650390625 c 0,30,31
 502.950195312 620.549804688 502.950195312 620.549804688 536.549804688 512.400390625 c 128,-1,32
 570.150390625 404.25 570.150390625 404.25 638.924804688 346.5 c 128,-1,33
 707.700195312 288.75 707.700195312 288.75 813.75 288.75 c 0,34,35
 878.849609375 288.75 878.849609375 288.75 942.900390625 299.775390625 c 128,-1,36
 1006.95019531 310.799804688 1006.95019531 310.799804688 1045.79980469 331.799804688 c 1,37,-1
 1045.79980469 1206.45019531 l 1,38,39
 1009.04980469 1229.54980469 1009.04980469 1229.54980469 945 1241.625 c 128,-1,40
 880.950195312 1253.70019531 880.950195312 1253.70019531 815.849609375 1253.70019531 c 0,25,26
EndSplineSet
Validated: 1
EndChar
StartChar: tbar
Encoding: 359 359 296
Width: 982
VWidth: 2150
GlyphClass: 2
Flags: W
AnchorPoint: "Anchor-1" 543.9 0 basechar 0
AnchorPoint: "Anchor-0" 449.4 1425.9 basechar 0
LayerCount: 2
Fore
SplineSet
73.5 494.549804688 m 1,0,-1
 73.5 726.599609375 l 1,1,-1
 842.099609375 726.599609375 l 1,2,-1
 842.099609375 494.549804688 l 1,3,-1
 73.5 494.549804688 l 1,0,-1
694.049804688 268.799804688 m 0,4,5
 747.599609375 268.799804688 747.599609375 268.799804688 795.900390625 279.825195312 c 128,-1,6
 844.200195312 290.849609375 844.200195312 290.849609375 893.549804688 307.650390625 c 1,7,-1
 893.549804688 38.849609375 l 1,8,9
 834.75 12.599609375 834.75 12.599609375 759.150390625 -4.2001953125 c 128,-1,10
 683.549804688 -21 683.549804688 -21 579.599609375 -21 c 0,11,12
 469.349609375 -21 469.349609375 -21 383.775390625 14.1748046875 c 128,-1,13
 298.200195312 49.349609375 298.200195312 49.349609375 249.900390625 136.5 c 128,-1,14
 201.599609375 223.650390625 201.599609375 223.650390625 201.599609375 380.099609375 c 2,15,-1
 201.599609375 908.25 l 1,16,-1
 52.5 908.25 l 1,17,-1
 52.5 1059.45019531 l 1,18,-1
 232.049804688 1177.04980469 l 1,19,-1
 331.799804688 1425.90039062 l 1,20,-1
 568.049804688 1425.90039062 l 1,21,-1
 568.049804688 1182.29980469 l 1,22,-1
 878.849609375 1182.29980469 l 1,23,-1
 878.849609375 908.25 l 1,24,-1
 568.049804688 908.25 l 1,25,-1
 568.049804688 393.75 l 2,26,27
 568.049804688 330.75 568.049804688 330.75 602.174804688 299.775390625 c 128,-1,28
 636.299804688 268.799804688 636.299804688 268.799804688 694.049804688 268.799804688 c 0,4,5
EndSplineSet
Validated: 5
EndChar
StartChar: longs
Encoding: 383 383 320
Width: 845
VWidth: 2150
GlyphClass: 2
Flags: W
AnchorPoint: "Anchor-1" 424.2 0 basechar 0
AnchorPoint: "Anchor-0" 498.75 1645.35 basechar 0
LayerCount: 2
Fore
SplineSet
644.700195312 1371.29980469 m 0,0,1
 573.299804688 1371.29980469 573.299804688 1371.29980469 547.049804688 1331.40039062 c 128,-1,2
 520.799804688 1291.5 520.799804688 1291.5 520.799804688 1221.15039062 c 2,3,-1
 520.799804688 0 l 1,4,-1
 155.400390625 0 l 1,5,-1
 155.400390625 1231.65039062 l 2,6,7
 155.400390625 1399.65039062 155.400390625 1399.65039062 207.375 1488.90039062 c 128,-1,8
 259.349609375 1578.15039062 259.349609375 1578.15039062 354.900390625 1611.75 c 128,-1,9
 450.450195312 1645.34960938 450.450195312 1645.34960938 579.599609375 1645.34960938 c 0,10,11
 686.700195312 1645.34960938 686.700195312 1645.34960938 763.349609375 1629.59960938 c 128,-1,12
 840 1613.84960938 840 1613.84960938 891.450195312 1592.84960938 c 1,13,-1
 814.799804688 1338.75 l 1,14,15
 777 1350.29980469 777 1350.29980469 736.575195312 1360.79980469 c 128,-1,16
 696.150390625 1371.29980469 696.150390625 1371.29980469 644.700195312 1371.29980469 c 0,0,1
EndSplineSet
Validated: 1
EndChar
StartChar: Ohorn
Encoding: 416 416 596
Width: 1796
VWidth: 2150
GlyphClass: 2
Flags: W
AnchorPoint: "Anchor-1" 855.75 0 basechar 0
AnchorPoint: "Anchor-0" 859.95 1535.1 basechar 0
LayerCount: 2
Fore
SplineSet
1596 769.650390625 m 0,0,1
 1596 592.200195312 1596 592.200195312 1552.42480469 446.775390625 c 128,-1,2
 1508.84960938 301.349609375 1508.84960938 301.349609375 1418.54980469 196.349609375 c 128,-1,3
 1328.25 91.349609375 1328.25 91.349609375 1188.59960938 35.1748046875 c 128,-1,4
 1048.95019531 -21 1048.95019531 -21 855.75 -21 c 0,5,6
 665.700195312 -21 665.700195312 -21 526.575195312 35.1748046875 c 128,-1,7
 387.450195312 91.349609375 387.450195312 91.349609375 296.625 196.349609375 c 128,-1,8
 205.799804688 301.349609375 205.799804688 301.349609375 161.700195312 447.299804688 c 128,-1,9
 117.599609375 593.25 117.599609375 593.25 117.599609375 771.75 c 0,10,11
 117.599609375 1011.15039062 117.599609375 1011.15039062 196.875 1188.07519531 c 128,-1,12
 276.150390625 1365 276.150390625 1365 441.525390625 1462.125 c 128,-1,13
 606.900390625 1559.25 606.900390625 1559.25 861 1559.25 c 0,14,15
 1050 1559.25 1050 1559.25 1189.65039062 1505.17480469 c 128,-1,16
 1329.29980469 1451.09960938 1329.29980469 1451.09960938 1418.54980469 1350.29980469 c 1,17,18
 1443.75 1378.65039062 1443.75 1378.65039062 1462.125 1419.59960938 c 128,-1,19
 1480.5 1460.54980469 1480.5 1460.54980469 1491 1514.09960938 c 128,-1,20
 1501.5 1567.65039062 1501.5 1567.65039062 1501.5 1633.79980469 c 1,21,-1
 1856.40039062 1633.79980469 l 1,22,-1
 1871.09960938 1610.70019531 l 1,23,24
 1831.20019531 1418.54980469 1831.20019531 1418.54980469 1755.07519531 1308.29980469 c 128,-1,25
 1678.95019531 1198.04980469 1678.95019531 1198.04980469 1543.5 1141.34960938 c 1,26,27
 1569.75 1059.45019531 1569.75 1059.45019531 1582.875 967.049804688 c 128,-1,28
 1596 874.650390625 1596 874.650390625 1596 769.650390625 c 0,0,1
506.099609375 769.650390625 m 0,29,30
 506.099609375 620.549804688 506.099609375 620.549804688 542.325195312 512.400390625 c 128,-1,31
 578.549804688 404.25 578.549804688 404.25 655.724609375 346.5 c 128,-1,32
 732.900390625 288.75 732.900390625 288.75 855.75 288.75 c 0,33,34
 981.75 288.75 981.75 288.75 1058.92480469 346.5 c 128,-1,35
 1136.09960938 404.25 1136.09960938 404.25 1171.27539062 512.400390625 c 128,-1,36
 1206.45019531 620.549804688 1206.45019531 620.549804688 1206.45019531 769.650390625 c 0,37,38
 1206.45019531 995.400390625 1206.45019531 995.400390625 1126.125 1124.54980469 c 128,-1,39
 1045.79980469 1253.70019531 1045.79980469 1253.70019531 857.849609375 1253.70019531 c 0,40,41
 733.950195312 1253.70019531 733.950195312 1253.70019531 656.25 1195.42480469 c 128,-1,42
 578.549804688 1137.15039062 578.549804688 1137.15039062 542.325195312 1029 c 128,-1,43
 506.099609375 920.849609375 506.099609375 920.849609375 506.099609375 769.650390625 c 0,29,30
EndSplineSet
Validated: 1
EndChar
StartChar: ohorn
Encoding: 417 417 597
Width: 1506
VWidth: 2150
GlyphClass: 2
Flags: W
AnchorPoint: "Anchor-1" 673.05 0 basechar 0
AnchorPoint: "Anchor-0" 678.3 1182.3 basechar 0
LayerCount: 2
Fore
SplineSet
1256.84960938 593.25 m 0,0,1
 1256.84960938 396.900390625 1256.84960938 396.900390625 1185.97460938 259.349609375 c 128,-1,2
 1115.09960938 121.799804688 1115.09960938 121.799804688 983.849609375 50.400390625 c 128,-1,3
 852.599609375 -21 852.599609375 -21 672 -21 c 0,4,5
 504 -21 504 -21 373.275390625 50.400390625 c 128,-1,6
 242.549804688 121.799804688 242.549804688 121.799804688 168 259.349609375 c 128,-1,7
 93.4501953125 396.900390625 93.4501953125 396.900390625 93.4501953125 593.25 c 0,8,9
 93.4501953125 887.25 93.4501953125 887.25 249.900390625 1045.27539062 c 128,-1,10
 406.349609375 1203.29980469 406.349609375 1203.29980469 678.299804688 1203.29980469 c 0,11,12
 798 1203.29980469 798 1203.29980469 906.674804688 1167.59960938 c 128,-1,13
 1015.34960938 1131.90039062 1015.34960938 1131.90039062 1090.95019531 1060.5 c 1,14,15
 1136.09960938 1077.29980469 1136.09960938 1077.29980469 1165.5 1118.77539062 c 128,-1,16
 1194.90039062 1160.25 1194.90039062 1160.25 1209.07519531 1221.15039062 c 128,-1,17
 1223.25 1282.04980469 1223.25 1282.04980469 1223.25 1357.65039062 c 1,18,-1
 1579.20019531 1357.65039062 l 1,19,-1
 1594.95019531 1334.54980469 l 1,20,21
 1575 1228.5 1575 1228.5 1537.20019531 1136.09960938 c 128,-1,22
 1499.40039062 1043.70019531 1499.40039062 1043.70019531 1423.27539062 975.450195312 c 128,-1,23
 1347.15039062 907.200195312 1347.15039062 907.200195312 1209.59960938 871.5 c 1,24,25
 1232.70019531 810.599609375 1232.70019531 810.599609375 1244.77539062 741.825195312 c 128,-1,26
 1256.84960938 673.049804688 1256.84960938 673.049804688 1256.84960938 593.25 c 0,0,1
466.200195312 593.25 m 0,27,28
 466.200195312 487.200195312 466.200195312 487.200195312 487.724609375 415.275390625 c 128,-1,29
 509.25 343.349609375 509.25 343.349609375 555.450195312 307.125 c 128,-1,30
 601.650390625 270.900390625 601.650390625 270.900390625 676.200195312 270.900390625 c 0,31,32
 749.700195312 270.900390625 749.700195312 270.900390625 795.375 307.125 c 128,-1,33
 841.049804688 343.349609375 841.049804688 343.349609375 862.575195312 415.275390625 c 128,-1,34
 884.099609375 487.200195312 884.099609375 487.200195312 884.099609375 593.25 c 0,35,36
 884.099609375 700.349609375 884.099609375 700.349609375 862.575195312 770.700195312 c 128,-1,37
 841.049804688 841.049804688 841.049804688 841.049804688 795.375 876.224609375 c 128,-1,38
 749.700195312 911.400390625 749.700195312 911.400390625 674.099609375 911.400390625 c 0,39,40
 563.849609375 911.400390625 563.849609375 911.400390625 515.025390625 832.650390625 c 128,-1,41
 466.200195312 753.900390625 466.200195312 753.900390625 466.200195312 593.25 c 0,27,28
EndSplineSet
Validated: 1
EndChar
StartChar: uni01CD
Encoding: 461 461 1140
Width: 1351
GlyphClass: 1
Flags: W
LayerCount: 2
Fore
SplineSet
-16 0 m 1,0,-1
 457 1526 l 1,1,-1
 895 1526 l 1,2,-1
 1368 0 l 1,3,-1
 983 0 l 1,4,-1
 793 762 l 2,5,6
 762 877 762 877 732 1006 c 128,-1,7
 702 1135 702 1135 672 1251 c 1,8,-1
 664 1251 l 1,9,10
 637 1132 637 1132 606 1004.5 c 128,-1,11
 575 877 575 877 547 762 c 2,12,-1
 356 0 l 1,13,-1
 -16 0 l 1,0,-1
305 350 m 1,14,-1
 305 633 l 1,15,-1
 1042 633 l 1,16,-1
 1042 350 l 1,17,-1
 305 350 l 1,14,-1
473 1642 m 1,18,-1
 268 1903 l 1,19,-1
 424 1997 l 1,20,-1
 666 1804 l 1,21,-1
 676 1804 l 1,22,-1
 918 1997 l 1,23,-1
 1075 1903 l 1,24,-1
 870 1642 l 1,25,-1
 473 1642 l 1,18,-1
EndSplineSet
Validated: 5
EndChar
StartChar: uni01DB
Encoding: 475 475 1154
Width: 1562
GlyphClass: 1
Flags: W
LayerCount: 2
Fore
SplineSet
786 -29 m 0,0,1
 632 -29 632 -29 516.5 15 c 128,-1,2
 401 59 401 59 323.5 150.5 c 128,-1,3
 246 242 246 242 207 383 c 128,-1,4
 168 524 168 524 168 717 c 2,5,-1
 168 1526 l 1,6,-1
 532 1526 l 1,7,-1
 532 678 l 2,8,9
 532 535 532 535 561 448.5 c 128,-1,10
 590 362 590 362 646 324.5 c 128,-1,11
 702 287 702 287 786 287 c 256,12,13
 870 287 870 287 927.5 324.5 c 128,-1,14
 985 362 985 362 1014.5 448.5 c 128,-1,15
 1044 535 1044 535 1044 678 c 2,16,-1
 1044 1526 l 1,17,-1
 1397 1526 l 1,18,-1
 1397 717 l 2,19,20
 1397 524 1397 524 1359 383 c 128,-1,21
 1321 242 1321 242 1244 150.5 c 128,-1,22
 1167 59 1167 59 1052.5 15 c 128,-1,23
 938 -29 938 -29 786 -29 c 0,0,1
518 1634 m 256,24,25
 452 1634 452 1634 410.5 1678 c 128,-1,26
 369 1722 369 1722 369 1784 c 0,27,28
 369 1850 369 1850 411 1892.5 c 128,-1,29
 453 1935 453 1935 518 1935 c 256,30,31
 584 1935 584 1935 627 1892 c 128,-1,32
 670 1849 670 1849 670 1784 c 0,33,34
 670 1723 670 1723 627 1678.5 c 128,-1,35
 584 1634 584 1634 518 1634 c 256,24,25
760 1933 m 1,36,-1
 465 2236 l 1,37,-1
 692 2376 l 1,38,-1
 918 2030 l 1,39,-1
 760 1933 l 1,36,-1
1044 1634 m 256,40,41
 978 1634 978 1634 935.5 1678 c 128,-1,42
 893 1722 893 1722 893 1784 c 0,43,44
 893 1850 893 1850 936 1892.5 c 128,-1,45
 979 1935 979 1935 1044 1935 c 256,46,47
 1110 1935 1110 1935 1152 1892 c 128,-1,48
 1194 1849 1194 1849 1194 1784 c 0,49,50
 1194 1723 1194 1723 1152 1678.5 c 128,-1,51
 1110 1634 1110 1634 1044 1634 c 256,40,41
EndSplineSet
Validated: 1
EndChar
StartChar: uni0237
Encoding: 567 567 944
Width: 677
VWidth: 2150
GlyphClass: 2
Flags: W
AnchorPoint: "Anchor-1" 92.4004 -516.6 basechar 0
AnchorPoint: "Anchor-0" 339.15 1182.3 basechar 0
LayerCount: 2
Fore
SplineSet
92.400390625 -516.599609375 m 0,0,1
 40.9501953125 -516.599609375 40.9501953125 -516.599609375 -21 -508.724609375 c 128,-1,2
 -82.9501953125 -500.849609375 -82.9501953125 -500.849609375 -122.849609375 -490.349609375 c 1,3,-1
 -122.849609375 -203.700195312 l 1,4,5
 -87.150390625 -214.200195312 -87.150390625 -214.200195312 -55.650390625 -218.924804688 c 128,-1,6
 -24.150390625 -223.650390625 -24.150390625 -223.650390625 14.7001953125 -223.650390625 c 0,7,8
 72.4501953125 -223.650390625 72.4501953125 -223.650390625 113.924804688 -187.950195312 c 128,-1,9
 155.400390625 -152.25 155.400390625 -152.25 155.400390625 -45.150390625 c 2,10,-1
 155.400390625 1182.29980469 l 1,11,-1
 520.799804688 1182.29980469 l 1,12,-1
 520.799804688 -111.299804688 l 2,13,14
 520.799804688 -218.400390625 520.799804688 -218.400390625 479.325195312 -310.799804688 c 128,-1,15
 437.849609375 -403.200195312 437.849609375 -403.200195312 343.875 -459.900390625 c 128,-1,16
 249.900390625 -516.599609375 249.900390625 -516.599609375 92.400390625 -516.599609375 c 0,0,1
EndSplineSet
Validated: 1
EndChar
StartChar: uni0259
Encoding: 601 601 883
Width: 1299
VWidth: 2150
GlyphClass: 2
Flags: W
AnchorPoint: "Anchor-1" 651 0 basechar 0
AnchorPoint: "Anchor-0" 643.65 1182.3 basechar 0
LayerCount: 2
Fore
SplineSet
593.25 1203.29980469 m 0,0,1
 770.700195312 1203.29980469 770.700195312 1203.29980469 909.825195312 1138.72460938 c 128,-1,2
 1048.95019531 1074.15039062 1048.95019531 1074.15039062 1127.70019531 940.275390625 c 128,-1,3
 1206.45019531 806.400390625 1206.45019531 806.400390625 1206.45019531 598.5 c 0,4,5
 1206.45019531 389.549804688 1206.45019531 389.549804688 1134.52539062 252 c 128,-1,6
 1062.59960938 114.450195312 1062.59960938 114.450195312 934.5 46.724609375 c 128,-1,7
 806.400390625 -21 806.400390625 -21 636.299804688 -21 c 0,8,9
 468.299804688 -21 468.299804688 -21 345.974609375 40.4248046875 c 128,-1,10
 223.650390625 101.849609375 223.650390625 101.849609375 157.5 221.549804688 c 128,-1,11
 91.349609375 341.25 91.349609375 341.25 91.349609375 517.650390625 c 2,12,-1
 91.349609375 686.700195312 l 1,13,-1
 836.849609375 686.700195312 l 1,14,15
 832.650390625 801.150390625 832.650390625 801.150390625 761.775390625 869.400390625 c 128,-1,16
 690.900390625 937.650390625 690.900390625 937.650390625 560.700195312 937.650390625 c 0,17,18
 448.349609375 937.650390625 448.349609375 937.650390625 355.424804688 915.599609375 c 128,-1,19
 262.5 893.549804688 262.5 893.549804688 163.799804688 846.299804688 c 1,20,-1
 163.799804688 1117.20019531 l 1,21,22
 249.900390625 1157.09960938 249.900390625 1157.09960938 348.599609375 1180.20019531 c 128,-1,23
 447.299804688 1203.29980469 447.299804688 1203.29980469 593.25 1203.29980469 c 0,0,1
829.5 450.450195312 m 1,24,-1
 428.400390625 450.450195312 l 1,25,26
 429.450195312 389.549804688 429.450195312 389.549804688 451.5 339.674804688 c 128,-1,27
 473.549804688 289.799804688 473.549804688 289.799804688 517.650390625 261.450195312 c 128,-1,28
 561.75 233.099609375 561.75 233.099609375 626.849609375 233.099609375 c 0,29,30
 709.799804688 233.099609375 709.799804688 233.099609375 765.450195312 285.599609375 c 128,-1,31
 821.099609375 338.099609375 821.099609375 338.099609375 829.5 450.450195312 c 1,24,-1
EndSplineSet
Validated: 1
EndChar
StartChar: uni0261
Encoding: 609 609 1159
Width: 1347
GlyphClass: 1
Flags: W
LayerCount: 2
Fore
SplineSet
600 -469 m 0,0,1
 506 -469 506 -469 385 -437.5 c 128,-1,2
 264 -406 264 -406 162 -340 c 1,3,-1
 281 -100 l 1,4,5
 363 -145 363 -145 446.5 -164.5 c 128,-1,6
 530 -184 530 -184 600 -184 c 0,7,8
 723 -184 723 -184 777 -128 c 128,-1,9
 831 -72 831 -72 838 10 c 2,10,-1
 846 145 l 1,11,12
 789 94 789 94 716 63.5 c 128,-1,13
 643 33 643 33 565 33 c 0,14,15
 420 33 420 33 312.5 106.5 c 128,-1,16
 205 180 205 180 146.5 309 c 128,-1,17
 88 438 88 438 88 604 c 0,18,19
 88 737 88 737 130 845.5 c 128,-1,20
 172 954 172 954 241.5 1032 c 128,-1,21
 311 1110 311 1110 399 1152 c 128,-1,22
 487 1194 487 1194 580 1194 c 0,23,24
 666 1194 666 1194 737.5 1162 c 128,-1,25
 809 1130 809 1130 872 1059 c 1,26,-1
 883 1059 l 1,27,-1
 909 1165 l 1,28,-1
 1202 1165 l 1,29,-1
 1202 41 l 2,30,31
 1202 -207 1202 -207 1045.5 -338 c 128,-1,32
 889 -469 889 -469 600 -469 c 0,0,1
662 326 m 0,33,34
 715 326 715 326 756 348.5 c 128,-1,35
 797 371 797 371 838 428 c 1,36,-1
 838 827 l 1,37,38
 797 866 797 866 749.5 881.5 c 128,-1,39
 702 897 702 897 655 897 c 0,40,41
 604 897 604 897 559 864 c 128,-1,42
 514 831 514 831 486.5 768 c 128,-1,43
 459 705 459 705 459 608 c 0,44,45
 459 473 459 473 513.5 399.5 c 128,-1,46
 568 326 568 326 662 326 c 0,33,34
EndSplineSet
Validated: 1
EndChar
StartChar: circumflex
Encoding: 710 710 330
Width: 1104
VWidth: 2150
GlyphClass: 1
Flags: W
LayerCount: 2
Fore
SplineSet
749.700195312 1647.45019531 m 1,0,1
 781.200195312 1599.15039062 781.200195312 1599.15039062 830.549804688 1539.82519531 c 128,-1,2
 879.900390625 1480.5 879.900390625 1480.5 930.825195312 1425.375 c 128,-1,3
 981.75 1370.25 981.75 1370.25 1018.5 1332.45019531 c 1,4,-1
 1018.5 1303.04980469 l 1,5,-1
 779.099609375 1303.04980469 l 1,6,7
 722.400390625 1336.65039062 722.400390625 1336.65039062 664.650390625 1379.17480469 c 128,-1,8
 606.900390625 1421.70019531 606.900390625 1421.70019531 551.25 1474.20019531 c 1,9,10
 494.549804688 1421.70019531 494.549804688 1421.70019531 439.424804688 1380.22460938 c 128,-1,11
 384.299804688 1338.75 384.299804688 1338.75 328.650390625 1303.04980469 c 1,12,-1
 86.099609375 1303.04980469 l 1,13,-1
 86.099609375 1332.45019531 l 1,14,15
 127.049804688 1372.34960938 127.049804688 1372.34960938 177.974609375 1426.95019531 c 128,-1,16
 228.900390625 1481.54980469 228.900390625 1481.54980469 277.200195312 1540.34960938 c 128,-1,17
 325.5 1599.15039062 325.5 1599.15039062 355.950195312 1647.45019531 c 1,18,-1
 749.700195312 1647.45019531 l 1,0,1
EndSplineSet
Validated: 1
EndChar
StartChar: macron
Encoding: 713 713 332
Width: 910
VWidth: 2150
GlyphClass: 1
Flags: W
LayerCount: 2
Fore
SplineSet
824.25 1538.25 m 1,0,-1
 824.25 1303.04980469 l 1,1,-1
 86.099609375 1303.04980469 l 1,2,-1
 86.099609375 1538.25 l 1,3,-1
 824.25 1538.25 l 1,0,-1
EndSplineSet
Validated: 1
EndChar
StartChar: uni02CA
Encoding: 714 714 1160
Width: 1228
GlyphClass: 1
Flags: W
LayerCount: 2
Fore
SplineSet
1053 1559 m 1,0,-1
 887 1749 l 1,1,-1
 176 1133 l 1,2,-1
 420 877 l 1,3,-1
 1053 1559 l 1,0,-1
EndSplineSet
Validated: 9
Substitution2: "NotoSansJP-Black-'vrt2' Vertical Rotation & Alternates lookup 16 subtable" acutecomb
Substitution2: "NotoSansJP-Black-'ruby' Ruby Notational Forms lookup 9 subtable" acutecomb
Substitution2: "NotoSansJP-Black-'aalt' Access All Alternates lookup 0 subtable" acutecomb
EndChar
StartChar: tilde
Encoding: 732 732 337
Width: 1050
VWidth: 2150
GlyphClass: 1
Flags: W
LayerCount: 2
Fore
SplineSet
86.099609375 1299.90039062 m 1,0,1
 92.400390625 1391.25 92.400390625 1391.25 114.974609375 1456.34960938 c 128,-1,2
 137.549804688 1521.45019531 137.549804688 1521.45019531 173.25 1562.40039062 c 128,-1,3
 208.950195312 1603.34960938 208.950195312 1603.34960938 256.724609375 1622.77539062 c 128,-1,4
 304.5 1642.20019531 304.5 1642.20019531 361.200195312 1642.20019531 c 0,5,6
 403.200195312 1642.20019531 403.200195312 1642.20019531 446.25 1626.45019531 c 128,-1,7
 489.299804688 1610.70019531 489.299804688 1610.70019531 532.875 1589.70019531 c 128,-1,8
 576.450195312 1568.70019531 576.450195312 1568.70019531 618.450195312 1552.95019531 c 128,-1,9
 660.450195312 1537.20019531 660.450195312 1537.20019531 699.299804688 1537.20019531 c 0,10,11
 724.5 1537.20019531 724.5 1537.20019531 750.75 1559.77539062 c 128,-1,12
 777 1582.34960938 777 1582.34960938 789.599609375 1644.29980469 c 1,13,-1
 963.900390625 1644.29980469 l 1,14,15
 950.25 1464.75 950.25 1464.75 874.125 1383.375 c 128,-1,16
 798 1302 798 1302 691.950195312 1302 c 0,17,18
 646.799804688 1302 646.799804688 1302 602.174804688 1318.27539062 c 128,-1,19
 557.549804688 1334.54980469 557.549804688 1334.54980469 513.974609375 1355.02539062 c 128,-1,20
 470.400390625 1375.5 470.400390625 1375.5 429.450195312 1391.77539062 c 128,-1,21
 388.5 1408.04980469 388.5 1408.04980469 349.650390625 1408.04980469 c 0,22,23
 323.400390625 1408.04980469 323.400390625 1408.04980469 298.200195312 1385.47460938 c 128,-1,24
 273 1362.90039062 273 1362.90039062 259.349609375 1299.90039062 c 1,25,-1
 86.099609375 1299.90039062 l 1,0,1
EndSplineSet
Validated: 1
EndChar
StartChar: uni02EA
Encoding: 746 746 1162
Width: 1228
GlyphClass: 1
Flags: W
AnchorPoint: "Anchor-2" 0 0 mark 0
AnchorPoint: "Anchor-1" 0 0 mark 0
LayerCount: 2
Fore
SplineSet
465 983 m 1,0,-1
 1020 983 l 1,1,-1
 1020 680 l 1,2,-1
 465 680 l 1,3,-1
 465 983 l 1,0,-1
270 1729 m 1,4,-1
 582 1729 l 1,5,-1
 582 678 l 1,6,-1
 270 678 l 1,7,-1
 270 1729 l 1,4,-1
EndSplineSet
Validated: 5
Substitution2: "NotoSansJP-Black-'vrt2' Vertical Rotation & Alternates lookup 16 subtable" uni02EA
Substitution2: "NotoSansJP-Black-'ruby' Ruby Notational Forms lookup 9 subtable" uni02EA
Substitution2: "NotoSansJP-Black-'aalt' Access All Alternates lookup 0 subtable" uni02EA
EndChar
StartChar: uni02EB
Encoding: 747 747 1163
Width: 1228
GlyphClass: 1
Flags: W
AnchorPoint: "Anchor-2" 0 0 mark 0
AnchorPoint: "Anchor-1" 0 0 mark 0
LayerCount: 2
Fore
SplineSet
465 1393 m 1,0,-1
 1020 1393 l 1,1,-1
 1020 1090 l 1,2,-1
 465 1090 l 1,3,-1
 465 1393 l 1,0,-1
270 1729 m 1,4,-1
 582 1729 l 1,5,-1
 582 678 l 1,6,-1
 270 678 l 1,7,-1
 270 1729 l 1,4,-1
EndSplineSet
Validated: 5
Substitution2: "NotoSansJP-Black-'vrt2' Vertical Rotation & Alternates lookup 16 subtable" uni02EB
Substitution2: "NotoSansJP-Black-'ruby' Ruby Notational Forms lookup 9 subtable" uni02EB
Substitution2: "NotoSansJP-Black-'aalt' Access All Alternates lookup 0 subtable" uni02EB
EndChar
StartChar: uni02F3
Encoding: 755 755 595
Width: 709
VWidth: 2150
GlyphClass: 1
Flags: W
LayerCount: 2
Fore
SplineSet
348.599609375 -630 m 0,0,1
 228.900390625 -630 228.900390625 -630 154.349609375 -561.224609375 c 128,-1,2
 79.7998046875 -492.450195312 79.7998046875 -492.450195312 79.7998046875 -372.75 c 0,3,4
 79.7998046875 -254.099609375 79.7998046875 -254.099609375 154.349609375 -184.799804688 c 128,-1,5
 228.900390625 -115.5 228.900390625 -115.5 348.599609375 -115.5 c 0,6,7
 463.049804688 -115.5 463.049804688 -115.5 543.375 -184.275390625 c 128,-1,8
 623.700195312 -253.049804688 623.700195312 -253.049804688 623.700195312 -370.650390625 c 0,9,10
 623.700195312 -491.400390625 623.700195312 -491.400390625 544.424804688 -560.700195312 c 128,-1,11
 465.150390625 -630 465.150390625 -630 348.599609375 -630 c 0,0,1
349.650390625 -467.25 m 0,12,13
 389.549804688 -467.25 389.549804688 -467.25 416.849609375 -441.525390625 c 128,-1,14
 444.150390625 -415.799804688 444.150390625 -415.799804688 444.150390625 -372.75 c 256,15,16
 444.150390625 -329.700195312 444.150390625 -329.700195312 417.375 -303.974609375 c 128,-1,17
 390.599609375 -278.25 390.599609375 -278.25 349.650390625 -278.25 c 0,18,19
 309.75 -278.25 309.75 -278.25 282.974609375 -303.974609375 c 128,-1,20
 256.200195312 -329.700195312 256.200195312 -329.700195312 256.200195312 -372.75 c 256,21,22
 256.200195312 -415.799804688 256.200195312 -415.799804688 279.299804688 -441.525390625 c 128,-1,23
 302.400390625 -467.25 302.400390625 -467.25 349.650390625 -467.25 c 0,12,13
EndSplineSet
Validated: 1
EndChar
StartChar: uni030F
Encoding: 783 783 1036
Width: 0
VWidth: 2150
GlyphClass: 4
Flags: W
AnchorPoint: "Anchor-8" -664.65 1647.45 basemark 0
AnchorPoint: "Anchor-8" -664.65 1182.3 mark 0
AnchorPoint: "Anchor-5" -664.65 1182.3 mark 0
AnchorPoint: "Anchor-0" -664.65 1182.3 mark 0
LayerCount: 2
Fore
SplineSet
-497.700195312 1647.45019531 m 1,0,1
 -474.599609375 1599.15039062 -474.599609375 1599.15039062 -443.625 1541.92480469 c 128,-1,2
 -412.650390625 1484.70019531 -412.650390625 1484.70019531 -378.525390625 1429.04980469 c 128,-1,3
 -344.400390625 1373.40039062 -344.400390625 1373.40039062 -315 1332.45019531 c 1,4,-1
 -315 1303.04980469 l 1,5,-1
 -506.099609375 1303.04980469 l 1,6,7
 -541.799804688 1332.45019531 -541.799804688 1332.45019531 -591.150390625 1375.5 c 128,-1,8
 -640.5 1418.54980469 -640.5 1418.54980469 -689.849609375 1465.79980469 c 128,-1,9
 -739.200195312 1513.04980469 -739.200195312 1513.04980469 -778.575195312 1555.04980469 c 128,-1,10
 -817.950195312 1597.04980469 -817.950195312 1597.04980469 -834.75 1625.40039062 c 1,11,-1
 -834.75 1647.45019531 l 1,12,-1
 -497.700195312 1647.45019531 l 1,0,1
-927.150390625 1647.45019531 m 1,13,14
 -904.049804688 1599.15039062 -904.049804688 1599.15039062 -873.599609375 1541.92480469 c 128,-1,15
 -843.150390625 1484.70019531 -843.150390625 1484.70019531 -809.549804688 1429.04980469 c 128,-1,16
 -775.950195312 1373.40039062 -775.950195312 1373.40039062 -745.5 1332.45019531 c 1,17,-1
 -745.5 1303.04980469 l 1,18,-1
 -937.650390625 1303.04980469 l 1,19,20
 -973.349609375 1332.45019531 -973.349609375 1332.45019531 -1022.17480469 1375.5 c 128,-1,21
 -1071 1418.54980469 -1071 1418.54980469 -1120.34960938 1465.79980469 c 128,-1,22
 -1169.70019531 1513.04980469 -1169.70019531 1513.04980469 -1209.07519531 1555.04980469 c 128,-1,23
 -1248.45019531 1597.04980469 -1248.45019531 1597.04980469 -1265.25 1625.40039062 c 1,24,-1
 -1265.25 1647.45019531 l 1,25,-1
 -927.150390625 1647.45019531 l 1,13,14
EndSplineSet
Validated: 1
EndChar
StartChar: dotbelowcomb
Encoding: 803 803 1038
Width: 0
VWidth: 2150
GlyphClass: 4
Flags: W
AnchorPoint: "Anchor-7" -724.5 -476.7 basemark 0
AnchorPoint: "Anchor-7" -725.55 0 mark 0
AnchorPoint: "Anchor-6" -725.55 0 mark 0
AnchorPoint: "Anchor-1" -725.55 0 mark 0
LayerCount: 2
Fore
SplineSet
-728.700195312 -476.700195312 m 0,0,1
 -809.549804688 -476.700195312 -809.549804688 -476.700195312 -866.775390625 -441 c 128,-1,2
 -924 -405.299804688 -924 -405.299804688 -924 -308.700195312 c 0,3,4
 -924 -208.950195312 -924 -208.950195312 -866.775390625 -173.775390625 c 128,-1,5
 -809.549804688 -138.599609375 -809.549804688 -138.599609375 -728.700195312 -138.599609375 c 0,6,7
 -648.900390625 -138.599609375 -648.900390625 -138.599609375 -590.625 -173.775390625 c 128,-1,8
 -532.349609375 -208.950195312 -532.349609375 -208.950195312 -532.349609375 -308.700195312 c 0,9,10
 -532.349609375 -405.299804688 -532.349609375 -405.299804688 -590.625 -441 c 128,-1,11
 -648.900390625 -476.700195312 -648.900390625 -476.700195312 -728.700195312 -476.700195312 c 0,0,1
EndSplineSet
Validated: 1
EndChar
StartChar: Lambda
Encoding: 923 923 360
Width: 1444
VWidth: 2150
GlyphClass: 2
Flags: W
AnchorPoint: "Anchor-1" 723.45 0 basechar 0
AnchorPoint: "Anchor-0" 723.45 1535.1 basechar 0
LayerCount: 2
Fore
SplineSet
933.450195312 1535.09960938 m 1,0,-1
 1444.79980469 0 l 1,1,-1
 1047.90039062 0 l 1,2,-1
 800.099609375 850.5 l 2,3,4
 789.599609375 888.299804688 789.599609375 888.299804688 773.849609375 954.974609375 c 128,-1,5
 758.099609375 1021.65039062 758.099609375 1021.65039062 743.400390625 1090.42480469 c 128,-1,6
 728.700195312 1159.20019531 728.700195312 1159.20019531 723.450195312 1201.20019531 c 1,7,8
 717.150390625 1158.15039062 717.150390625 1158.15039062 703.5 1089.90039062 c 128,-1,9
 689.849609375 1021.65039062 689.849609375 1021.65039062 675.150390625 955.5 c 128,-1,10
 660.450195312 889.349609375 660.450195312 889.349609375 648.900390625 851.549804688 c 2,11,-1
 396.900390625 0 l 1,12,-1
 0 0 l 1,13,-1
 512.400390625 1535.09960938 l 1,14,-1
 933.450195312 1535.09960938 l 1,0,-1
EndSplineSet
Validated: 1
EndChar
StartChar: Sigma
Encoding: 931 931 367
Width: 1285
VWidth: 2150
GlyphClass: 2
Flags: W
AnchorPoint: "Anchor-1" 642.6 0 basechar 0
AnchorPoint: "Anchor-0" 642.6 1535.1 basechar 0
LayerCount: 2
Fore
SplineSet
79.7998046875 0 m 1,0,-1
 79.7998046875 289.799804688 l 1,1,-1
 560.700195312 805.349609375 l 1,2,-1
 92.400390625 1254.75 l 1,3,-1
 92.400390625 1535.09960938 l 1,4,-1
 1146.59960938 1535.09960938 l 1,5,-1
 1146.59960938 1235.84960938 l 1,6,-1
 739.200195312 1235.84960938 l 2,7,8
 697.200195312 1235.84960938 697.200195312 1235.84960938 657.825195312 1236.375 c 128,-1,9
 618.450195312 1236.90039062 618.450195312 1236.90039062 578.549804688 1239.52539062 c 128,-1,10
 538.650390625 1242.15039062 538.650390625 1242.15039062 496.650390625 1246.34960938 c 1,11,-1
 956.549804688 807.450195312 l 1,12,-1
 473.549804688 290.849609375 l 1,13,14
 544.950195312 297.150390625 544.950195312 297.150390625 611.625 300.299804688 c 128,-1,15
 678.299804688 303.450195312 678.299804688 303.450195312 753.900390625 303.450195312 c 2,16,-1
 1208.54980469 303.450195312 l 1,17,-1
 1208.54980469 0 l 1,18,-1
 79.7998046875 0 l 1,0,-1
EndSplineSet
Validated: 1
EndChar
StartChar: Psi
Encoding: 936 936 372
Width: 1942
VWidth: 2150
GlyphClass: 2
Flags: W
AnchorPoint: "Anchor-1" 971.25 0 basechar 0
AnchorPoint: "Anchor-0" 971.25 1535.1 basechar 0
LayerCount: 2
Fore
SplineSet
1825.95019531 1535.09960938 m 1,0,-1
 1825.95019531 1033.20019531 l 2,1,2
 1825.95019531 880.950195312 1825.95019531 880.950195312 1790.25 769.650390625 c 128,-1,3
 1754.54980469 658.349609375 1754.54980469 658.349609375 1675.27539062 585.375 c 128,-1,4
 1596 512.400390625 1596 512.400390625 1465.27539062 476.174804688 c 128,-1,5
 1334.54980469 439.950195312 1334.54980469 439.950195312 1144.5 437.849609375 c 1,6,-1
 1144.5 0 l 1,7,-1
 798 0 l 1,8,-1
 798 437.849609375 l 1,9,10
 605.849609375 439.950195312 605.849609375 439.950195312 475.125 475.125 c 128,-1,11
 344.400390625 510.299804688 344.400390625 510.299804688 265.125 580.650390625 c 128,-1,12
 185.849609375 651 185.849609375 651 151.200195312 759.674804688 c 128,-1,13
 116.549804688 868.349609375 116.549804688 868.349609375 116.549804688 1017.45019531 c 2,14,-1
 116.549804688 1535.09960938 l 1,15,-1
 473.549804688 1535.09960938 l 1,16,-1
 473.549804688 1021.65039062 l 2,17,18
 473.549804688 910.349609375 473.549804688 910.349609375 508.200195312 849.450195312 c 128,-1,19
 542.849609375 788.549804688 542.849609375 788.549804688 614.775390625 764.400390625 c 128,-1,20
 686.700195312 740.25 686.700195312 740.25 798 740.25 c 1,21,-1
 798 1535.09960938 l 1,22,-1
 1144.5 1535.09960938 l 1,23,-1
 1144.5 740.25 l 1,24,25
 1245.29980469 740.25 1245.29980469 740.25 1318.27539062 764.400390625 c 128,-1,26
 1391.25 788.549804688 1391.25 788.549804688 1430.09960938 848.924804688 c 128,-1,27
 1468.95019531 909.299804688 1468.95019531 909.299804688 1468.95019531 1017.45019531 c 2,28,-1
 1468.95019531 1535.09960938 l 1,29,-1
 1825.95019531 1535.09960938 l 1,0,-1
EndSplineSet
Validated: 1
EndChar
StartChar: zeta
Encoding: 950 950 386
Width: 1083
VWidth: 2150
GlyphClass: 2
Flags: W
AnchorPoint: "Anchor-1" 541.8 -390.6 basechar 0
AnchorPoint: "Anchor-0" 541.8 1633.8 basechar 0
LayerCount: 2
Fore
SplineSet
1087.79980469 -28.349609375 m 0,0,1
 1087.79980469 -124.950195312 1087.79980469 -124.950195312 1044.75 -217.349609375 c 128,-1,2
 1001.70019531 -309.75 1001.70019531 -309.75 941.849609375 -390.599609375 c 1,3,-1
 571.200195312 -390.599609375 l 1,4,5
 617.400390625 -333.900390625 617.400390625 -333.900390625 653.099609375 -277.724609375 c 128,-1,6
 688.799804688 -221.549804688 688.799804688 -221.549804688 708.75 -173.775390625 c 128,-1,7
 728.700195312 -126 728.700195312 -126 728.700195312 -97.650390625 c 0,8,9
 728.700195312 -73.5 728.700195312 -73.5 712.424804688 -55.125 c 128,-1,10
 696.150390625 -36.75 696.150390625 -36.75 649.950195312 -19.4248046875 c 128,-1,11
 603.75 -2.099609375 603.75 -2.099609375 510.299804688 17.849609375 c 0,12,13
 360.150390625 49.349609375 360.150390625 49.349609375 268.275390625 111.299804688 c 128,-1,14
 176.400390625 173.25 176.400390625 173.25 134.924804688 268.275390625 c 128,-1,15
 93.4501953125 363.299804688 93.4501953125 363.299804688 93.4501953125 492.450195312 c 0,16,17
 93.4501953125 614.25 93.4501953125 614.25 133.349609375 730.275390625 c 128,-1,18
 173.25 846.299804688 173.25 846.299804688 248.325195312 957.075195312 c 128,-1,19
 323.400390625 1067.84960938 323.400390625 1067.84960938 428.924804688 1174.95019531 c 128,-1,20
 534.450195312 1282.04980469 534.450195312 1282.04980469 666.75 1384.95019531 c 1,21,22
 642.599609375 1378.65039062 642.599609375 1378.65039062 604.275390625 1373.92480469 c 128,-1,23
 565.950195312 1369.20019531 565.950195312 1369.20019531 527.625 1367.09960938 c 128,-1,24
 489.299804688 1365 489.299804688 1365 463.049804688 1365 c 2,25,-1
 153.299804688 1365 l 1,26,-1
 153.299804688 1633.79980469 l 1,27,-1
 1072.04980469 1633.79980469 l 1,28,-1
 1072.04980469 1417.5 l 1,29,30
 879.900390625 1260 879.900390625 1260 760.200195312 1128.22460938 c 128,-1,31
 640.5 996.450195312 640.5 996.450195312 576.974609375 886.724609375 c 128,-1,32
 513.450195312 777 513.450195312 777 490.349609375 684.075195312 c 128,-1,33
 467.25 591.150390625 467.25 591.150390625 467.25 509.25 c 0,34,35
 467.25 426.299804688 467.25 426.299804688 497.700195312 381.674804688 c 128,-1,36
 528.150390625 337.049804688 528.150390625 337.049804688 593.25 312.900390625 c 128,-1,37
 658.349609375 288.75 658.349609375 288.75 760.200195312 266.700195312 c 0,38,39
 885.150390625 241.5 885.150390625 241.5 956.549804688 198.450195312 c 128,-1,40
 1027.95019531 155.400390625 1027.95019531 155.400390625 1057.875 98.1748046875 c 128,-1,41
 1087.79980469 40.9501953125 1087.79980469 40.9501953125 1087.79980469 -28.349609375 c 0,0,1
EndSplineSet
Validated: 1
EndChar
StartChar: nu
Encoding: 957 957 393
Width: 1307
VWidth: 2150
GlyphClass: 2
Flags: W
AnchorPoint: "Anchor-1" 654.15 0 basechar 0
AnchorPoint: "Anchor-0" 654.15 1182.3 basechar 0
LayerCount: 2
Fore
SplineSet
3.150390625 1182.29980469 m 1,0,-1
 378 1182.29980469 l 1,1,-1
 600.599609375 520.799804688 l 2,2,3
 609 495.599609375 609 495.599609375 618.974609375 460.424804688 c 128,-1,4
 628.950195312 425.25 628.950195312 425.25 638.924804688 389.549804688 c 128,-1,5
 648.900390625 353.849609375 648.900390625 353.849609375 655.200195312 326.549804688 c 1,6,-1
 664.650390625 326.549804688 l 1,7,8
 730.799804688 428.400390625 730.799804688 428.400390625 774.375 547.575195312 c 128,-1,9
 817.950195312 666.75 817.950195312 666.75 838.950195312 821.099609375 c 128,-1,10
 859.950195312 975.450195312 859.950195312 975.450195312 859.950195312 1182.29980469 c 1,11,-1
 1227.45019531 1182.29980469 l 1,12,13
 1227.45019531 953.400390625 1227.45019531 953.400390625 1185.45019531 754.424804688 c 128,-1,14
 1143.45019531 555.450195312 1143.45019531 555.450195312 1042.65039062 370.650390625 c 128,-1,15
 941.849609375 185.849609375 941.849609375 185.849609375 764.400390625 0 c 1,16,-1
 448.349609375 0 l 1,17,-1
 3.150390625 1182.29980469 l 1,0,-1
EndSplineSet
Validated: 1
EndChar
StartChar: xi
Encoding: 958 958 394
Width: 1090
VWidth: 2150
GlyphClass: 2
Flags: W
AnchorPoint: "Anchor-1" 544.95 -390.6 basechar 0
AnchorPoint: "Anchor-0" 544.95 1633.8 basechar 0
LayerCount: 2
Fore
SplineSet
93.4501953125 453.599609375 m 0,0,1
 93.4501953125 550.200195312 93.4501953125 550.200195312 129.150390625 625.799804688 c 128,-1,2
 164.849609375 701.400390625 164.849609375 701.400390625 231 757.049804688 c 128,-1,3
 297.150390625 812.700195312 297.150390625 812.700195312 389.549804688 849.450195312 c 1,4,-1
 389.549804688 858.900390625 l 1,5,6
 316.049804688 876.75 316.049804688 876.75 265.125 911.400390625 c 128,-1,7
 214.200195312 946.049804688 214.200195312 946.049804688 187.424804688 997.5 c 128,-1,8
 160.650390625 1048.95019531 160.650390625 1048.95019531 160.650390625 1117.20019531 c 0,9,10
 160.650390625 1180.20019531 160.650390625 1180.20019531 187.950195312 1231.125 c 128,-1,11
 215.25 1282.04980469 215.25 1282.04980469 273 1319.32519531 c 128,-1,12
 330.75 1356.59960938 330.75 1356.59960938 423.150390625 1377.59960938 c 1,13,14
 383.25 1374.45019531 383.25 1374.45019531 340.200195312 1371.82519531 c 128,-1,15
 297.150390625 1369.20019531 297.150390625 1369.20019531 256.200195312 1367.09960938 c 128,-1,16
 215.25 1365 215.25 1365 181.650390625 1365 c 2,17,-1
 141.75 1365 l 1,18,-1
 141.75 1633.79980469 l 1,19,-1
 1031.09960938 1633.79980469 l 1,20,-1
 1031.09960938 1371.29980469 l 1,21,-1
 906.150390625 1371.29980469 l 2,22,23
 830.549804688 1371.29980469 830.549804688 1371.29980469 762.299804688 1358.70019531 c 128,-1,24
 694.049804688 1346.09960938 694.049804688 1346.09960938 639.974609375 1318.79980469 c 128,-1,25
 585.900390625 1291.5 585.900390625 1291.5 554.924804688 1247.92480469 c 128,-1,26
 523.950195312 1204.34960938 523.950195312 1204.34960938 523.950195312 1142.40039062 c 0,27,28
 523.950195312 1063.65039062 523.950195312 1063.65039062 580.650390625 1021.125 c 128,-1,29
 637.349609375 978.599609375 637.349609375 978.599609375 792.75 978.599609375 c 2,30,-1
 964.950195312 978.599609375 l 1,31,-1
 964.950195312 718.200195312 l 1,32,-1
 792.75 718.200195312 l 2,33,34
 667.799804688 718.200195312 667.799804688 718.200195312 596.400390625 689.325195312 c 128,-1,35
 525 660.450195312 525 660.450195312 496.125 609.525390625 c 128,-1,36
 467.25 558.599609375 467.25 558.599609375 467.25 489.299804688 c 256,37,38
 467.25 420 467.25 420 494.549804688 379.575195312 c 128,-1,39
 521.849609375 339.150390625 521.849609375 339.150390625 584.849609375 315 c 128,-1,40
 647.849609375 290.849609375 647.849609375 290.849609375 753.900390625 267.75 c 0,41,42
 878.849609375 242.549804688 878.849609375 242.549804688 951.825195312 199.5 c 128,-1,43
 1024.79980469 156.450195312 1024.79980469 156.450195312 1056.29980469 98.7001953125 c 128,-1,44
 1087.79980469 40.9501953125 1087.79980469 40.9501953125 1087.79980469 -28.349609375 c 0,45,46
 1087.79980469 -124.950195312 1087.79980469 -124.950195312 1044.75 -217.349609375 c 128,-1,47
 1001.70019531 -309.75 1001.70019531 -309.75 941.849609375 -390.599609375 c 1,48,-1
 571.200195312 -390.599609375 l 1,49,50
 617.400390625 -333.900390625 617.400390625 -333.900390625 653.099609375 -277.724609375 c 128,-1,51
 688.799804688 -221.549804688 688.799804688 -221.549804688 708.75 -173.775390625 c 128,-1,52
 728.700195312 -126 728.700195312 -126 728.700195312 -97.650390625 c 0,53,54
 728.700195312 -73.5 728.700195312 -73.5 714 -54.599609375 c 128,-1,55
 699.299804688 -35.7001953125 699.299804688 -35.7001953125 657.299804688 -19.4248046875 c 128,-1,56
 615.299804688 -3.150390625 615.299804688 -3.150390625 533.400390625 12.599609375 c 0,57,58
 388.5 42 388.5 42 290.849609375 99.75 c 128,-1,59
 193.200195312 157.5 193.200195312 157.5 143.325195312 246.224609375 c 128,-1,60
 93.4501953125 334.950195312 93.4501953125 334.950195312 93.4501953125 453.599609375 c 0,0,1
EndSplineSet
Validated: 1
EndChar
StartChar: pi
Encoding: 960 960 396
Width: 1649
VWidth: 2150
GlyphClass: 2
Flags: W
AnchorPoint: "Anchor-1" 826.35 0 basechar 0
AnchorPoint: "Anchor-0" 826.35 1182.3 basechar 0
LayerCount: 2
Fore
SplineSet
1414.34960938 265.650390625 m 0,0,1
 1451.09960938 265.650390625 1451.09960938 265.650390625 1491 275.625 c 128,-1,2
 1530.90039062 285.599609375 1530.90039062 285.599609375 1563.45019531 302.400390625 c 1,3,-1
 1563.45019531 46.2001953125 l 1,4,5
 1520.40039062 19.9501953125 1520.40039062 19.9501953125 1444.79980469 -0.525390625 c 128,-1,6
 1369.20019531 -21 1369.20019531 -21 1288.34960938 -21 c 0,7,8
 1120.34960938 -21 1120.34960938 -21 1034.77539062 69.8251953125 c 128,-1,9
 949.200195312 160.650390625 949.200195312 160.650390625 949.200195312 346.5 c 2,10,-1
 949.200195312 907.200195312 l 1,11,-1
 639.450195312 907.200195312 l 1,12,-1
 639.450195312 0 l 1,13,-1
 274.049804688 0 l 1,14,-1
 274.049804688 907.200195312 l 1,15,-1
 25.2001953125 907.200195312 l 1,16,-1
 25.2001953125 1062.59960938 l 1,17,-1
 223.650390625 1182.29980469 l 1,18,-1
 1569.75 1182.29980469 l 1,19,-1
 1569.75 907.200195312 l 1,20,-1
 1314.59960938 907.200195312 l 1,21,-1
 1314.59960938 374.849609375 l 2,22,23
 1314.59960938 318.150390625 1314.59960938 318.150390625 1343.47460938 291.900390625 c 128,-1,24
 1372.34960938 265.650390625 1372.34960938 265.650390625 1414.34960938 265.650390625 c 0,0,1
EndSplineSet
Validated: 1
EndChar
StartChar: sigma
Encoding: 963 963 399
Width: 1434
VWidth: 2150
GlyphClass: 2
Flags: W
AnchorPoint: "Anchor-1" 718.2 0 basechar 0
AnchorPoint: "Anchor-0" 718.2 1182.3 basechar 0
LayerCount: 2
Fore
SplineSet
1279.95019531 499.799804688 m 0,0,1
 1279.95019531 350.700195312 1279.95019531 350.700195312 1211.70019531 232.575195312 c 128,-1,2
 1143.45019531 114.450195312 1143.45019531 114.450195312 1010.625 46.724609375 c 128,-1,3
 877.799804688 -21 877.799804688 -21 684.599609375 -21 c 0,4,5
 507.150390625 -21 507.150390625 -21 374.325195312 46.2001953125 c 128,-1,6
 241.5 113.400390625 241.5 113.400390625 167.474609375 243.075195312 c 128,-1,7
 93.4501953125 372.75 93.4501953125 372.75 93.4501953125 561.75 c 0,8,9
 93.4501953125 773.849609375 93.4501953125 773.849609375 170.099609375 911.400390625 c 128,-1,10
 246.75 1048.95019531 246.75 1048.95019531 399.525390625 1116.15039062 c 128,-1,11
 552.299804688 1183.34960938 552.299804688 1183.34960938 782.25 1183.34960938 c 2,12,-1
 1384.95019531 1183.34960938 l 1,13,-1
 1384.95019531 913.5 l 1,14,-1
 1089.90039062 913.5 l 1,15,16
 1176 837.900390625 1176 837.900390625 1227.97460938 737.099609375 c 128,-1,17
 1279.95019531 636.299804688 1279.95019531 636.299804688 1279.95019531 499.799804688 c 0,0,1
468.299804688 562.799804688 m 0,18,19
 468.299804688 477.75 468.299804688 477.75 491.400390625 411.599609375 c 128,-1,20
 514.5 345.450195312 514.5 345.450195312 562.799804688 308.174804688 c 128,-1,21
 611.099609375 270.900390625 611.099609375 270.900390625 688.799804688 270.900390625 c 0,22,23
 803.25 270.900390625 803.25 270.900390625 855.224609375 348.599609375 c 128,-1,24
 907.200195312 426.299804688 907.200195312 426.299804688 907.200195312 556.5 c 0,25,26
 907.200195312 640.5 907.200195312 640.5 893.025390625 701.924804688 c 128,-1,27
 878.849609375 763.349609375 878.849609375 763.349609375 851.549804688 813.75 c 128,-1,28
 824.25 864.150390625 824.25 864.150390625 786.450195312 913.5 c 1,29,-1
 748.650390625 913.5 l 2,30,31
 602.700195312 913.5 602.700195312 913.5 535.5 835.799804688 c 128,-1,32
 468.299804688 758.099609375 468.299804688 758.099609375 468.299804688 562.799804688 c 0,18,19
EndSplineSet
Validated: 1
EndChar
StartChar: tau
Encoding: 964 964 400
Width: 1147
VWidth: 2150
GlyphClass: 2
Flags: W
AnchorPoint: "Anchor-1" 574.35 0 basechar 0
AnchorPoint: "Anchor-0" 574.35 1182.3 basechar 0
LayerCount: 2
Fore
SplineSet
1072.04980469 1182.29980469 m 1,0,-1
 1072.04980469 909.299804688 l 1,1,-1
 688.799804688 909.299804688 l 1,2,-1
 688.799804688 391.650390625 l 2,3,4
 688.799804688 330.75 688.799804688 330.75 721.875 299.25 c 128,-1,5
 754.950195312 267.75 754.950195312 267.75 810.599609375 267.75 c 0,6,7
 863.099609375 267.75 863.099609375 267.75 911.924804688 279.299804688 c 128,-1,8
 960.75 290.849609375 960.75 290.849609375 1013.25 308.700195312 c 1,9,-1
 1013.25 39.900390625 l 1,10,11
 958.650390625 13.650390625 958.650390625 13.650390625 882.525390625 -3.150390625 c 128,-1,12
 806.400390625 -19.9501953125 806.400390625 -19.9501953125 715.049804688 -19.9501953125 c 0,13,14
 600.599609375 -19.9501953125 600.599609375 -19.9501953125 511.875 14.7001953125 c 128,-1,15
 423.150390625 49.349609375 423.150390625 49.349609375 373.275390625 135.974609375 c 128,-1,16
 323.400390625 222.599609375 323.400390625 222.599609375 323.400390625 380.099609375 c 2,17,-1
 323.400390625 909.299804688 l 1,18,-1
 33.599609375 909.299804688 l 1,19,-1
 33.599609375 1062.59960938 l 1,20,-1
 227.849609375 1182.29980469 l 1,21,-1
 1072.04980469 1182.29980469 l 1,0,-1
EndSplineSet
Validated: 1
EndChar
StartChar: chi
Encoding: 967 967 403
Width: 1331
VWidth: 2150
GlyphClass: 2
Flags: W
AnchorPoint: "Anchor-2" 1288.35 1182.3 basechar 0
AnchorPoint: "Anchor-1" 665.7 -516.6 basechar 0
AnchorPoint: "Anchor-0" 665.7 1182.3 basechar 0
LayerCount: 2
Fore
SplineSet
268.799804688 1199.09960938 m 0,0,1
 375.900390625 1199.09960938 375.900390625 1199.09960938 445.200195312 1168.65039062 c 128,-1,2
 514.5 1138.20019531 514.5 1138.20019531 561.224609375 1072.04980469 c 128,-1,3
 607.950195312 1005.90039062 607.950195312 1005.90039062 646.799804688 895.650390625 c 2,4,-1
 706.650390625 724.5 l 1,5,-1
 952.349609375 1182.29980469 l 1,6,-1
 1327.20019531 1182.29980469 l 1,7,-1
 867.299804688 387.450195312 l 1,8,-1
 1063.65039062 -100.799804688 l 2,9,10
 1081.5 -141.75 1081.5 -141.75 1102.5 -168.525390625 c 128,-1,11
 1123.5 -195.299804688 1123.5 -195.299804688 1151.32519531 -207.900390625 c 128,-1,12
 1179.15039062 -220.5 1179.15039062 -220.5 1213.79980469 -220.5 c 0,13,14
 1234.79980469 -220.5 1234.79980469 -220.5 1259.47460938 -217.875 c 128,-1,15
 1284.15039062 -215.25 1284.15039062 -215.25 1323 -205.799804688 c 1,16,-1
 1323 -478.799804688 l 1,17,18
 1269.45019531 -497.700195312 1269.45019531 -497.700195312 1219.57519531 -507.150390625 c 128,-1,19
 1169.70019531 -516.599609375 1169.70019531 -516.599609375 1094.09960938 -516.599609375 c 0,20,21
 999.599609375 -516.599609375 999.599609375 -516.599609375 931.349609375 -481.950195312 c 128,-1,22
 863.099609375 -447.299804688 863.099609375 -447.299804688 815.325195312 -378 c 128,-1,23
 767.549804688 -308.700195312 767.549804688 -308.700195312 732.900390625 -202.650390625 c 2,24,-1
 640.5 85.0498046875 l 1,25,-1
 347.549804688 -516.599609375 l 1,26,-1
 -53.5498046875 -516.599609375 l 1,27,-1
 476.700195312 421.049804688 l 1,28,-1
 344.400390625 769.650390625 l 2,29,30
 315 848.400390625 315 848.400390625 276.150390625 876.224609375 c 128,-1,31
 237.299804688 904.049804688 237.299804688 904.049804688 193.200195312 904.049804688 c 0,32,33
 169.049804688 904.049804688 169.049804688 904.049804688 137.025390625 899.325195312 c 128,-1,34
 105 894.599609375 105 894.599609375 63 880.950195312 c 1,35,-1
 63 1162.34960938 l 1,36,37
 108.150390625 1177.04980469 108.150390625 1177.04980469 158.549804688 1188.07519531 c 128,-1,38
 208.950195312 1199.09960938 208.950195312 1199.09960938 268.799804688 1199.09960938 c 0,0,1
EndSplineSet
Validated: 1
Substitution2: "'locl' Localized Forms in Latin lookup 16 subtable" uniAB53
Substitution2: "'locl' Localized Forms in Latin lookup 15 subtable" uniAB53
Substitution2: "'aalt' Access All Alternates lookup 0 subtable" uniAB53
EndChar
StartChar: omega
Encoding: 969 969 405
Width: 1911
VWidth: 2150
GlyphClass: 2
Flags: W
AnchorPoint: "Anchor-1" 956.55 0 basechar 0
AnchorPoint: "Anchor-0" 963.9 1182.3 basechar 0
LayerCount: 2
Fore
SplineSet
1687.34960938 1182.29980469 m 1,0,1
 1727.25 1078.34960938 1727.25 1078.34960938 1752.45019531 983.325195312 c 128,-1,2
 1777.65039062 888.299804688 1777.65039062 888.299804688 1790.25 789.599609375 c 128,-1,3
 1802.84960938 690.900390625 1802.84960938 690.900390625 1802.84960938 574.349609375 c 0,4,5
 1802.84960938 401.099609375 1802.84960938 401.099609375 1747.72460938 266.700195312 c 128,-1,6
 1692.59960938 132.299804688 1692.59960938 132.299804688 1582.34960938 55.650390625 c 128,-1,7
 1472.09960938 -21 1472.09960938 -21 1306.20019531 -21 c 0,8,9
 1164.45019531 -21 1164.45019531 -21 1083.59960938 38.849609375 c 128,-1,10
 1002.75 98.7001953125 1002.75 98.7001953125 961.799804688 210 c 1,11,-1
 950.25 210 l 1,12,13
 909.299804688 100.799804688 909.299804688 100.799804688 828.450195312 39.900390625 c 128,-1,14
 747.599609375 -21 747.599609375 -21 603.75 -21 c 0,15,16
 438.900390625 -21 438.900390625 -21 328.650390625 55.650390625 c 128,-1,17
 218.400390625 132.299804688 218.400390625 132.299804688 163.799804688 266.700195312 c 128,-1,18
 109.200195312 401.099609375 109.200195312 401.099609375 109.200195312 574.349609375 c 0,19,20
 109.200195312 690.900390625 109.200195312 690.900390625 121.275390625 789.599609375 c 128,-1,21
 133.349609375 888.299804688 133.349609375 888.299804688 159.075195312 983.325195312 c 128,-1,22
 184.799804688 1078.34960938 184.799804688 1078.34960938 223.650390625 1182.29980469 c 1,23,-1
 586.950195312 1182.29980469 l 1,24,25
 519.75 1043.70019531 519.75 1043.70019531 487.724609375 894.075195312 c 128,-1,26
 455.700195312 744.450195312 455.700195312 744.450195312 455.700195312 588 c 0,27,28
 455.700195312 424.200195312 455.700195312 424.200195312 498.75 343.349609375 c 128,-1,29
 541.799804688 262.5 541.799804688 262.5 634.200195312 262.5 c 0,30,31
 690.900390625 262.5 690.900390625 262.5 723.450195312 287.700195312 c 128,-1,32
 756 312.900390625 756 312.900390625 770.174804688 369.599609375 c 128,-1,33
 784.349609375 426.299804688 784.349609375 426.299804688 784.349609375 521.849609375 c 2,34,-1
 784.349609375 821.099609375 l 1,35,-1
 1126.65039062 821.099609375 l 1,36,-1
 1126.65039062 521.849609375 l 2,37,38
 1126.65039062 427.349609375 1126.65039062 427.349609375 1140.29980469 370.650390625 c 128,-1,39
 1153.95019531 313.950195312 1153.95019531 313.950195312 1187.02539062 288.224609375 c 128,-1,40
 1220.09960938 262.5 1220.09960938 262.5 1277.84960938 262.5 c 0,41,42
 1345.04980469 262.5 1345.04980469 262.5 1383.90039062 305.549804688 c 128,-1,43
 1422.75 348.599609375 1422.75 348.599609375 1439.02539062 421.049804688 c 128,-1,44
 1455.29980469 493.5 1455.29980469 493.5 1455.29980469 582.75 c 0,45,46
 1455.29980469 737.099609375 1455.29980469 737.099609375 1423.79980469 890.400390625 c 128,-1,47
 1392.29980469 1043.70019531 1392.29980469 1043.70019531 1324.04980469 1182.29980469 c 1,48,-1
 1687.34960938 1182.29980469 l 1,0,1
EndSplineSet
Validated: 1
EndChar
StartChar: uni0404
Encoding: 1028 1028 414
Width: 1447
VWidth: 2150
GlyphClass: 2
Flags: W
AnchorPoint: "Anchor-1" 724.5 0 basechar 0
AnchorPoint: "Anchor-0" 724.5 1535.1 basechar 0
LayerCount: 2
Fore
SplineSet
882 1249.5 m 0,0,1
 803.25 1249.5 803.25 1249.5 738.150390625 1229.02539062 c 128,-1,2
 673.049804688 1208.54980469 673.049804688 1208.54980469 623.700195312 1166.02539062 c 128,-1,3
 574.349609375 1123.5 574.349609375 1123.5 544.424804688 1061.02539062 c 128,-1,4
 514.5 998.549804688 514.5 998.549804688 506.099609375 915.599609375 c 1,5,-1
 1143.45019531 915.599609375 l 1,6,-1
 1143.45019531 623.700195312 l 1,7,-1
 505.049804688 623.700195312 l 1,8,9
 511.349609375 543.900390625 511.349609375 543.900390625 537.599609375 481.424804688 c 128,-1,10
 563.849609375 418.950195312 563.849609375 418.950195312 611.625 375.375 c 128,-1,11
 659.400390625 331.799804688 659.400390625 331.799804688 728.174804688 309.75 c 128,-1,12
 796.950195312 287.700195312 796.950195312 287.700195312 887.25 287.700195312 c 0,13,14
 1000.65039062 287.700195312 1000.65039062 287.700195312 1104.07519531 310.799804688 c 128,-1,15
 1207.5 333.900390625 1207.5 333.900390625 1325.09960938 372.75 c 1,16,-1
 1325.09960938 65.099609375 l 1,17,18
 1224.29980469 23.099609375 1224.29980469 23.099609375 1110.375 1.0498046875 c 128,-1,19
 996.450195312 -21 996.450195312 -21 862.049804688 -21 c 0,20,21
 604.799804688 -21 604.799804688 -21 439.950195312 77.1748046875 c 128,-1,22
 275.099609375 175.349609375 275.099609375 175.349609375 196.349609375 351.75 c 128,-1,23
 117.599609375 528.150390625 117.599609375 528.150390625 117.599609375 764.400390625 c 0,24,25
 117.599609375 937.650390625 117.599609375 937.650390625 166.950195312 1082.54980469 c 128,-1,26
 216.299804688 1227.45019531 216.299804688 1227.45019531 313.424804688 1333.5 c 128,-1,27
 410.549804688 1439.54980469 410.549804688 1439.54980469 554.924804688 1497.82519531 c 128,-1,28
 699.299804688 1556.09960938 699.299804688 1556.09960938 887.25 1556.09960938 c 0,29,30
 1033.20019531 1556.09960938 1033.20019531 1556.09960938 1153.42480469 1524.07519531 c 128,-1,31
 1273.65039062 1492.04980469 1273.65039062 1492.04980469 1377.59960938 1444.79980469 c 1,32,-1
 1252.65039062 1144.5 l 1,33,34
 1162.34960938 1188.59960938 1162.34960938 1188.59960938 1078.34960938 1219.04980469 c 128,-1,35
 994.349609375 1249.5 994.349609375 1249.5 882 1249.5 c 0,0,1
EndSplineSet
Validated: 1
EndChar
StartChar: uni0411
Encoding: 1041 1041 426
Width: 1381
VWidth: 2150
GlyphClass: 2
Flags: W
AnchorPoint: "Anchor-1" 691.95 0 basechar 0
AnchorPoint: "Anchor-0" 691.95 1535.1 basechar 0
LayerCount: 2
Fore
SplineSet
179.549804688 0 m 1,0,-1
 179.549804688 1535.09960938 l 1,1,-1
 1169.70019531 1535.09960938 l 1,2,-1
 1169.70019531 1234.79980469 l 1,3,-1
 550.200195312 1234.79980469 l 1,4,-1
 550.200195312 970.200195312 l 1,5,-1
 688.799804688 970.200195312 l 2,6,7
 895.650390625 970.200195312 895.650390625 970.200195312 1029 910.349609375 c 128,-1,8
 1162.34960938 850.5 1162.34960938 850.5 1226.92480469 744.450195312 c 128,-1,9
 1291.5 638.400390625 1291.5 638.400390625 1291.5 500.849609375 c 0,10,11
 1291.5 265.650390625 1291.5 265.650390625 1133.47460938 132.825195312 c 128,-1,12
 975.450195312 0 975.450195312 0 664.650390625 0 c 2,13,-1
 179.549804688 0 l 1,0,-1
550.200195312 298.200195312 m 1,14,-1
 661.5 298.200195312 l 2,15,16
 786.450195312 298.200195312 786.450195312 298.200195312 853.125 344.400390625 c 128,-1,17
 919.799804688 390.599609375 919.799804688 390.599609375 919.799804688 490.349609375 c 0,18,19
 919.799804688 558.599609375 919.799804688 558.599609375 886.724609375 597.974609375 c 128,-1,20
 853.650390625 637.349609375 853.650390625 637.349609375 793.275390625 654.674804688 c 128,-1,21
 732.900390625 672 732.900390625 672 653.099609375 672 c 2,22,-1
 550.200195312 672 l 1,23,-1
 550.200195312 298.200195312 l 1,14,-1
EndSplineSet
Validated: 1
EndChar
StartChar: uni0416
Encoding: 1046 1046 431
Width: 2116
VWidth: 2150
GlyphClass: 2
Flags: W
AnchorPoint: "Anchor-1" 1059.45 0 basechar 0
AnchorPoint: "Anchor-0" 1058.4 1535.1 basechar 0
LayerCount: 2
Fore
SplineSet
512.400390625 800.099609375 m 1,0,-1
 30.4501953125 1535.09960938 l 1,1,-1
 422.099609375 1535.09960938 l 1,2,-1
 883.049804688 791.700195312 l 1,3,-1
 883.049804688 1535.09960938 l 1,4,-1
 1234.79980469 1535.09960938 l 1,5,-1
 1234.79980469 791.700195312 l 1,6,-1
 1696.79980469 1535.09960938 l 1,7,-1
 2088.45019531 1535.09960938 l 1,8,-1
 1604.40039062 800.099609375 l 1,9,-1
 2121 0 l 1,10,-1
 1717.79980469 0 l 1,11,-1
 1234.79980469 778.049804688 l 1,12,-1
 1234.79980469 0 l 1,13,-1
 883.049804688 0 l 1,14,-1
 883.049804688 778.049804688 l 1,15,-1
 399 0 l 1,16,-1
 -4.2001953125 0 l 1,17,-1
 512.400390625 800.099609375 l 1,0,-1
EndSplineSet
Validated: 1
EndChar
StartChar: uni0417
Encoding: 1047 1047 432
Width: 1413
VWidth: 2150
GlyphClass: 2
Flags: W
AnchorPoint: "Anchor-1" 706.65 0 basechar 0
AnchorPoint: "Anchor-0" 703.5 1535.1 basechar 0
LayerCount: 2
Fore
SplineSet
1263.15039062 1176 m 0,0,1
 1263.15039062 1022.70019531 1263.15039062 1022.70019531 1161.82519531 929.775390625 c 128,-1,2
 1060.5 836.849609375 1060.5 836.849609375 888.299804688 809.549804688 c 1,3,-1
 888.299804688 802.200195312 l 1,4,5
 1099.34960938 783.299804688 1099.34960938 783.299804688 1208.02539062 687.224609375 c 128,-1,6
 1316.70019531 591.150390625 1316.70019531 591.150390625 1316.70019531 437.849609375 c 0,7,8
 1316.70019531 303.450195312 1316.70019531 303.450195312 1242.67480469 200.025390625 c 128,-1,9
 1168.65039062 96.599609375 1168.65039062 96.599609375 1024.79980469 37.7998046875 c 128,-1,10
 880.950195312 -21 880.950195312 -21 669.900390625 -21 c 0,11,12
 483 -21 483 -21 343.349609375 1.5751953125 c 128,-1,13
 203.700195312 24.150390625 203.700195312 24.150390625 106.049804688 61.9501953125 c 1,14,-1
 106.049804688 376.950195312 l 1,15,16
 172.200195312 345.450195312 172.200195312 345.450195312 256.200195312 322.875 c 128,-1,17
 340.200195312 300.299804688 340.200195312 300.299804688 426.825195312 288.224609375 c 128,-1,18
 513.450195312 276.150390625 513.450195312 276.150390625 584.849609375 276.150390625 c 0,19,20
 775.950195312 276.150390625 775.950195312 276.150390625 858.900390625 324.450195312 c 128,-1,21
 941.849609375 372.75 941.849609375 372.75 941.849609375 469.349609375 c 0,22,23
 941.849609375 562.799804688 941.849609375 562.799804688 831.075195312 607.424804688 c 128,-1,24
 720.299804688 652.049804688 720.299804688 652.049804688 519.75 652.049804688 c 2,25,-1
 357 652.049804688 l 1,26,-1
 357 947.099609375 l 1,27,-1
 502.950195312 947.099609375 l 2,28,29
 660.450195312 947.099609375 660.450195312 947.099609375 746.025390625 966 c 128,-1,30
 831.599609375 984.900390625 831.599609375 984.900390625 864.150390625 1022.17480469 c 128,-1,31
 896.700195312 1059.45019531 896.700195312 1059.45019531 896.700195312 1113 c 0,32,33
 896.700195312 1180.20019531 896.700195312 1180.20019531 836.325195312 1218.52539062 c 128,-1,34
 775.950195312 1256.84960938 775.950195312 1256.84960938 646.799804688 1256.84960938 c 0,35,36
 538.650390625 1256.84960938 538.650390625 1256.84960938 439.950195312 1226.92480469 c 128,-1,37
 341.25 1197 341.25 1197 254.099609375 1141.34960938 c 1,38,-1
 95.5498046875 1392.29980469 l 1,39,40
 178.5 1446.90039062 178.5 1446.90039062 268.275390625 1483.65039062 c 128,-1,41
 358.049804688 1520.40039062 358.049804688 1520.40039062 465.150390625 1538.77539062 c 128,-1,42
 572.25 1557.15039062 572.25 1557.15039062 708.75 1557.15039062 c 0,43,44
 882 1557.15039062 882 1557.15039062 1006.42480469 1507.79980469 c 128,-1,45
 1130.84960938 1458.45019531 1130.84960938 1458.45019531 1197 1372.875 c 128,-1,46
 1263.15039062 1287.29980469 1263.15039062 1287.29980469 1263.15039062 1176 c 0,0,1
EndSplineSet
Validated: 1
EndChar
StartChar: uni041A
Encoding: 1050 1050 435
Width: 1472
VWidth: 2150
GlyphClass: 2
Flags: W
AnchorPoint: "Anchor-1" 737.1 0 basechar 0
AnchorPoint: "Anchor-0" 789.6 1535.1 basechar 0
LayerCount: 2
Fore
SplineSet
1476.29980469 0 m 1,0,-1
 1057.34960938 0 l 1,1,-1
 551.25 778.049804688 l 1,2,-1
 551.25 0 l 1,3,-1
 179.549804688 0 l 1,4,-1
 179.549804688 1535.09960938 l 1,5,-1
 551.25 1535.09960938 l 1,6,-1
 551.25 791.700195312 l 1,7,-1
 1045.79980469 1535.09960938 l 1,8,-1
 1446.90039062 1535.09960938 l 1,9,-1
 930.299804688 800.099609375 l 1,10,-1
 1476.29980469 0 l 1,0,-1
EndSplineSet
Validated: 1
EndChar
StartChar: uni0427
Encoding: 1063 1063 448
Width: 1599
VWidth: 2150
GlyphClass: 2
Flags: W
AnchorPoint: "Anchor-1" 800.1 0 basechar 0
AnchorPoint: "Anchor-0" 766.5 1535.1 basechar 0
LayerCount: 2
Fore
SplineSet
1419.59960938 0 m 1,0,-1
 1047.90039062 0 l 1,1,-1
 1047.90039062 580.650390625 l 1,2,3
 909.299804688 533.400390625 909.299804688 533.400390625 795.900390625 510.299804688 c 128,-1,4
 682.5 487.200195312 682.5 487.200195312 573.299804688 487.200195312 c 0,5,6
 357 487.200195312 357 487.200195312 235.200195312 593.25 c 128,-1,7
 113.400390625 699.299804688 113.400390625 699.299804688 113.400390625 893.549804688 c 2,8,-1
 113.400390625 1535.09960938 l 1,9,-1
 484.049804688 1535.09960938 l 1,10,-1
 484.049804688 1009.04980469 l 2,11,12
 484.049804688 901.950195312 484.049804688 901.950195312 530.775390625 847.349609375 c 128,-1,13
 577.5 792.75 577.5 792.75 691.950195312 792.75 c 0,14,15
 769.650390625 792.75 769.650390625 792.75 856.275390625 811.125 c 128,-1,16
 942.900390625 829.5 942.900390625 829.5 1047.90039062 867.299804688 c 1,17,-1
 1047.90039062 1535.09960938 l 1,18,-1
 1419.59960938 1535.09960938 l 1,19,-1
 1419.59960938 0 l 1,0,-1
EndSplineSet
Validated: 1
EndChar
StartChar: uni0428
Encoding: 1064 1064 449
Width: 2328
VWidth: 2150
GlyphClass: 2
Flags: W
AnchorPoint: "Anchor-1" 1164.45 0 basechar 0
AnchorPoint: "Anchor-0" 1164.45 1535.1 basechar 0
LayerCount: 2
Fore
SplineSet
2149.34960938 0 m 1,0,-1
 179.549804688 0 l 1,1,-1
 179.549804688 1535.09960938 l 1,2,-1
 551.25 1535.09960938 l 1,3,-1
 551.25 305.549804688 l 1,4,-1
 980.700195312 305.549804688 l 1,5,-1
 980.700195312 1535.09960938 l 1,6,-1
 1349.25 1535.09960938 l 1,7,-1
 1349.25 305.549804688 l 1,8,-1
 1778.70019531 305.549804688 l 1,9,-1
 1778.70019531 1535.09960938 l 1,10,-1
 2149.34960938 1535.09960938 l 1,11,-1
 2149.34960938 0 l 1,0,-1
EndSplineSet
Validated: 1
EndChar
StartChar: uni0429
Encoding: 1065 1065 450
Width: 2465
VWidth: 2150
GlyphClass: 2
Flags: W
AnchorPoint: "Anchor-1" 1233.75 0 basechar 0
AnchorPoint: "Anchor-0" 1233.75 1535.1 basechar 0
LayerCount: 2
Fore
SplineSet
2425.5 299.25 m 1,0,-1
 2425.5 -462 l 1,1,-1
 2066.40039062 -462 l 1,2,-1
 2066.40039062 0 l 1,3,-1
 179.549804688 0 l 1,4,-1
 179.549804688 1535.09960938 l 1,5,-1
 551.25 1535.09960938 l 1,6,-1
 551.25 305.549804688 l 1,7,-1
 980.700195312 305.549804688 l 1,8,-1
 980.700195312 1535.09960938 l 1,9,-1
 1349.25 1535.09960938 l 1,10,-1
 1349.25 305.549804688 l 1,11,-1
 1778.70019531 305.549804688 l 1,12,-1
 1778.70019531 1535.09960938 l 1,13,-1
 2149.34960938 1535.09960938 l 1,14,-1
 2149.34960938 299.25 l 1,15,-1
 2425.5 299.25 l 1,0,-1
EndSplineSet
Validated: 1
EndChar
StartChar: uni042A
Encoding: 1066 1066 451
Width: 1604
VWidth: 2150
GlyphClass: 2
Flags: W
AnchorPoint: "Anchor-1" 803.25 0 basechar 0
AnchorPoint: "Anchor-0" 803.25 1535.1 basechar 0
LayerCount: 2
Fore
SplineSet
408.450195312 0 m 1,0,-1
 408.450195312 1230.59960938 l 1,1,-1
 27.2998046875 1230.59960938 l 1,2,-1
 27.2998046875 1535.09960938 l 1,3,-1
 778.049804688 1535.09960938 l 1,4,-1
 778.049804688 970.200195312 l 1,5,-1
 917.700195312 970.200195312 l 2,6,7
 1124.54980469 970.200195312 1124.54980469 970.200195312 1257.375 910.349609375 c 128,-1,8
 1390.20019531 850.5 1390.20019531 850.5 1454.77539062 744.450195312 c 128,-1,9
 1519.34960938 638.400390625 1519.34960938 638.400390625 1519.34960938 500.849609375 c 0,10,11
 1519.34960938 265.650390625 1519.34960938 265.650390625 1361.32519531 132.825195312 c 128,-1,12
 1203.29980469 0 1203.29980469 0 892.5 0 c 2,13,-1
 408.450195312 0 l 1,0,-1
778.049804688 298.200195312 m 1,14,-1
 889.349609375 298.200195312 l 2,15,16
 1014.29980469 298.200195312 1014.29980469 298.200195312 1080.97460938 344.400390625 c 128,-1,17
 1147.65039062 390.599609375 1147.65039062 390.599609375 1147.65039062 490.349609375 c 0,18,19
 1147.65039062 558.599609375 1147.65039062 558.599609375 1114.57519531 597.974609375 c 128,-1,20
 1081.5 637.349609375 1081.5 637.349609375 1021.125 654.674804688 c 128,-1,21
 960.75 672 960.75 672 880.950195312 672 c 2,22,-1
 778.049804688 672 l 1,23,-1
 778.049804688 298.200195312 l 1,14,-1
EndSplineSet
Validated: 1
EndChar
StartChar: uni0431
Encoding: 1073 1073 458
Width: 1370
VWidth: 2150
GlyphClass: 2
Flags: W
AnchorPoint: "Anchor-1" 685.65 0 basechar 0
AnchorPoint: "Anchor-0" 685.65 1649.55 basechar 0
LayerCount: 2
Fore
SplineSet
94.5 707.700195312 m 0,0,1
 94.5 966 94.5 966 160.650390625 1149.22460938 c 128,-1,2
 226.799804688 1332.45019531 226.799804688 1332.45019531 377.474609375 1443.75 c 128,-1,3
 528.150390625 1555.04980469 528.150390625 1555.04980469 782.25 1594.95019531 c 0,4,5
 886.200195312 1610.70019531 886.200195312 1610.70019531 1001.70019531 1623.82519531 c 128,-1,6
 1117.20019531 1636.95019531 1117.20019531 1636.95019531 1237.95019531 1649.54980469 c 1,7,-1
 1275.75 1339.79980469 l 1,8,9
 1221.15039062 1334.54980469 1221.15039062 1334.54980469 1159.20019531 1328.25 c 128,-1,10
 1097.25 1321.95019531 1097.25 1321.95019531 1034.25 1314.59960938 c 128,-1,11
 971.25 1307.25 971.25 1307.25 911.924804688 1299.90039062 c 128,-1,12
 852.599609375 1292.54980469 852.599609375 1292.54980469 803.25 1286.25 c 0,13,14
 677.25 1269.45019531 677.25 1269.45019531 604.799804688 1230.59960938 c 128,-1,15
 532.349609375 1191.75 532.349609375 1191.75 500.325195312 1119.29980469 c 128,-1,16
 468.299804688 1046.84960938 468.299804688 1046.84960938 460.950195312 927.150390625 c 1,17,-1
 477.75 927.150390625 l 1,18,19
 500.849609375 966 500.849609375 966 545.474609375 1006.95019531 c 128,-1,20
 590.099609375 1047.90039062 590.099609375 1047.90039062 656.775390625 1075.20019531 c 128,-1,21
 723.450195312 1102.5 723.450195312 1102.5 810.599609375 1102.5 c 0,22,23
 947.099609375 1102.5 947.099609375 1102.5 1051.04980469 1047.375 c 128,-1,24
 1155 992.25 1155 992.25 1213.79980469 878.849609375 c 128,-1,25
 1272.59960938 765.450195312 1272.59960938 765.450195312 1272.59960938 589.049804688 c 0,26,27
 1272.59960938 387.450195312 1272.59960938 387.450195312 1197.52539062 251.474609375 c 128,-1,28
 1122.45019531 115.5 1122.45019531 115.5 989.099609375 47.25 c 128,-1,29
 855.75 -21 855.75 -21 681.450195312 -21 c 0,30,31
 547.049804688 -21 547.049804688 -21 439.424804688 26.775390625 c 128,-1,32
 331.799804688 74.5498046875 331.799804688 74.5498046875 254.625 167.474609375 c 128,-1,33
 177.450195312 260.400390625 177.450195312 260.400390625 135.974609375 396.375 c 128,-1,34
 94.5 532.349609375 94.5 532.349609375 94.5 707.700195312 c 0,0,1
701.400390625 261.450195312 m 0,35,36
 760.200195312 261.450195312 760.200195312 261.450195312 804.825195312 289.275390625 c 128,-1,37
 849.450195312 317.099609375 849.450195312 317.099609375 874.650390625 381.150390625 c 128,-1,38
 899.849609375 445.200195312 899.849609375 445.200195312 899.849609375 552.299804688 c 0,39,40
 899.849609375 680.400390625 899.849609375 680.400390625 859.424804688 759.150390625 c 128,-1,41
 819 837.900390625 819 837.900390625 719.25 837.900390625 c 0,42,43
 660.450195312 837.900390625 660.450195312 837.900390625 607.424804688 807.974609375 c 128,-1,44
 554.400390625 778.049804688 554.400390625 778.049804688 517.125 739.200195312 c 128,-1,45
 479.849609375 700.349609375 479.849609375 700.349609375 466.200195312 673.049804688 c 1,46,47
 466.200195312 598.5 466.200195312 598.5 478.799804688 525 c 128,-1,48
 491.400390625 451.5 491.400390625 451.5 518.174804688 391.650390625 c 128,-1,49
 544.950195312 331.799804688 544.950195312 331.799804688 590.099609375 296.625 c 128,-1,50
 635.25 261.450195312 635.25 261.450195312 701.400390625 261.450195312 c 0,35,36
EndSplineSet
Validated: 1
Substitution2: "'locl' Localized Forms in Cyrillic lookup 18 subtable" uni0431.loclSRB
Substitution2: "'locl' Localized Forms in Cyrillic lookup 17 subtable" uni0431.loclSRB
Substitution2: "'aalt' Access All Alternates lookup 0 subtable" uni0431.loclSRB
EndChar
StartChar: uni0437
Encoding: 1079 1079 464
Width: 1182
VWidth: 2150
GlyphClass: 2
Flags: W
AnchorPoint: "Anchor-1" 591.15 0 basechar 0
AnchorPoint: "Anchor-0" 576.45 1182.3 basechar 0
LayerCount: 2
Fore
SplineSet
561.75 1203.29980469 m 0,0,1
 698.25 1203.29980469 698.25 1203.29980469 813.224609375 1170.75 c 128,-1,2
 928.200195312 1138.20019531 928.200195312 1138.20019531 997.5 1068.90039062 c 128,-1,3
 1066.79980469 999.599609375 1066.79980469 999.599609375 1066.79980469 886.200195312 c 0,4,5
 1066.79980469 785.400390625 1066.79980469 785.400390625 1005.375 719.775390625 c 128,-1,6
 943.950195312 654.150390625 943.950195312 654.150390625 842.099609375 626.849609375 c 1,7,-1
 842.099609375 616.349609375 l 1,8,9
 927.150390625 601.650390625 927.150390625 601.650390625 986.474609375 565.950195312 c 128,-1,10
 1045.79980469 530.25 1045.79980469 530.25 1076.77539062 474.599609375 c 128,-1,11
 1107.75 418.950195312 1107.75 418.950195312 1107.75 340.200195312 c 0,12,13
 1107.75 234.150390625 1107.75 234.150390625 1045.27539062 152.775390625 c 128,-1,14
 982.799804688 71.400390625 982.799804688 71.400390625 853.125 25.2001953125 c 128,-1,15
 723.450195312 -21 723.450195312 -21 520.799804688 -21 c 0,16,17
 418.950195312 -21 418.950195312 -21 339.674804688 -12.599609375 c 128,-1,18
 260.400390625 -4.2001953125 260.400390625 -4.2001953125 196.875 11.5498046875 c 128,-1,19
 133.349609375 27.2998046875 133.349609375 27.2998046875 78.75 48.2998046875 c 1,20,-1
 78.75 338.099609375 l 1,21,22
 151.200195312 308.700195312 151.200195312 308.700195312 255.150390625 281.924804688 c 128,-1,23
 359.099609375 255.150390625 359.099609375 255.150390625 486.150390625 255.150390625 c 0,24,25
 575.400390625 255.150390625 575.400390625 255.150390625 633.150390625 269.849609375 c 128,-1,26
 690.900390625 284.549804688 690.900390625 284.549804688 718.724609375 311.849609375 c 128,-1,27
 746.549804688 339.150390625 746.549804688 339.150390625 746.549804688 373.799804688 c 0,28,29
 746.549804688 413.700195312 746.549804688 413.700195312 720.299804688 439.950195312 c 128,-1,30
 694.049804688 466.200195312 694.049804688 466.200195312 632.625 479.325195312 c 128,-1,31
 571.200195312 492.450195312 571.200195312 492.450195312 464.099609375 492.450195312 c 2,32,-1
 325.5 492.450195312 l 1,33,-1
 325.5 737.099609375 l 1,34,-1
 448.349609375 737.099609375 l 2,35,36
 592.200195312 737.099609375 592.200195312 737.099609375 661.5 760.724609375 c 128,-1,37
 730.799804688 784.349609375 730.799804688 784.349609375 730.799804688 842.099609375 c 0,38,39
 730.799804688 889.349609375 730.799804688 889.349609375 684.599609375 914.025390625 c 128,-1,40
 638.400390625 938.700195312 638.400390625 938.700195312 532.349609375 938.700195312 c 0,41,42
 448.349609375 938.700195312 448.349609375 938.700195312 360.674804688 919.275390625 c 128,-1,43
 273 899.849609375 273 899.849609375 187.950195312 864.150390625 c 1,44,-1
 82.9501953125 1114.04980469 l 1,45,46
 186.900390625 1156.04980469 186.900390625 1156.04980469 299.775390625 1179.67480469 c 128,-1,47
 412.650390625 1203.29980469 412.650390625 1203.29980469 561.75 1203.29980469 c 0,0,1
EndSplineSet
Validated: 1
EndChar
StartChar: uni0448
Encoding: 1096 1096 481
Width: 2122
VWidth: 2150
GlyphClass: 2
Flags: W
AnchorPoint: "Anchor-1" 1061.55 0 basechar 0
AnchorPoint: "Anchor-0" 1061.55 1182.3 basechar 0
LayerCount: 2
Fore
SplineSet
1966.65039062 1182.29980469 m 1,0,-1
 1966.65039062 0 l 1,1,-1
 155.400390625 0 l 1,2,-1
 155.400390625 1182.29980469 l 1,3,-1
 520.799804688 1182.29980469 l 1,4,-1
 520.799804688 273 l 1,5,-1
 882 273 l 1,6,-1
 882 1182.29980469 l 1,7,-1
 1242.15039062 1182.29980469 l 1,8,-1
 1242.15039062 273 l 1,9,-1
 1601.25 273 l 1,10,-1
 1601.25 1182.29980469 l 1,11,-1
 1966.65039062 1182.29980469 l 1,0,-1
EndSplineSet
Validated: 1
EndChar
StartChar: uni044C
Encoding: 1100 1100 485
Width: 1284
VWidth: 2150
GlyphClass: 2
Flags: W
AnchorPoint: "Anchor-1" 642.6 0 basechar 0
AnchorPoint: "Anchor-0" 642.6 1182.3 basechar 0
LayerCount: 2
Fore
SplineSet
520.799804688 741.299804688 m 1,0,-1
 701.400390625 741.299804688 l 2,1,2
 885.150390625 741.299804688 885.150390625 741.299804688 997.5 700.875 c 128,-1,3
 1109.84960938 660.450195312 1109.84960938 660.450195312 1160.77539062 581.174804688 c 128,-1,4
 1211.70019531 501.900390625 1211.70019531 501.900390625 1211.70019531 385.349609375 c 256,5,6
 1211.70019531 268.799804688 1211.70019531 268.799804688 1160.77539062 182.174804688 c 128,-1,7
 1109.84960938 95.5498046875 1109.84960938 95.5498046875 993.825195312 47.775390625 c 128,-1,8
 877.799804688 0 877.799804688 0 683.549804688 0 c 2,9,-1
 155.400390625 0 l 1,10,-1
 155.400390625 1182.29980469 l 1,11,-1
 520.799804688 1182.29980469 l 1,12,-1
 520.799804688 741.299804688 l 1,0,-1
846.299804688 372.75 m 0,13,14
 846.299804688 434.700195312 846.299804688 434.700195312 804.299804688 465.150390625 c 128,-1,15
 762.299804688 495.599609375 762.299804688 495.599609375 662.549804688 495.599609375 c 2,16,-1
 520.799804688 495.599609375 l 1,17,-1
 520.799804688 245.700195312 l 1,18,-1
 666.75 245.700195312 l 2,19,20
 751.799804688 245.700195312 751.799804688 245.700195312 799.049804688 276.674804688 c 128,-1,21
 846.299804688 307.650390625 846.299804688 307.650390625 846.299804688 372.75 c 0,13,14
EndSplineSet
Validated: 1
EndChar
StartChar: uni0454
Encoding: 1108 1108 492
Width: 1146
VWidth: 2150
GlyphClass: 2
Flags: W
AnchorPoint: "Anchor-1" 573.3 0 basechar 0
AnchorPoint: "Anchor-0" 573.3 1182.3 basechar 0
LayerCount: 2
Fore
SplineSet
686.700195312 -21 m 0,0,1
 504 -21 504 -21 371.174804688 42 c 128,-1,2
 238.349609375 105 238.349609375 105 165.900390625 238.349609375 c 128,-1,3
 93.4501953125 371.700195312 93.4501953125 371.700195312 93.4501953125 583.799804688 c 0,4,5
 93.4501953125 812.700195312 93.4501953125 812.700195312 169.049804688 948.674804688 c 128,-1,6
 244.650390625 1084.65039062 244.650390625 1084.65039062 379.049804688 1143.97460938 c 128,-1,7
 513.450195312 1203.29980469 513.450195312 1203.29980469 691.950195312 1203.29980469 c 0,8,9
 792.75 1203.29980469 792.75 1203.29980469 891.974609375 1181.77539062 c 128,-1,10
 991.200195312 1160.25 991.200195312 1160.25 1085.70019531 1120.34960938 c 1,11,-1
 979.650390625 868.349609375 l 1,12,13
 899.849609375 901.950195312 899.849609375 901.950195312 824.775390625 920.325195312 c 128,-1,14
 749.700195312 938.700195312 749.700195312 938.700195312 683.549804688 938.700195312 c 0,15,16
 622.650390625 938.700195312 622.650390625 938.700195312 576.974609375 913.5 c 128,-1,17
 531.299804688 888.299804688 531.299804688 888.299804688 503.474609375 837.900390625 c 128,-1,18
 475.650390625 787.5 475.650390625 787.5 467.25 709.799804688 c 1,19,-1
 883.049804688 709.799804688 l 1,20,-1
 883.049804688 474.599609375 l 1,21,-1
 468.299804688 474.599609375 l 1,22,23
 475.650390625 394.799804688 475.650390625 394.799804688 504 343.875 c 128,-1,24
 532.349609375 292.950195312 532.349609375 292.950195312 579.599609375 268.799804688 c 128,-1,25
 626.849609375 244.650390625 626.849609375 244.650390625 691.950195312 244.650390625 c 0,26,27
 786.450195312 244.650390625 786.450195312 244.650390625 871.5 268.275390625 c 128,-1,28
 956.549804688 291.900390625 956.549804688 291.900390625 1050 334.950195312 c 1,29,-1
 1050 60.900390625 l 1,30,31
 969.150390625 18.900390625 969.150390625 18.900390625 882 -1.0498046875 c 128,-1,32
 794.849609375 -21 794.849609375 -21 686.700195312 -21 c 0,0,1
EndSplineSet
Validated: 1
EndChar
StartChar: uni0459
Encoding: 1113 1113 497
Width: 1954
VWidth: 2150
GlyphClass: 2
Flags: W
AnchorPoint: "Anchor-1" 977.55 0 basechar 0
AnchorPoint: "Anchor-0" 977.55 1182.3 basechar 0
LayerCount: 2
Fore
SplineSet
1239 1182.29980469 m 1,0,-1
 1239 741.299804688 l 1,1,-1
 1332.45019531 741.299804688 l 2,2,3
 1529.84960938 741.299804688 1529.84960938 741.299804688 1650.59960938 701.400390625 c 128,-1,4
 1771.34960938 661.5 1771.34960938 661.5 1826.47460938 582.224609375 c 128,-1,5
 1881.59960938 502.950195312 1881.59960938 502.950195312 1881.59960938 384.299804688 c 0,6,7
 1881.59960938 267.75 1881.59960938 267.75 1831.20019531 181.650390625 c 128,-1,8
 1780.79980469 95.5498046875 1780.79980469 95.5498046875 1666.875 47.775390625 c 128,-1,9
 1552.95019531 0 1552.95019531 0 1360.79980469 0 c 2,10,-1
 873.599609375 0 l 1,11,-1
 873.599609375 909.299804688 l 1,12,-1
 643.650390625 909.299804688 l 1,13,14
 621.599609375 656.25 621.599609375 656.25 590.625 478.799804688 c 128,-1,15
 559.650390625 301.349609375 559.650390625 301.349609375 509.25 191.099609375 c 128,-1,16
 458.849609375 80.849609375 458.849609375 80.849609375 382.200195312 29.9248046875 c 128,-1,17
 305.549804688 -21 305.549804688 -21 193.200195312 -21 c 0,18,19
 140.700195312 -21 140.700195312 -21 92.9248046875 -12.0751953125 c 128,-1,20
 45.150390625 -3.150390625 45.150390625 -3.150390625 8.400390625 11.5498046875 c 1,21,-1
 8.400390625 292.950195312 l 1,22,23
 30.4501953125 282.450195312 30.4501953125 282.450195312 55.125 277.724609375 c 128,-1,24
 79.7998046875 273 79.7998046875 273 106.049804688 273 c 0,25,26
 134.400390625 273 134.400390625 273 159.599609375 293.474609375 c 128,-1,27
 184.799804688 313.950195312 184.799804688 313.950195312 207.900390625 368.549804688 c 128,-1,28
 231 423.150390625 231 423.150390625 250.950195312 525 c 128,-1,29
 270.900390625 626.849609375 270.900390625 626.849609375 288.75 787.5 c 128,-1,30
 306.599609375 948.150390625 306.599609375 948.150390625 322.349609375 1182.29980469 c 1,31,-1
 1239 1182.29980469 l 1,0,-1
1338.75 495.599609375 m 2,32,-1
 1239 495.599609375 l 1,33,-1
 1239 245.700195312 l 1,34,-1
 1342.95019531 245.700195312 l 2,35,36
 1424.84960938 245.700195312 1424.84960938 245.700195312 1470.52539062 276.674804688 c 128,-1,37
 1516.20019531 307.650390625 1516.20019531 307.650390625 1516.20019531 372.75 c 0,38,39
 1516.20019531 434.700195312 1516.20019531 434.700195312 1475.77539062 465.150390625 c 128,-1,40
 1435.34960938 495.599609375 1435.34960938 495.599609375 1338.75 495.599609375 c 2,32,-1
EndSplineSet
Validated: 1
EndChar
StartChar: uni045F
Encoding: 1119 1119 502
Width: 1463
VWidth: 2150
GlyphClass: 2
Flags: W
AnchorPoint: "Anchor-1" 732.9 -428.4 basechar 0
AnchorPoint: "Anchor-0" 732.9 1182.3 basechar 0
LayerCount: 2
Fore
SplineSet
570.150390625 0 m 1,0,-1
 155.400390625 0 l 1,1,-1
 155.400390625 1182.29980469 l 1,2,-1
 520.799804688 1182.29980469 l 1,3,-1
 520.799804688 273 l 1,4,-1
 942.900390625 273 l 1,5,-1
 942.900390625 1182.29980469 l 1,6,-1
 1309.34960938 1182.29980469 l 1,7,-1
 1309.34960938 0 l 1,8,-1
 893.549804688 0 l 1,9,-1
 893.549804688 -428.400390625 l 1,10,-1
 570.150390625 -428.400390625 l 1,11,-1
 570.150390625 0 l 1,0,-1
EndSplineSet
Validated: 1
EndChar
StartChar: uni0461
Encoding: 1121 1121 606
Width: 1916
VWidth: 2150
GlyphClass: 2
Flags: W
AnchorPoint: "Anchor-1" 959.7 0 basechar 0
AnchorPoint: "Anchor-0" 959.7 1182.3 basechar 0
LayerCount: 2
Fore
SplineSet
1852.20019531 1182.29980469 m 1,0,1
 1843.79980469 970.200195312 1843.79980469 970.200195312 1805.47460938 780.150390625 c 128,-1,2
 1767.15039062 590.099609375 1767.15039062 590.099609375 1687.34960938 400.575195312 c 128,-1,3
 1607.54980469 211.049804688 1607.54980469 211.049804688 1474.20019531 0 c 1,4,-1
 1146.59960938 0 l 1,5,6
 1114.04980469 60.900390625 1114.04980469 60.900390625 1076.77539062 133.349609375 c 128,-1,7
 1039.5 205.799804688 1039.5 205.799804688 1004.32519531 282.450195312 c 128,-1,8
 969.150390625 359.099609375 969.150390625 359.099609375 941.849609375 430.5 c 1,9,-1
 747.599609375 0 l 1,10,-1
 416.849609375 0 l 1,11,12
 345.450195312 108.150390625 345.450195312 108.150390625 277.200195312 246.75 c 128,-1,13
 208.950195312 385.349609375 208.950195312 385.349609375 153.825195312 542.849609375 c 128,-1,14
 98.7001953125 700.349609375 98.7001953125 700.349609375 67.2001953125 863.625 c 128,-1,15
 35.7001953125 1026.90039062 35.7001953125 1026.90039062 38.849609375 1182.29980469 c 1,16,-1
 394.799804688 1182.29980469 l 1,17,18
 401.099609375 995.400390625 401.099609375 995.400390625 432.075195312 830.025390625 c 128,-1,19
 463.049804688 664.650390625 463.049804688 664.650390625 506.099609375 528.674804688 c 128,-1,20
 549.150390625 392.700195312 549.150390625 392.700195312 594.299804688 290.849609375 c 1,21,-1
 601.650390625 290.849609375 l 1,22,23
 612.150390625 326.549804688 612.150390625 326.549804688 629.474609375 363.299804688 c 128,-1,24
 646.799804688 400.049804688 646.799804688 400.049804688 666.224609375 437.849609375 c 128,-1,25
 685.650390625 475.650390625 685.650390625 475.650390625 702.450195312 513.450195312 c 2,26,-1
 822.150390625 763.349609375 l 1,27,28
 800.099609375 852.599609375 800.099609375 852.599609375 787.5 962.325195312 c 128,-1,29
 774.900390625 1072.04980469 774.900390625 1072.04980469 773.849609375 1182.29980469 c 1,30,-1
 1126.65039062 1182.29980469 l 1,31,32
 1129.79980469 1022.70019531 1129.79980469 1022.70019531 1153.42480469 869.924804688 c 128,-1,33
 1177.04980469 717.150390625 1177.04980469 717.150390625 1216.95019531 573.299804688 c 128,-1,34
 1256.84960938 429.450195312 1256.84960938 429.450195312 1308.29980469 296.099609375 c 1,35,-1
 1316.70019531 296.099609375 l 1,36,37
 1369.20019531 414.75 1369.20019531 414.75 1407 549.150390625 c 128,-1,38
 1444.79980469 683.549804688 1444.79980469 683.549804688 1466.84960938 840.525390625 c 128,-1,39
 1488.90039062 997.5 1488.90039062 997.5 1494.15039062 1182.29980469 c 1,40,-1
 1852.20019531 1182.29980469 l 1,0,1
EndSplineSet
Validated: 33
EndChar
StartChar: uni0463
Encoding: 1123 1123 608
Width: 1450
VWidth: 2150
GlyphClass: 2
Flags: W
AnchorPoint: "Anchor-1" 724.5 0 basechar 0
AnchorPoint: "Anchor-0" 724.5 1407 basechar 0
LayerCount: 2
Fore
SplineSet
632.099609375 1407 m 1,0,-1
 632.099609375 1182.29980469 l 1,1,-1
 1018.5 1182.29980469 l 1,2,-1
 1018.5 927.150390625 l 1,3,-1
 632.099609375 927.150390625 l 1,4,-1
 632.099609375 737.099609375 l 1,5,-1
 817.950195312 737.099609375 l 2,6,7
 1105.65039062 737.099609375 1105.65039062 737.099609375 1241.625 648.900390625 c 128,-1,8
 1377.59960938 560.700195312 1377.59960938 560.700195312 1377.59960938 382.200195312 c 0,9,10
 1377.59960938 265.650390625 1377.59960938 265.650390625 1323.52539062 180.075195312 c 128,-1,11
 1269.45019531 94.5 1269.45019531 94.5 1151.32519531 47.25 c 128,-1,12
 1033.20019531 0 1033.20019531 0 838.950195312 0 c 2,13,-1
 266.700195312 0 l 1,14,-1
 266.700195312 927.150390625 l 1,15,-1
 0 927.150390625 l 1,16,-1
 0 1182.29980469 l 1,17,-1
 266.700195312 1182.29980469 l 1,18,-1
 266.700195312 1407 l 1,19,-1
 632.099609375 1407 l 1,0,-1
816.900390625 491.400390625 m 2,20,-1
 632.099609375 491.400390625 l 1,21,-1
 632.099609375 245.700195312 l 1,22,-1
 821.099609375 245.700195312 l 2,23,24
 906.150390625 245.700195312 906.150390625 245.700195312 959.174804688 275.625 c 128,-1,25
 1012.20019531 305.549804688 1012.20019531 305.549804688 1012.20019531 370.650390625 c 0,26,27
 1012.20019531 432.599609375 1012.20019531 432.599609375 964.424804688 462 c 128,-1,28
 916.650390625 491.400390625 916.650390625 491.400390625 816.900390625 491.400390625 c 2,20,-1
EndSplineSet
Validated: 1
EndChar
StartChar: uni046D
Encoding: 1133 1133 618
Width: 2037
VWidth: 2150
GlyphClass: 2
Flags: W
AnchorPoint: "Anchor-1" 1324.05 0 basechar 0
AnchorPoint: "Anchor-0" 1324.05 1182.3 basechar 0
LayerCount: 2
Fore
SplineSet
1906.79980469 1182.29980469 m 1,0,-1
 1906.79980469 1047.90039062 l 1,1,-1
 1610.70019531 679.349609375 l 1,2,3
 1683.15039062 659.400390625 1683.15039062 659.400390625 1737.75 618.974609375 c 128,-1,4
 1792.34960938 578.549804688 1792.34960938 578.549804688 1833.29980469 516.599609375 c 128,-1,5
 1874.25 454.650390625 1874.25 454.650390625 1903.65039062 366.450195312 c 2,6,-1
 2026.5 0 l 1,7,-1
 1693.65039062 0 l 1,8,-1
 1600.20019531 316.049804688 l 2,9,10
 1584.45019531 369.599609375 1584.45019531 369.599609375 1565.02539062 401.625 c 128,-1,11
 1545.59960938 433.650390625 1545.59960938 433.650390625 1523.02539062 449.924804688 c 128,-1,12
 1500.45019531 466.200195312 1500.45019531 466.200195312 1472.09960938 470.400390625 c 1,13,-1
 1472.09960938 0 l 1,14,-1
 1167.59960938 0 l 1,15,-1
 1167.59960938 471.450195312 l 1,16,17
 1139.25 468.299804688 1139.25 468.299804688 1115.625 453.075195312 c 128,-1,18
 1092 437.849609375 1092 437.849609375 1072.57519531 405.825195312 c 128,-1,19
 1053.15039062 373.799804688 1053.15039062 373.799804688 1035.29980469 317.099609375 c 2,20,-1
 941.849609375 0 l 1,21,-1
 610.049804688 0 l 1,22,-1
 728.700195312 366.450195312 l 2,23,24
 737.099609375 394.799804688 737.099609375 394.799804688 749.700195312 422.625 c 128,-1,25
 762.299804688 450.450195312 762.299804688 450.450195312 778.049804688 470.400390625 c 1,26,-1
 488.25 470.400390625 l 1,27,-1
 488.25 0 l 1,28,-1
 155.400390625 0 l 1,29,-1
 155.400390625 1182.29980469 l 1,30,-1
 488.25 1182.29980469 l 1,31,-1
 488.25 742.349609375 l 1,32,-1
 977.549804688 742.349609375 l 1,33,-1
 729.75 1047.90039062 l 1,34,-1
 729.75 1182.29980469 l 1,35,-1
 1906.79980469 1182.29980469 l 1,0,-1
1494.15039062 941.849609375 m 1,36,-1
 1140.29980469 941.849609375 l 1,37,-1
 1315.65039062 715.049804688 l 1,38,-1
 1494.15039062 941.849609375 l 1,36,-1
EndSplineSet
Validated: 1
EndChar
StartChar: uni046E
Encoding: 1134 1134 619
Width: 1395
VWidth: 2150
GlyphClass: 2
Flags: W
AnchorPoint: "Anchor-1" 698.25 -497.7 basechar 0
AnchorPoint: "Anchor-0" 698.25 1874.25 basechar 0
LayerCount: 2
Fore
SplineSet
1056.29980469 1874.25 m 0,0,1
 1111.95019531 1874.25 1111.95019531 1874.25 1146.07519531 1868.47460938 c 128,-1,2
 1180.20019531 1862.70019531 1180.20019531 1862.70019531 1193.84960938 1857.45019531 c 1,3,-1
 1193.84960938 1680 l 1,4,5
 1183.34960938 1685.25 1183.34960938 1685.25 1157.625 1688.92480469 c 128,-1,6
 1131.90039062 1692.59960938 1131.90039062 1692.59960938 1104.59960938 1692.59960938 c 0,7,8
 1052.09960938 1692.59960938 1052.09960938 1692.59960938 1002.75 1649.54980469 c 128,-1,9
 953.400390625 1606.5 953.400390625 1606.5 908.25 1530.90039062 c 1,10,11
 1067.84960938 1492.04980469 1067.84960938 1492.04980469 1157.09960938 1398.07519531 c 128,-1,12
 1246.34960938 1304.09960938 1246.34960938 1304.09960938 1246.34960938 1176 c 0,13,14
 1246.34960938 1022.70019531 1246.34960938 1022.70019531 1149.22460938 929.775390625 c 128,-1,15
 1052.09960938 836.849609375 1052.09960938 836.849609375 886.200195312 809.549804688 c 1,16,-1
 886.200195312 802.200195312 l 1,17,18
 1089.90039062 783.299804688 1089.90039062 783.299804688 1194.375 687.224609375 c 128,-1,19
 1298.84960938 591.150390625 1298.84960938 591.150390625 1298.84960938 437.849609375 c 0,20,21
 1298.84960938 337.049804688 1298.84960938 337.049804688 1257.90039062 253.575195312 c 128,-1,22
 1216.95019531 170.099609375 1216.95019531 170.099609375 1135.57519531 109.200195312 c 128,-1,23
 1054.20019531 48.2998046875 1054.20019531 48.2998046875 933.450195312 14.7001953125 c 128,-1,24
 812.700195312 -18.900390625 812.700195312 -18.900390625 653.099609375 -21 c 0,25,26
 554.400390625 -22.0498046875 554.400390625 -22.0498046875 502.424804688 -32.025390625 c 128,-1,27
 450.450195312 -42 450.450195312 -42 431.025390625 -62.474609375 c 128,-1,28
 411.599609375 -82.9501953125 411.599609375 -82.9501953125 411.599609375 -115.5 c 0,29,30
 411.599609375 -153.299804688 411.599609375 -153.299804688 443.625 -174.299804688 c 128,-1,31
 475.650390625 -195.299804688 475.650390625 -195.299804688 554.400390625 -195.299804688 c 0,32,33
 630 -195.299804688 630 -195.299804688 693 -192.674804688 c 128,-1,34
 756 -190.049804688 756 -190.049804688 809.549804688 -187.424804688 c 128,-1,35
 863.099609375 -184.799804688 863.099609375 -184.799804688 909.299804688 -184.799804688 c 0,36,37
 982.799804688 -184.799804688 982.799804688 -184.799804688 1029 -196.875 c 128,-1,38
 1075.20019531 -208.950195312 1075.20019531 -208.950195312 1090.95019531 -228.900390625 c 1,39,-1
 1090.95019531 -497.700195312 l 1,40,41
 1069.95019531 -477.75 1069.95019531 -477.75 1017.97460938 -467.775390625 c 128,-1,42
 966 -457.799804688 966 -457.799804688 910.349609375 -457.799804688 c 0,43,44
 846.299804688 -457.799804688 846.299804688 -457.799804688 777 -459.900390625 c 128,-1,45
 707.700195312 -462 707.700195312 -462 630.525390625 -464.099609375 c 128,-1,46
 553.349609375 -466.200195312 553.349609375 -466.200195312 464.099609375 -466.200195312 c 0,47,48
 322.349609375 -466.200195312 322.349609375 -466.200195312 229.424804688 -417.900390625 c 128,-1,49
 136.5 -369.599609375 136.5 -369.599609375 90.8251953125 -288.224609375 c 128,-1,50
 45.150390625 -206.849609375 45.150390625 -206.849609375 45.150390625 -110.25 c 0,51,52
 45.150390625 -1.0498046875 45.150390625 -1.0498046875 90.8251953125 85.0498046875 c 128,-1,53
 136.5 171.150390625 136.5 171.150390625 250.950195312 222.075195312 c 128,-1,54
 365.400390625 273 365.400390625 273 569.099609375 276.150390625 c 0,55,56
 759.150390625 280.349609375 759.150390625 280.349609375 842.099609375 323.924804688 c 128,-1,57
 925.049804688 367.5 925.049804688 367.5 925.049804688 469.349609375 c 0,58,59
 925.049804688 562.799804688 925.049804688 562.799804688 813.75 607.424804688 c 128,-1,60
 702.450195312 652.049804688 702.450195312 652.049804688 501.900390625 652.049804688 c 2,61,-1
 340.200195312 652.049804688 l 1,62,-1
 340.200195312 947.099609375 l 1,63,-1
 485.099609375 947.099609375 l 2,64,65
 642.599609375 947.099609375 642.599609375 947.099609375 728.174804688 966 c 128,-1,66
 813.75 984.900390625 813.75 984.900390625 846.825195312 1022.17480469 c 128,-1,67
 879.900390625 1059.45019531 879.900390625 1059.45019531 879.900390625 1113 c 0,68,69
 879.900390625 1180.20019531 879.900390625 1180.20019531 819 1218.52539062 c 128,-1,70
 758.099609375 1256.84960938 758.099609375 1256.84960938 628.950195312 1256.84960938 c 0,71,72
 521.849609375 1256.84960938 521.849609375 1256.84960938 423.150390625 1226.92480469 c 128,-1,73
 324.450195312 1197 324.450195312 1197 237.299804688 1141.34960938 c 1,74,-1
 78.75 1392.29980469 l 1,75,76
 168 1450.04980469 168 1450.04980469 262.5 1488.375 c 128,-1,77
 357 1526.70019531 357 1526.70019531 478.799804688 1542.45019531 c 1,78,79
 443.099609375 1587.59960938 443.099609375 1587.59960938 398.474609375 1638.52539062 c 128,-1,80
 353.849609375 1689.45019531 353.849609375 1689.45019531 311.849609375 1735.125 c 128,-1,81
 269.849609375 1780.79980469 269.849609375 1780.79980469 240.450195312 1808.09960938 c 1,82,-1
 240.450195312 1836.45019531 l 1,83,-1
 487.200195312 1836.45019531 l 1,84,85
 534.450195312 1800.75 534.450195312 1800.75 591.150390625 1746.67480469 c 128,-1,86
 647.849609375 1692.59960938 647.849609375 1692.59960938 701.400390625 1631.70019531 c 1,87,88
 756 1705.20019531 756 1705.20019531 806.400390625 1759.27539062 c 128,-1,89
 856.799804688 1813.34960938 856.799804688 1813.34960938 916.125 1843.79980469 c 128,-1,90
 975.450195312 1874.25 975.450195312 1874.25 1056.29980469 1874.25 c 0,0,1
EndSplineSet
Validated: 1
EndChar
StartChar: uni046F
Encoding: 1135 1135 620
Width: 1192
VWidth: 2150
GlyphClass: 2
Flags: W
AnchorPoint: "Anchor-1" 596.4 -501.9 basechar 0
AnchorPoint: "Anchor-0" 596.4 1457.4 basechar 0
LayerCount: 2
Fore
SplineSet
938.700195312 1457.40039062 m 0,0,1
 994.349609375 1457.40039062 994.349609375 1457.40039062 1027.42480469 1450.57519531 c 128,-1,2
 1060.5 1443.75 1060.5 1443.75 1076.25 1438.5 c 1,3,-1
 1076.25 1266.29980469 l 1,4,5
 1063.65039062 1271.54980469 1063.65039062 1271.54980469 1035.29980469 1276.27539062 c 128,-1,6
 1006.95019531 1281 1006.95019531 1281 976.5 1281 c 0,7,8
 935.549804688 1281 935.549804688 1281 895.125 1250.02539062 c 128,-1,9
 854.700195312 1219.04980469 854.700195312 1219.04980469 822.150390625 1170.75 c 1,10,11
 933.450195312 1139.25 933.450195312 1139.25 1005.375 1069.42480469 c 128,-1,12
 1077.29980469 999.599609375 1077.29980469 999.599609375 1077.29980469 886.200195312 c 0,13,14
 1077.29980469 785.400390625 1077.29980469 785.400390625 1017.97460938 719.775390625 c 128,-1,15
 958.650390625 654.150390625 958.650390625 654.150390625 859.950195312 626.849609375 c 1,16,-1
 859.950195312 616.349609375 l 1,17,18
 942.900390625 601.650390625 942.900390625 601.650390625 1000.125 565.950195312 c 128,-1,19
 1057.34960938 530.25 1057.34960938 530.25 1087.79980469 474.599609375 c 128,-1,20
 1118.25 418.950195312 1118.25 418.950195312 1118.25 340.200195312 c 0,21,22
 1118.25 234.150390625 1118.25 234.150390625 1063.65039062 154.349609375 c 128,-1,23
 1009.04980469 74.5498046875 1009.04980469 74.5498046875 884.625 28.875 c 128,-1,24
 760.200195312 -16.7998046875 760.200195312 -16.7998046875 550.200195312 -21 c 0,25,26
 467.25 -22.0498046875 467.25 -22.0498046875 422.625 -33.0751953125 c 128,-1,27
 378 -44.099609375 378 -44.099609375 360.674804688 -63.525390625 c 128,-1,28
 343.349609375 -82.9501953125 343.349609375 -82.9501953125 343.349609375 -111.299804688 c 0,29,30
 343.349609375 -161.700195312 343.349609375 -161.700195312 381.674804688 -180.599609375 c 128,-1,31
 420 -199.5 420 -199.5 498.75 -199.5 c 0,32,33
 564.900390625 -199.5 564.900390625 -199.5 613.724609375 -196.875 c 128,-1,34
 662.549804688 -194.25 662.549804688 -194.25 706.125 -191.625 c 128,-1,35
 749.700195312 -189 749.700195312 -189 801.150390625 -189 c 0,36,37
 873.599609375 -189 873.599609375 -189 915.075195312 -201.075195312 c 128,-1,38
 956.549804688 -213.150390625 956.549804688 -213.150390625 976.5 -233.099609375 c 1,39,-1
 976.5 -501.900390625 l 1,40,41
 956.549804688 -481.950195312 956.549804688 -481.950195312 907.200195312 -469.875 c 128,-1,42
 857.849609375 -457.799804688 857.849609375 -457.799804688 812.700195312 -457.799804688 c 0,43,44
 756 -457.799804688 756 -457.799804688 700.875 -460.424804688 c 128,-1,45
 645.75 -463.049804688 645.75 -463.049804688 584.325195312 -465.150390625 c 128,-1,46
 522.900390625 -467.25 522.900390625 -467.25 446.25 -467.25 c 0,47,48
 291.900390625 -467.25 291.900390625 -467.25 196.875 -423.150390625 c 128,-1,49
 101.849609375 -379.049804688 101.849609375 -379.049804688 58.7998046875 -300.299804688 c 128,-1,50
 15.75 -221.549804688 15.75 -221.549804688 15.75 -118.650390625 c 0,51,52
 15.75 -2.099609375 15.75 -2.099609375 67.2001953125 78.75 c 128,-1,53
 118.650390625 159.599609375 118.650390625 159.599609375 225.75 202.650390625 c 128,-1,54
 332.849609375 245.700195312 332.849609375 245.700195312 498.75 248.849609375 c 0,55,56
 597.450195312 249.900390625 597.450195312 249.900390625 654.150390625 268.275390625 c 128,-1,57
 710.849609375 286.650390625 710.849609375 286.650390625 733.950195312 314.474609375 c 128,-1,58
 757.049804688 342.299804688 757.049804688 342.299804688 757.049804688 373.799804688 c 0,59,60
 757.049804688 413.700195312 757.049804688 413.700195312 730.799804688 439.950195312 c 128,-1,61
 704.549804688 466.200195312 704.549804688 466.200195312 643.125 479.325195312 c 128,-1,62
 581.700195312 492.450195312 581.700195312 492.450195312 475.650390625 492.450195312 c 2,63,-1
 336 492.450195312 l 1,64,-1
 336 737.099609375 l 1,65,-1
 458.849609375 737.099609375 l 2,66,67
 602.700195312 737.099609375 602.700195312 737.099609375 672 760.724609375 c 128,-1,68
 741.299804688 784.349609375 741.299804688 784.349609375 741.299804688 842.099609375 c 0,69,70
 741.299804688 889.349609375 741.299804688 889.349609375 695.099609375 914.025390625 c 128,-1,71
 648.900390625 938.700195312 648.900390625 938.700195312 542.849609375 938.700195312 c 0,72,73
 458.849609375 938.700195312 458.849609375 938.700195312 371.174804688 919.275390625 c 128,-1,74
 283.5 899.849609375 283.5 899.849609375 199.5 864.150390625 c 1,75,-1
 93.4501953125 1114.04980469 l 1,76,77
 147 1135.04980469 147 1135.04980469 202.650390625 1152.375 c 128,-1,78
 258.299804688 1169.70019531 258.299804688 1169.70019531 319.200195312 1180.20019531 c 1,79,80
 289.799804688 1216.95019531 289.799804688 1216.95019531 256.200195312 1256.32519531 c 128,-1,81
 222.599609375 1295.70019531 222.599609375 1295.70019531 191.099609375 1331.40039062 c 128,-1,82
 159.599609375 1367.09960938 159.599609375 1367.09960938 135.450195312 1391.25 c 1,83,-1
 135.450195312 1419.59960938 l 1,84,-1
 366.450195312 1419.59960938 l 1,85,86
 411.599609375 1387.04980469 411.599609375 1387.04980469 468.299804688 1334.02539062 c 128,-1,87
 525 1281 525 1281 583.799804688 1214.84960938 c 1,88,89
 639.450195312 1286.25 639.450195312 1286.25 690.900390625 1340.84960938 c 128,-1,90
 742.349609375 1395.45019531 742.349609375 1395.45019531 801.674804688 1426.42480469 c 128,-1,91
 861 1457.40039062 861 1457.40039062 938.700195312 1457.40039062 c 0,0,1
EndSplineSet
Validated: 1
EndChar
StartChar: uni0472
Encoding: 1138 1138 623
Width: 1712
VWidth: 2150
GlyphClass: 2
Flags: W
AnchorPoint: "Anchor-1" 856.8 0 basechar 0
AnchorPoint: "Anchor-0" 856.8 1535.1 basechar 0
LayerCount: 2
Fore
SplineSet
1594.95019531 769.650390625 m 0,0,1
 1594.95019531 592.200195312 1594.95019531 592.200195312 1551.375 446.775390625 c 128,-1,2
 1507.79980469 301.349609375 1507.79980469 301.349609375 1418.02539062 196.349609375 c 128,-1,3
 1328.25 91.349609375 1328.25 91.349609375 1188.59960938 35.1748046875 c 128,-1,4
 1048.95019531 -21 1048.95019531 -21 855.75 -21 c 0,5,6
 665.700195312 -21 665.700195312 -21 526.049804688 35.1748046875 c 128,-1,7
 386.400390625 91.349609375 386.400390625 91.349609375 296.099609375 196.349609375 c 128,-1,8
 205.799804688 301.349609375 205.799804688 301.349609375 161.700195312 447.299804688 c 128,-1,9
 117.599609375 593.25 117.599609375 593.25 117.599609375 771.75 c 0,10,11
 117.599609375 1011.15039062 117.599609375 1011.15039062 196.349609375 1188.07519531 c 128,-1,12
 275.099609375 1365 275.099609375 1365 439.424804688 1462.125 c 128,-1,13
 603.75 1559.25 603.75 1559.25 857.849609375 1559.25 c 0,14,15
 1114.04980469 1559.25 1114.04980469 1559.25 1276.79980469 1461.59960938 c 128,-1,16
 1439.54980469 1363.95019531 1439.54980469 1363.95019531 1517.25 1186.5 c 128,-1,17
 1594.95019531 1009.04980469 1594.95019531 1009.04980469 1594.95019531 769.650390625 c 0,0,1
855.75 278.25 m 0,18,19
 973.349609375 278.25 973.349609375 278.25 1050.52539062 321.299804688 c 128,-1,20
 1127.70019531 364.349609375 1127.70019531 364.349609375 1170.22460938 445.200195312 c 128,-1,21
 1212.75 526.049804688 1212.75 526.049804688 1223.25 639.450195312 c 1,22,-1
 488.25 639.450195312 l 1,23,24
 499.799804688 526.049804688 499.799804688 526.049804688 542.849609375 445.200195312 c 128,-1,25
 585.900390625 364.349609375 585.900390625 364.349609375 664.125 321.299804688 c 128,-1,26
 742.349609375 278.25 742.349609375 278.25 855.75 278.25 c 0,18,19
857.849609375 1265.25 m 0,27,28
 748.650390625 1265.25 748.650390625 1265.25 673.049804688 1225.34960938 c 128,-1,29
 597.450195312 1185.45019531 597.450195312 1185.45019531 553.349609375 1109.84960938 c 128,-1,30
 509.25 1034.25 509.25 1034.25 493.5 927.150390625 c 1,31,-1
 1218 927.150390625 l 1,32,33
 1195.95019531 1087.79980469 1195.95019531 1087.79980469 1109.84960938 1176.52539062 c 128,-1,34
 1023.75 1265.25 1023.75 1265.25 857.849609375 1265.25 c 0,27,28
EndSplineSet
Validated: 1
EndChar
StartChar: uni0475
Encoding: 1141 1141 626
Width: 1335
VWidth: 2150
GlyphClass: 2
Flags: W
AnchorPoint: "Anchor-1" 668.85 0 basechar 0
AnchorPoint: "Anchor-0" 649.95 1182.3 basechar 0
LayerCount: 2
Fore
SplineSet
1151.84960938 1197 m 0,0,1
 1170.75 1197 1170.75 1197 1223.25 1190.70019531 c 128,-1,2
 1275.75 1184.40039062 1275.75 1184.40039062 1321.95019531 1164.45019531 c 1,3,-1
 1321.95019531 891.450195312 l 1,4,5
 1294.65039062 901.950195312 1294.65039062 901.950195312 1274.17480469 905.625 c 128,-1,6
 1253.70019531 909.299804688 1253.70019531 909.299804688 1235.84960938 909.299804688 c 0,7,8
 1206.45019531 909.299804688 1206.45019531 909.299804688 1185.97460938 896.174804688 c 128,-1,9
 1165.5 883.049804688 1165.5 883.049804688 1151.32519531 860.474609375 c 128,-1,10
 1137.15039062 837.900390625 1137.15039062 837.900390625 1125.59960938 806.400390625 c 2,11,-1
 817.950195312 0 l 1,12,-1
 451.5 0 l 1,13,-1
 0 1182.29980469 l 1,14,-1
 382.200195312 1182.29980469 l 1,15,-1
 590.099609375 501.900390625 l 2,16,17
 602.700195312 463.049804688 602.700195312 463.049804688 614.775390625 410.025390625 c 128,-1,18
 626.849609375 357 626.849609375 357 628.950195312 313.950195312 c 1,19,-1
 636.299804688 313.950195312 l 1,20,21
 639.450195312 358.049804688 639.450195312 358.049804688 650.474609375 406.349609375 c 128,-1,22
 661.5 454.650390625 661.5 454.650390625 675.150390625 496.650390625 c 2,23,-1
 799.049804688 861 l 2,24,25
 841.049804688 982.799804688 841.049804688 982.799804688 882.525390625 1056.29980469 c 128,-1,26
 924 1129.79980469 924 1129.79980469 986.474609375 1163.40039062 c 128,-1,27
 1048.95019531 1197 1048.95019531 1197 1151.84960938 1197 c 0,0,1
EndSplineSet
Validated: 1
EndChar
StartChar: uni0478
Encoding: 1144 1144 629
Width: 2931
VWidth: 2150
GlyphClass: 2
Flags: W
AnchorPoint: "Anchor-1" 1466.85 -516.6 basechar 0
AnchorPoint: "Anchor-0" 1466.85 1535.1 basechar 0
LayerCount: 2
Fore
SplineSet
1551.90039062 769.650390625 m 0,0,1
 1551.90039062 592.200195312 1551.90039062 592.200195312 1511.47460938 446.775390625 c 128,-1,2
 1471.04980469 301.349609375 1471.04980469 301.349609375 1384.95019531 196.349609375 c 128,-1,3
 1298.84960938 91.349609375 1298.84960938 91.349609375 1162.34960938 35.1748046875 c 128,-1,4
 1025.84960938 -21 1025.84960938 -21 834.75 -21 c 0,5,6
 644.700195312 -21 644.700195312 -21 508.724609375 35.1748046875 c 128,-1,7
 372.75 91.349609375 372.75 91.349609375 286.125 196.349609375 c 128,-1,8
 199.5 301.349609375 199.5 301.349609375 158.549804688 447.299804688 c 128,-1,9
 117.599609375 593.25 117.599609375 593.25 117.599609375 771.75 c 0,10,11
 117.599609375 1011.15039062 117.599609375 1011.15039062 191.625 1188.07519531 c 128,-1,12
 265.650390625 1365 265.650390625 1365 424.724609375 1462.125 c 128,-1,13
 583.799804688 1559.25 583.799804688 1559.25 836.849609375 1559.25 c 0,14,15
 1090.95019531 1559.25 1090.95019531 1559.25 1248.45019531 1461.59960938 c 128,-1,16
 1405.95019531 1363.95019531 1405.95019531 1363.95019531 1478.92480469 1186.5 c 128,-1,17
 1551.90039062 1009.04980469 1551.90039062 1009.04980469 1551.90039062 769.650390625 c 0,0,1
502.950195312 769.650390625 m 0,18,19
 502.950195312 620.549804688 502.950195312 620.549804688 534.974609375 512.400390625 c 128,-1,20
 567 404.25 567 404.25 639.974609375 346.5 c 128,-1,21
 712.950195312 288.75 712.950195312 288.75 834.75 288.75 c 0,22,23
 959.700195312 288.75 959.700195312 288.75 1032.15039062 346.5 c 128,-1,24
 1104.59960938 404.25 1104.59960938 404.25 1135.04980469 512.400390625 c 128,-1,25
 1165.5 620.549804688 1165.5 620.549804688 1165.5 769.650390625 c 0,26,27
 1165.5 919.799804688 1165.5 919.799804688 1135.04980469 1028.47460938 c 128,-1,28
 1104.59960938 1137.15039062 1104.59960938 1137.15039062 1032.67480469 1195.42480469 c 128,-1,29
 960.75 1253.70019531 960.75 1253.70019531 836.849609375 1253.70019531 c 256,30,31
 712.950195312 1253.70019531 712.950195312 1253.70019531 639.974609375 1195.42480469 c 128,-1,32
 567 1137.15039062 567 1137.15039062 534.974609375 1028.47460938 c 128,-1,33
 502.950195312 919.799804688 502.950195312 919.799804688 502.950195312 769.650390625 c 0,18,19
1662.15039062 1182.29980469 m 1,34,-1
 2053.79980469 1182.29980469 l 1,35,-1
 2265.90039062 510.299804688 l 2,36,37
 2273.25 487.200195312 2273.25 487.200195312 2279.02539062 460.424804688 c 128,-1,38
 2284.79980469 433.650390625 2284.79980469 433.650390625 2289 404.25 c 128,-1,39
 2293.20019531 374.849609375 2293.20019531 374.849609375 2295.29980469 344.400390625 c 1,40,-1
 2302.65039062 344.400390625 l 1,41,42
 2307.90039062 393.75 2307.90039062 393.75 2316.82519531 434.700195312 c 128,-1,43
 2325.75 475.650390625 2325.75 475.650390625 2338.34960938 509.25 c 2,44,-1
 2549.40039062 1182.29980469 l 1,45,-1
 2931.59960938 1182.29980469 l 1,46,-1
 2447.54980469 -112.349609375 l 2,47,48
 2397.15039062 -245.700195312 2397.15039062 -245.700195312 2325.22460938 -335.474609375 c 128,-1,49
 2253.29980469 -425.25 2253.29980469 -425.25 2153.54980469 -470.924804688 c 128,-1,50
 2053.79980469 -516.599609375 2053.79980469 -516.599609375 1919.40039062 -516.599609375 c 0,51,52
 1863.75 -516.599609375 1863.75 -516.599609375 1823.84960938 -510.825195312 c 128,-1,53
 1783.95019531 -505.049804688 1783.95019531 -505.049804688 1754.54980469 -498.75 c 1,54,-1
 1754.54980469 -210 l 1,55,56
 1776.59960938 -215.25 1776.59960938 -215.25 1810.20019531 -219.450195312 c 128,-1,57
 1843.79980469 -223.650390625 1843.79980469 -223.650390625 1880.54980469 -223.650390625 c 0,58,59
 1947.75 -223.650390625 1947.75 -223.650390625 1993.42480469 -195.825195312 c 128,-1,60
 2039.09960938 -168 2039.09960938 -168 2069.02539062 -121.799804688 c 128,-1,61
 2098.95019531 -75.599609375 2098.95019531 -75.599609375 2118.90039062 -21 c 2,62,-1
 2130.45019531 12.599609375 l 1,63,-1
 1662.15039062 1182.29980469 l 1,34,-1
EndSplineSet
Validated: 1
EndChar
StartChar: uni047A
Encoding: 1146 1146 631
Width: 1798
VWidth: 2150
GlyphClass: 1
Flags: W
LayerCount: 2
Fore
SplineSet
901.950195312 -132.299804688 m 0,0,1
 840 -132.299804688 840 -132.299804688 801.150390625 -102.375 c 128,-1,2
 762.299804688 -72.4501953125 762.299804688 -72.4501953125 745.5 -10.5 c 1,3,4
 583.799804688 9.4501953125 583.799804688 9.4501953125 465.150390625 73.5 c 128,-1,5
 346.5 137.549804688 346.5 137.549804688 269.325195312 239.400390625 c 128,-1,6
 192.150390625 341.25 192.150390625 341.25 154.875 476.174804688 c 128,-1,7
 117.599609375 611.099609375 117.599609375 611.099609375 117.599609375 771.75 c 0,8,9
 117.599609375 985.950195312 117.599609375 985.950195312 184.275390625 1150.79980469 c 128,-1,10
 250.950195312 1315.65039062 250.950195312 1315.65039062 390.599609375 1418.54980469 c 128,-1,11
 530.25 1521.45019531 530.25 1521.45019531 746.549804688 1548.75 c 1,12,13
 765.450195312 1615.95019531 765.450195312 1615.95019531 803.775390625 1640.625 c 128,-1,14
 842.099609375 1665.29980469 842.099609375 1665.29980469 901.950195312 1665.29980469 c 0,15,16
 959.700195312 1665.29980469 959.700195312 1665.29980469 997.5 1640.625 c 128,-1,17
 1035.29980469 1615.95019531 1035.29980469 1615.95019531 1055.25 1548.75 c 1,18,19
 1271.54980469 1521.45019531 1271.54980469 1521.45019531 1409.625 1418.54980469 c 128,-1,20
 1547.70019531 1315.65039062 1547.70019531 1315.65039062 1614.375 1150.27539062 c 128,-1,21
 1681.04980469 984.900390625 1681.04980469 984.900390625 1681.04980469 769.650390625 c 0,22,23
 1681.04980469 610.049804688 1681.04980469 610.049804688 1643.77539062 476.174804688 c 128,-1,24
 1606.5 342.299804688 1606.5 342.299804688 1530.375 240.974609375 c 128,-1,25
 1454.25 139.650390625 1454.25 139.650390625 1336.65039062 75.0751953125 c 128,-1,26
 1219.04980469 10.5 1219.04980469 10.5 1057.34960938 -10.5 c 1,27,28
 1039.5 -71.400390625 1039.5 -71.400390625 1000.125 -101.849609375 c 128,-1,29
 960.75 -132.299804688 960.75 -132.299804688 901.950195312 -132.299804688 c 0,0,1
753.900390625 308.700195312 m 1,30,31
 775.950195312 354.900390625 775.950195312 354.900390625 812.174804688 375.900390625 c 128,-1,32
 848.400390625 396.900390625 848.400390625 396.900390625 899.849609375 396.900390625 c 0,33,34
 952.349609375 396.900390625 952.349609375 396.900390625 989.099609375 375.900390625 c 128,-1,35
 1025.84960938 354.900390625 1025.84960938 354.900390625 1046.84960938 308.700195312 c 1,36,37
 1135.04980469 337.049804688 1135.04980469 337.049804688 1189.65039062 399.525390625 c 128,-1,38
 1244.25 462 1244.25 462 1269.45019531 555.974609375 c 128,-1,39
 1294.65039062 649.950195312 1294.65039062 649.950195312 1294.65039062 769.650390625 c 0,40,41
 1294.65039062 949.200195312 1294.65039062 949.200195312 1237.42480469 1068.375 c 128,-1,42
 1180.20019531 1187.54980469 1180.20019531 1187.54980469 1050 1230.59960938 c 1,43,44
 1031.09960938 1183.34960938 1031.09960938 1183.34960938 992.775390625 1160.25 c 128,-1,45
 954.450195312 1137.15039062 954.450195312 1137.15039062 899.849609375 1137.15039062 c 0,46,47
 847.349609375 1137.15039062 847.349609375 1137.15039062 809.549804688 1160.77539062 c 128,-1,48
 771.75 1184.40039062 771.75 1184.40039062 749.700195312 1230.59960938 c 1,49,50
 663.599609375 1202.25 663.599609375 1202.25 609 1138.72460938 c 128,-1,51
 554.400390625 1075.20019531 554.400390625 1075.20019531 528.674804688 982.275390625 c 128,-1,52
 502.950195312 889.349609375 502.950195312 889.349609375 502.950195312 769.650390625 c 256,53,54
 502.950195312 649.950195312 502.950195312 649.950195312 529.724609375 555.974609375 c 128,-1,55
 556.5 462 556.5 462 612.150390625 399.525390625 c 128,-1,56
 667.799804688 337.049804688 667.799804688 337.049804688 753.900390625 308.700195312 c 1,30,31
EndSplineSet
Validated: 1
EndChar
